<?xml version="1.0" encoding="UTF-8" standalone="no"?>
<svg
   viewBox="0 0 165.40945 95.110906"
   width="165.40945"
   height="95.110901"
   version="1.1"
   id="svg5476"
   sodipodi:docname="5007620481.svg"
   inkscape:version="1.4.3 (0d15f75, 2025-12-25)"
   xmlns:inkscape="http://www.inkscape.org/namespaces/inkscape"
   xmlns:sodipodi="http://sodipodi.sourceforge.net/DTD/sodipodi-0.dtd"
   xmlns="http://www.w3.org/2000/svg"
   xmlns:svg="http://www.w3.org/2000/svg">
  <sodipodi:namedview
     id="namedview5476"
     pagecolor="#ffffff"
     bordercolor="#000000"
     borderopacity="0.25"
     inkscape:showpageshadow="2"
     inkscape:pageopacity="0.0"
     inkscape:pagecheckerboard="0"
     inkscape:deskcolor="#d1d1d1"
     inkscape:zoom="8.1487736"
     inkscape:cx="82.650474"
     inkscape:cy="47.553168"
     inkscape:window-width="2560"
     inkscape:window-height="991"
     inkscape:window-x="-9"
     inkscape:window-y="-9"
     inkscape:window-maximized="1"
     inkscape:current-layer="layer2" />
  <desc
     id="desc1">5007620481_front.dxf - scale = 1.000000, origin = (0.000000, 0.000000), method = manual</desc>
  <defs
     id="defs4">
    <marker
       id="DistanceX"
       orient="auto"
       refX="0"
       refY="0"
       style="overflow:visible">
      <path
         d="M 3,-3 -3,3 M 0,-5 V 5"
         style="stroke:#000000;stroke-width:0.5"
         id="path1" />
    </marker>
    <pattern
       id="Hatch"
       patternUnits="userSpaceOnUse"
       width="8"
       height="8"
       x="0"
       y="0">
      <path
         d="M8 4 l-4,4"
         stroke="#000000"
         stroke-width="0.25"
         linecap="square"
         id="path2" />
      <path
         d="M6 2 l-4,4"
         stroke="#000000"
         stroke-width="0.25"
         linecap="square"
         id="path3" />
      <path
         d="M4 0 l-4,4"
         stroke="#000000"
         stroke-width="0.25"
         linecap="square"
         id="path4" />
    </pattern>
    <symbol
       id="*Model_Space" />
    <symbol
       id="*Paper_Space" />
    <symbol
       id="*Paper_Space0" />
  </defs>
  <g
     inkscape:groupmode="layer"
     id="layer2"
     inkscape:label="pinmap"
     style="display:none">
    <path
       id="path1170"
       style="display:inline;fill:#000000;stroke:none;stroke-width:0.75;stroke-linecap:round;stroke-linejoin:round"
       d="m 43.8496,1097.69 h -2.0472 v -3.7 H 41.015 v 4.41 h 2.8346 z"
       sodipodi:nodetypes="ccccccc"
       transform="translate(82.704724,-1018.46)" />
    <path
       id="path1183"
       style="display:inline;fill:#000000;stroke:none;stroke-width:0.75;stroke-linecap:round;stroke-linejoin:round"
       d="m 53.8801,1098.4 h 0.7874 v -3.9 l 1.1024,3.9 h 0.8661 l 1.1024,-3.9 v 3.9 h 0.7874 v -4.41 h -1.2994 l -1.0628,3.35 -0.9919,-3.35 h -1.2916 z"
       sodipodi:nodetypes="cccccccccccccc"
       transform="translate(82.704724,-1018.46)" />
    <path
       id="path1210"
       style="display:inline;fill:#1a1a1a;stroke:none;stroke-width:0.75;stroke-linecap:round;stroke-linejoin:round"
       d="m 64.9449,1039.94 -0.315,0.17 v 0.8 l 0.315,-0.17 0.2362,-0.18 0.1575,-0.18 v 4.25 h 0.7086 v -5.22 h -0.7086 l -0.1575,0.26 z"
       sodipodi:nodetypes="cccccccccccc"
       transform="translate(82.704724,-1018.46)" />
    <path
       id="path1284"
       style="display:inline;fill:#000000;fill-opacity:1;stroke:none"
       d="m 66.4409,1073.65 0.0788,-0.17 0.2362,-0.45 0.0787,-0.35 v -0.53 l -0.0787,-0.45 -0.1575,-0.35 -0.1575,-0.18 -0.1574,-0.09 -0.315,-0.08 h -0.315 l -0.3149,0.08 -0.2362,0.18 -0.1575,0.18 -0.1575,0.26 -0.0787,0.18 -0.0788,0.53 v 0.27 h 0.5512 v -0.44 l 0.0787,-0.27 0.0788,-0.18 0.2362,-0.17 h 0.315 l 0.1574,0.08 0.1575,0.18 0.0788,0.18 v 0.62 l -0.0788,0.35 -0.1575,0.18 -0.1574,0.09 h -0.3937 v 0.71 h 0.3937 l 0.1574,0.09 0.1575,0.17 0.0788,0.36 v 0.62 l -0.0788,0.18 -0.1575,0.17 -0.1574,0.09 h -0.315 l -0.2362,-0.18 -0.0788,-0.17 -0.0787,-0.27 v -0.44 h -0.5512 v 0.26 l 0.0788,0.54 0.0787,0.17 0.1575,0.27 0.1575,0.18 0.2362,0.17 0.3149,0.09 h 0.315 l 0.315,-0.09 0.1574,-0.09 0.1575,-0.17 0.1575,-0.36 0.0787,-0.44 v -0.53 l -0.0787,-0.36 -0.2362,-0.44 z"
       sodipodi:nodetypes="cccccccccccccccccccccccccccccccccccccccccccccccccccccccccccccccc"
       transform="translate(82.704724,-1018.46)" />
    <path
       id="path1320"
       style="display:inline;fill:#000000;fill-opacity:1;stroke:none"
       d="m 66.9921,1059.87 h -1.496 l 0.3149,-0.71 0.9449,-1.59 0.1575,-0.36 0.0787,-0.44 v -0.44 l -0.0787,-0.36 -0.0788,-0.18 -0.2362,-0.26 -0.2362,-0.18 -0.315,-0.09 h -0.3149 l -0.315,0.09 -0.2362,0.18 -0.1575,0.18 -0.1575,0.26 -0.0787,0.18 -0.0787,0.26 -0.0788,0.45 h 0.5512 l 0.1575,-0.53 0.0787,-0.18 0.1575,-0.18 0.2362,-0.09 h 0.1575 l 0.2362,0.18 0.0788,0.18 0.0787,0.26 v 0.18 l -0.1575,0.44 -1.1023,1.86 -0.315,0.8 -0.0787,0.35 -0.0788,0.45 h 2.3622 z"
       sodipodi:nodetypes="ccccccccccccccccccccccccccccccccccccc"
       transform="translate(82.704724,-1018.46)" />
    <path
       id="path1399"
       style="display:inline;fill:#000000;stroke:none;stroke-width:0.75;stroke-linecap:round;stroke-linejoin:round"
       d="m -0.914472,1094.15 -0.157478,0.26 -0.15748,0.36 -0.15748,0.53 -0.07874,0.53 v 0.18 l 0.07874,0.62 0.07874,0.35 0.15748,0.44 0.157478,0.27 0.15748,0.18 0.314961,0.26 0.393701,0.18 0.23622,0.09 0.472441,0.09 h 0.15748 l 0.393699,-0.09 0.55118,-0.18 0.23622,-0.09 0.23622,-0.17 0.15748,-2.13 H 0.660331 v 0.8 H 1.44773 v 0.88 l -0.31496,0.09 -0.472439,0.09 h -0.15748 l -0.314961,-0.09 -0.31496,-0.18 -0.236221,-0.26 -0.15748,-0.36 -0.07874,-0.53 v -0.53 l 0.07874,-0.44 0.07874,-0.27 0.07874,-0.17 0.15748,-0.27 0.314961,-0.27 0.236221,-0.08 h 0.31496 l 0.314961,0.08 0.157478,0.09 0.23622,0.27 0.07874,0.18 0.07874,0.26 h 0.94488 v -0.09 l -0.07873,-0.35 -0.15749,-0.36 -0.15748,-0.26 -0.22993,-0.2 h -2.467889 l -0.215563,0.2 z"
       sodipodi:nodetypes="ccccccccccccccccccccccccccccccccccccccccccccccccccccccc"
       transform="translate(82.704724,-1018.46)" />
    <path
       id="path1409"
       style="display:inline;fill:#000000;stroke:none;stroke-width:0.75;stroke-linecap:round;stroke-linejoin:round"
       d="m -7.39818,1093.86 h -2.83462 v 4.54 h 0.78737 v -1.95 h 1.96851 v -0.8 h -1.96851 v -1.24 h 2.04725 z"
       sodipodi:nodetypes="ccccccccccc"
       transform="translate(82.704724,-1018.46)" />
    <path
       id="path1484"
       style="display:inline;fill:#000000;stroke:none;stroke-width:0.75;stroke-linecap:round;stroke-linejoin:round"
       d="m -38.4279,1094.06 -0.2363,0.35 -0.1574,0.45 -0.0788,0.35 -0.0787,0.53 v 0.36 l 0.0787,0.53 0.1575,0.62 0.1575,0.35 0.2362,0.36 0.2362,0.17 0.4725,0.27 0.5511,0.09 h 0.2363 l 0.3937,-0.09 0.3149,-0.18 0.2362,-0.18 0.2363,-0.26 0.1574,-0.36 0.0788,-0.26 0.0787,-0.36 v -0.26 h -0.7874 l -0.0787,0.35 -0.1575,0.36 -0.2362,0.26 -0.315,0.18 h -0.2362 l -0.2362,-0.09 -0.2362,-0.18 -0.1575,-0.17 -0.1575,-0.36 -0.0787,-0.26 -0.0788,-0.36 v -0.62 l 0.0788,-0.53 0.0787,-0.26 0.1575,-0.36 0.2362,-0.18 0.2362,-0.08 h 0.315 l 0.3149,0.08 0.2363,0.27 0.1574,0.35 v 0.09 h 0.7874 v -0.17 l -0.0787,-0.36 -0.1575,-0.35 -0.2512,-0.29 h -2.2223 l -0.1249,0.11 z"
       sodipodi:nodetypes="ccccccccccccccccccccccccccccccccccccccccccccccccccccc"
       transform="translate(82.704724,-1018.46)" />
    <path
       id="path1496"
       style="display:inline;fill:#000000;stroke:none;stroke-width:0.75;stroke-linecap:round;stroke-linejoin:round"
       d="M 11.0592,1095.48 H 9.09072 v -1.62 H 8.30331 v 4.54 h 0.78741 v -2.13 h 1.96848 v 2.13 h 0.7874 v -4.54 h -0.7874 z"
       sodipodi:nodetypes="ccccccccccccc"
       transform="translate(82.704724,-1018.46)" />
    <path
       id="path1508"
       style="display:inline;fill:#000000;stroke:none;stroke-width:0.75;stroke-linecap:round;stroke-linejoin:round"
       d="m -19.5428,1098.4 h 2.8347 v -0.71 h -2.0472 v -1.33 h 1.9685 v -0.71 h -1.9685 v -1.33 h 2.0472 v -0.46 h -2.8347 z"
       sodipodi:nodetypes="ccccccccccccc"
       transform="translate(82.704724,-1018.46)" />
    <path
       id="path1533"
       style="display:inline;fill:#000000;stroke:none;stroke-width:0.75;stroke-linecap:round;stroke-linejoin:round"
       d="m 19.3708,1097.69 h -0.1575 l -0.2362,-0.09 -0.2362,-0.26 -0.0788,-0.18 -0.0787,-0.27 h -0.8661 l 0.0787,0.36 0.0787,0.26 0.0788,0.18 0.1575,0.27 0.1574,0.17 0.2363,0.18 0.5511,0.09 h 0.4725 l 0.3937,-0.09 0.3149,-0.18 0.2363,-0.26 0.1574,-0.36 0.0788,-0.44 v -3.21 h -0.8662 v 3.21 l -0.0787,0.35 -0.1575,0.18 z"
       sodipodi:nodetypes="cccccccccccccccccccccccccc"
       transform="translate(82.704724,-1018.46)" />
    <path
       id="path1543"
       style="display:inline;fill:#000000;stroke:none;stroke-width:0.75;stroke-linecap:round;stroke-linejoin:round"
       d="m 27.4896,1093.86 v 4.54 h 0.7874 v -2.24 l 1.5798,2.24 h 1.0237 l -1.8114,-2.57 1.3975,-1.97 h -1.0237 l -1.1659,1.64 v -1.64 z"
       sodipodi:nodetypes="cccccccccccc"
       transform="translate(82.704724,-1018.46)" />
    <path
       id="path1682"
       style="display:inline;fill:#000000;stroke:none;stroke-width:0.75;stroke-linecap:round;stroke-linejoin:round"
       d="m -45.8725,1097.51 -0.3937,0.09 h -0.9449 v -1.33 h 0.8662 l 0.3149,0.09 0.1575,0.09 0.1575,0.18 0.0787,0.26 v 0.18 l -0.0787,0.27 z m 0,-2.92 0.0787,0.27 v 0.17 l -0.0787,0.18 -0.0787,0.09 -0.4725,0.26 -0.7874,-0.08 v -1.07 h 0.9449 l 0.2362,0.09 z m -2.126,-0.73 v 4.63 h 1.7323 l 0.3937,-0.09 0.2362,-0.09 0.1575,-0.09 0.2362,-0.18 0.2362,-0.26 0.0788,-0.18 0.0787,-0.26 v -0.45 l -0.0787,-0.35 -0.1575,-0.27 -0.1575,-0.17 -0.4724,-0.27 0.3149,-0.18 0.2363,-0.17 0.1574,-0.18 0.0788,-0.36 v -0.35 l -0.0788,-0.27 -0.1574,-0.26 -0.25125,-0.19 z"
       sodipodi:nodetypes="ccccccccccccccccccccccccccccccccccccccccccccccc"
       transform="translate(82.704724,-1018.46)" />
    <path
       id="path1685"
       style="display:inline;fill:#000000;stroke:none;stroke-width:0.75;stroke-linecap:round;stroke-linejoin:round"
       d="m -55.5039,1096.54 h -1.1023 l 0.5511,-1.95 z m -1.3386,0.8 h 1.5748 l 0.4725,1.06 h 0.7874 l -1.5675,-4.54 h -0.9595 l -1.5675,4.54 h 0.7874 z"
       sodipodi:nodetypes="ccccccccccccc"
       transform="translate(82.704724,-1018.46)" />
    <path
       id="path1688"
       style="display:inline;fill:#000000;fill-opacity:1;stroke:none;stroke-width:0.75;stroke-linecap:round;stroke-linejoin:round"
       d="m 66.0472,1088.62 v 2.03 h -0.8661 z m 0.5512,-1.51 h -0.5512 l -1.4173,3.54 v 0.62 h 1.4173 v 1.07 h 0.5512 v -1.07 h 0.3937 v -0.62 h -0.3937 z"
       sodipodi:nodetypes="cccccccccccccccc"
       transform="translate(82.704724,-1018.46)" />
    <path
       id="path1705"
       style="display:inline;fill:#000000;stroke:none;stroke-width:0.75;stroke-linecap:round;stroke-linejoin:round"
       d="m -26.7651,1095.21 0.0788,0.27 0.0787,0.44 v 0.35 l -0.0787,0.45 -0.0788,0.26 -0.1574,0.27 -0.1575,0.17 -0.2362,0.18 -0.315,0.09 h -0.9449 v -3.28 h 0.9449 l 0.315,0.09 0.23615,0.18 0.23625,0.35 z m -0.0787,3.01 0.315,-0.26 0.2362,-0.27 0.1575,-0.27 0.1574,-0.35 0.0788,-0.35 0.0787,-0.62 v -0.36 l -0.0787,-0.44 -0.1575,-0.53 -0.315,-0.53 -0.1574,-0.18 -0.25125,-0.19 -2.66215,-0.01 v 4.63 h 1.8897 l 0.315,-0.09 z"
       sodipodi:nodetypes="ccccccccccccccccccccccccccccccccccccc"
       transform="translate(82.704724,-1018.46)" />
  </g>
  <g
     inkscape:groupmode="layer"
     inkscape:label="shell"
     id="g1980"
     transform="translate(82.704724,-1018.46)"
     style="display:inline">
    <path
       style="fill:none;stroke:#000000;stroke-linecap:round;stroke-linejoin:round;stroke-width:0.75"
       d="m -82.2047,1075.46 h 1e-4"
       id="path1161" />
    <path
       style="fill:none;stroke:#000000;stroke-linecap:round;stroke-linejoin:round;stroke-width:0.75"
       d="m 17.0079,1100.98 v 4.72"
       id="path1162" />
    <path
       style="fill:none;stroke:#000000;stroke-linecap:round;stroke-linejoin:round;stroke-width:0.75"
       d="m 23.811,1105.7 v -4.72"
       id="path1163" />
    <path
       style="fill:none;stroke:#000000;stroke-linecap:round;stroke-linejoin:round;stroke-width:0.75"
       d="M 23.811,1100.98 H 17.0079"
       id="path1164" />
    <path
       id="path1187"
       style="fill:none;stroke:#000000;stroke-linecap:round;stroke-linejoin:round;stroke-width:0.75"
       d="M 3.02362,1047.87 H 31.3701 m -30.803171,2.4607 a 2.456693,2.456693 0 0 0 2.456694,2.4567 m 28.346477,0 H 3.02362 m 28.34646,-0 a 2.456693,2.456693 0 0 0 2.456692,-2.4567 M 3.023623,1047.874 a 2.456693,2.456693 0 0 0 -2.456694,2.4567 m 33.259843,0 a 2.456693,2.456693 0 0 0 -2.456692,-2.4567" />
    <path
       id="path1191"
       style="fill:none;stroke:#000000;stroke-linecap:round;stroke-linejoin:round;stroke-width:0.75"
       d="m -58.5827,1047.87 h 28.3465 m -30.80317,2.4607 a 2.456693,2.456693 0 0 0 2.456694,2.4567 m 28.346476,0 h -28.3465 m 28.34648,-0 a 2.456693,2.456693 0 0 0 2.456692,-2.4567 m -30.803148,-2.4567 a 2.456693,2.456693 0 0 0 -2.456694,2.4567 m 33.259842,0 a 2.456693,2.456693 0 0 0 -2.456692,-2.4567" />
    <path
       id="path1191-4"
       style="display:inline;fill:none;stroke:#000000;stroke-width:0.75;stroke-linecap:round;stroke-linejoin:round"
       d="m -58.5827,1079.24 h 28.3465 m -30.80317,2.4607 a 2.456693,2.456693 0 0 0 2.456694,2.4567 m 28.346476,0 h -28.3465 m 28.34648,-0 a 2.456693,2.456693 0 0 0 2.456692,-2.4567 m -30.803148,-2.4567 a 2.456693,2.456693 0 0 0 -2.456694,2.4567 m 33.259842,0 a 2.456693,2.456693 0 0 0 -2.456692,-2.4567" />
    <path
       style="fill:none;stroke:#000000;stroke-linecap:round;stroke-linejoin:round;stroke-width:0.75"
       d="m -25.3228,1105.7 v -4.72"
       id="path1544" />
    <path
       style="fill:none;stroke:#000000;stroke-linecap:round;stroke-linejoin:round;stroke-width:0.75"
       d="M -25.3228,1100.98 H -32.126"
       id="path1545" />
    <path
       style="fill:none;stroke:#000000;stroke-linecap:round;stroke-linejoin:round;stroke-width:0.75"
       d="m -32.126,1100.98 v 4.72"
       id="path1546" />
    <path
       style="fill:none;stroke:#000000;stroke-linecap:round;stroke-linejoin:round;stroke-width:0.75"
       d="M 64.252,1105.7 H -64.252"
       id="path1547" />
    <path
       style="fill:none;stroke:#000000;stroke-linecap:round;stroke-linejoin:round;stroke-width:0.75"
       d="m 17.0079,1026.33 v 4.73"
       id="path1548" />
    <path
       style="fill:none;stroke:#000000;stroke-linecap:round;stroke-linejoin:round;stroke-width:0.75"
       d="M 17.0079,1031.06 H 23.811"
       id="path1549" />
    <path
       style="fill:none;stroke:#000000;stroke-linecap:round;stroke-linejoin:round;stroke-width:0.75"
       d="m 23.811,1031.06 v -4.73"
       id="path1550" />
    <path
       style="fill:none;stroke:#000000;stroke-linecap:round;stroke-linejoin:round;stroke-width:0.75"
       d="M -64.252,1026.33 H 64.252"
       id="path1551" />
    <path
       style="fill:none;stroke:#000000;stroke-linecap:round;stroke-linejoin:round;stroke-width:0.75"
       d="m -48.7559,1026.33 v 4.73"
       id="path1552" />
    <path
       style="fill:none;stroke:#000000;stroke-linecap:round;stroke-linejoin:round;stroke-width:0.75"
       d="m -48.7559,1031.06 h 6.8031"
       id="path1553" />
    <path
       style="fill:none;stroke:#000000;stroke-linecap:round;stroke-linejoin:round;stroke-width:0.75"
       d="m -41.9528,1031.06 v -4.73"
       id="path1554" />
    <path
       d="m 65.574809,1113.0709 a 16.629921,16.629921 0 0 0 16.629915,-16.63"
       style="fill:none;stroke:#000000;stroke-linecap:round;stroke-linejoin:round;stroke-width:0.75"
       id="path1650" />
    <path
       d="m -82.204724,1096.4409 a 16.629921,16.629921 0 0 0 16.629926,16.63"
       style="fill:none;stroke:#000000;stroke-linecap:round;stroke-linejoin:round;stroke-width:0.75"
       id="path1730" />
    <path
       d="m 65.574808,1110.4252 a 13.984252,13.984252 0 0 0 13.984247,-13.9843"
       style="fill:none;stroke:#000000;stroke-linecap:round;stroke-linejoin:round;stroke-width:0.75"
       id="path1740" />
    <path
       d="m -75.590551,1094.3622 a 11.338583,11.338583 0 0 0 11.338586,11.3386"
       style="fill:none;stroke:#000000;stroke-linecap:round;stroke-linejoin:round;stroke-width:0.75"
       id="path1743" />
    <path
       d="m -78.23622,1094.3622 a 13.984252,13.984252 0 0 0 13.984256,13.9843"
       style="fill:none;stroke:#000000;stroke-linecap:round;stroke-linejoin:round;stroke-width:0.75"
       id="path1745" />
    <path
       d="m -79.559055,1096.4409 a 13.984252,13.984252 0 0 0 13.984256,13.9843"
       style="fill:none;stroke:#000000;stroke-linecap:round;stroke-linejoin:round;stroke-width:0.75"
       id="path1750" />
    <path
       style="fill:none;stroke:#000000;stroke-linecap:round;stroke-linejoin:round;stroke-width:0.75"
       d="m 82.2047,1096.44 v -60.85"
       id="path1751" />
    <path
       style="fill:none;stroke:#000000;stroke-linecap:round;stroke-linejoin:round;stroke-width:0.75"
       d="m 79.5591,1035.59 v 60.85"
       id="path1753" />
    <path
       style="fill:none;stroke:#000000;stroke-linecap:round;stroke-linejoin:round;stroke-width:0.75"
       d="m -4.91339,1105.7 v -4.72"
       id="path1756" />
    <path
       style="fill:none;stroke:#000000;stroke-linecap:round;stroke-linejoin:round;stroke-width:0.75"
       d="M -65.5748,1018.96 H 65.5748"
       id="path1759" />
    <path
       style="fill:none;stroke:#000000;stroke-linecap:round;stroke-linejoin:round;stroke-width:0.75"
       d="M 65.5748,1021.61 H -65.5748"
       id="path1761" />
    <path
       d="M 75.590551,1037.6693 A 11.338583,11.338583 0 0 0 64.251972,1026.3307"
       style="fill:none;stroke:#000000;stroke-linecap:round;stroke-linejoin:round;stroke-width:0.75"
       id="path1766" />
    <path
       d="M 78.23622,1037.6693 A 13.984252,13.984252 0 0 0 64.251973,1023.685"
       style="fill:none;stroke:#000000;stroke-linecap:round;stroke-linejoin:round;stroke-width:0.75"
       id="path1768" />
    <path
       d="m -64.251965,1026.3307 a 11.338583,11.338583 0 0 0 -11.338586,11.3386"
       style="fill:none;stroke:#000000;stroke-linecap:round;stroke-linejoin:round;stroke-width:0.75"
       id="path1770" />
    <path
       d="m -64.251964,1023.685 a 13.984252,13.984252 0 0 0 -13.984256,13.9843"
       style="fill:none;stroke:#000000;stroke-linecap:round;stroke-linejoin:round;stroke-width:0.75"
       id="path1772" />
    <path
       style="fill:none;stroke:#000000;stroke-linecap:round;stroke-linejoin:round;stroke-width:0.75"
       d="M 64.252,1108.35 H -64.252"
       id="path1775" />
    <path
       d="m 64.251972,1105.7008 a 11.338583,11.338583 0 0 0 11.338579,-11.3386"
       style="fill:none;stroke:#000000;stroke-linecap:round;stroke-linejoin:round;stroke-width:0.75"
       id="path1777" />
    <path
       style="fill:none;stroke:#000000;stroke-linecap:round;stroke-linejoin:round;stroke-width:0.75"
       d="M -4.91339,1100.98 H 4.91339"
       id="path1781" />
    <path
       d="M 64.251973,1108.3465 A 13.984252,13.984252 0 0 0 78.23622,1094.3622"
       style="fill:none;stroke:#000000;stroke-linecap:round;stroke-linejoin:round;stroke-width:0.75"
       id="path1784" />
    <path
       style="fill:none;stroke:#000000;stroke-linecap:round;stroke-linejoin:round;stroke-width:0.75"
       d="m 4.91339,1100.98 v 4.72"
       id="path1788" />
    <path
       style="fill:none;stroke:#000000;stroke-linecap:round;stroke-linejoin:round;stroke-width:0.75"
       d="m -78.2362,1094.36 v -56.69"
       id="path1789" />
    <path
       style="fill:none;stroke:#000000;stroke-linecap:round;stroke-linejoin:round;stroke-width:0.75"
       d="m -75.5906,1094.36 v -56.69"
       id="path1790" />
    <path
       d="m 82.204724,1035.5906 a 16.629921,16.629921 0 0 0 -16.629915,-16.63"
       style="fill:none;stroke:#000000;stroke-linecap:round;stroke-linejoin:round;stroke-width:0.75"
       id="path1791" />
    <path
       d="M 79.559055,1035.5906 A 13.984252,13.984252 0 0 0 65.574808,1021.6063"
       style="fill:none;stroke:#000000;stroke-linecap:round;stroke-linejoin:round;stroke-width:0.75"
       id="path1792" />
    <path
       style="fill:none;stroke:#000000;stroke-linecap:round;stroke-linejoin:round;stroke-width:0.75"
       d="m 78.2362,1037.67 v 56.69"
       id="path1793" />
    <path
       style="fill:none;stroke:#000000;stroke-linecap:round;stroke-linejoin:round;stroke-width:0.75"
       d="m 75.5906,1037.67 v 56.69"
       id="path1794" />
    <path
       d="m -65.574798,1018.9606 a 16.629921,16.629921 0 0 0 -16.629926,16.63"
       style="fill:none;stroke:#000000;stroke-linecap:round;stroke-linejoin:round;stroke-width:0.75"
       id="path1873" />
    <path
       d="m -65.574799,1021.6063 a 13.984252,13.984252 0 0 0 -13.984256,13.9843"
       style="fill:none;stroke:#000000;stroke-linecap:round;stroke-linejoin:round;stroke-width:0.75"
       id="path1875" />
    <path
       style="fill:none;stroke:#000000;stroke-linecap:round;stroke-linejoin:round;stroke-width:0.75"
       d="m -79.5591,1096.44 v -60.85"
       id="path1876" />
    <path
       style="fill:none;stroke:#000000;stroke-linecap:round;stroke-linejoin:round;stroke-width:0.75"
       d="M -65.5748,1110.43 H 65.5748"
       id="path1877" />
    <path
       style="fill:none;stroke:#000000;stroke-linecap:round;stroke-linejoin:round;stroke-width:0.75"
       d="M -64.252,1023.69 H 64.252"
       id="path1878" />
    <path
       style="fill:none;stroke:#000000;stroke-linecap:round;stroke-linejoin:round;stroke-width:0.75"
       d="m -82.2047,1035.59 v 60.85"
       id="path1879" />
    <path
       style="fill:none;stroke:#000000;stroke-linecap:round;stroke-linejoin:round;stroke-width:0.75"
       d="m 4.91339,1026.33 v 4.73"
       id="path1886" />
    <path
       style="fill:none;stroke:#000000;stroke-linecap:round;stroke-linejoin:round;stroke-width:0.75"
       d="M 4.91339,1031.06 H -4.91339"
       id="path1889" />
    <path
       style="fill:none;stroke:#000000;stroke-linecap:round;stroke-linejoin:round;stroke-width:0.75"
       d="m -4.91339,1031.06 v -4.73"
       id="path1891" />
    <path
       style="fill:none;stroke:#000000;stroke-linecap:round;stroke-linejoin:round;stroke-width:0.75"
       d="M 65.5748,1113.07 H -65.5748"
       id="path1917" />
    <path
       id="path1191-5"
       style="display:inline;fill:none;stroke:#000000;stroke-width:0.75;stroke-linecap:round;stroke-linejoin:round"
       d="m 3.023609,1079.24 h 28.3465 m -30.80317,2.4607 a 2.456693,2.456693 0 0 0 2.456694,2.4567 m 28.346476,0 h -28.3465 m 28.34648,-0 a 2.456693,2.456693 0 0 0 2.456692,-2.4567 M 3.023633,1079.244 a 2.456693,2.456693 0 0 0 -2.456694,2.4567 m 33.259842,0 a 2.456693,2.456693 0 0 0 -2.456692,-2.4567" />
  </g>
  <g
     inkscape:groupmode="layer"
     id="layer1"
     inkscape:label="pins"
     style="display:inline">
    <path
       id="path1050"
       style="display:inline;fill:none;stroke:#000000;stroke-width:0.75;stroke-linecap:round;stroke-linejoin:round"
       d="m -58.514,1039.8 v 4.8 l 4.788,-0.02 v -4.77 z"
       sodipodi:nodetypes="ccccc"
       transform="translate(82.704724,-1018.46)"
       inkscape:label="A1" />
    <path
       id="path1050-1"
       style="display:inline;fill:none;stroke:#000000;stroke-width:0.75;stroke-linecap:round;stroke-linejoin:round"
       d="m -49.065844,1039.8 v 4.8 l 4.788,-0.02 v -4.77 z"
       sodipodi:nodetypes="ccccc"
       transform="translate(82.704724,-1018.46)"
       inkscape:label="B1" />
    <path
       id="path1050-2"
       style="display:inline;fill:none;stroke:#000000;stroke-width:0.75;stroke-linecap:round;stroke-linejoin:round"
       d="m -39.617689,1039.8 v 4.8 l 4.788,-0.02 v -4.77 z"
       sodipodi:nodetypes="ccccc"
       transform="translate(82.704724,-1018.46)"
       inkscape:label="C1" />
    <path
       id="path1050-22"
       style="display:inline;fill:none;stroke:#000000;stroke-width:0.75;stroke-linecap:round;stroke-linejoin:round"
       d="m -30.169533,1039.8 v 4.8 l 4.788,-0.02 v -4.77 z"
       sodipodi:nodetypes="ccccc"
       transform="translate(82.704724,-1018.46)"
       inkscape:label="D1" />
    <path
       id="path1050-6"
       style="display:inline;fill:none;stroke:#000000;stroke-width:0.75;stroke-linecap:round;stroke-linejoin:round"
       d="m -20.721378,1039.8 v 4.8 l 4.788,-0.02 v -4.77 z"
       sodipodi:nodetypes="ccccc"
       transform="translate(82.704724,-1018.46)"
       inkscape:label="E1" />
    <path
       id="path1050-5"
       style="display:inline;fill:none;stroke:#000000;stroke-width:0.75;stroke-linecap:round;stroke-linejoin:round"
       d="m -11.273223,1039.8 v 4.8 l 4.7880008,-0.02 v -4.77 z"
       sodipodi:nodetypes="ccccc"
       transform="translate(82.704724,-1018.46)"
       inkscape:label="F1" />
    <path
       id="path1050-61"
       style="display:inline;fill:none;stroke:#000000;stroke-width:0.75;stroke-linecap:round;stroke-linejoin:round"
       d="m -1.8250667,1039.8 v 4.8 l 4.788,-0.02 v -4.77 z"
       sodipodi:nodetypes="ccccc"
       transform="translate(82.704724,-1018.46)"
       inkscape:label="G1" />
    <path
       id="path1050-9"
       style="display:inline;fill:none;stroke:#000000;stroke-width:0.75;stroke-linecap:round;stroke-linejoin:round"
       d="m 7.6230885,1039.8 v 4.8 l 4.7880005,-0.02 v -4.77 z"
       sodipodi:nodetypes="ccccc"
       transform="translate(82.704724,-1018.46)"
       inkscape:label="H1" />
    <path
       id="path1050-79"
       style="display:inline;fill:none;stroke:#000000;stroke-width:0.75;stroke-linecap:round;stroke-linejoin:round"
       d="m 17.071244,1039.8 v 4.8 l 4.788,-0.02 v -4.77 z"
       sodipodi:nodetypes="ccccc"
       transform="translate(82.704724,-1018.46)"
       inkscape:label="J1" />
    <path
       id="path1050-7"
       style="display:inline;fill:none;stroke:#000000;stroke-width:0.75;stroke-linecap:round;stroke-linejoin:round"
       d="m 26.5194,1039.8 v 4.8 l 4.788,-0.02 v -4.77 z"
       sodipodi:nodetypes="ccccc"
       transform="translate(82.704724,-1018.46)"
       inkscape:label="K1" />
    <path
       id="path1142"
       style="display:inline;fill:none;stroke:#000000;stroke-width:0.75;stroke-linecap:round;stroke-linejoin:round"
       d="m 37.889775,1044.4775 h 8.50395 v -4.545 h -8.50395 z"
       sodipodi:nodetypes="ccccc"
       transform="translate(82.704724,-1018.46)"
       inkscape:label="L1" />
    <path
       id="path1142-4-4"
       style="display:inline;fill:none;stroke:#000000;stroke-width:0.75;stroke-linecap:round;stroke-linejoin:round"
       d="m 51.873975,1044.4775 h 8.50395 v -4.545 h -8.50395 z"
       sodipodi:nodetypes="ccccc"
       transform="translate(82.704724,-1018.46)"
       inkscape:label="M1" />
    <path
       id="path1050-3"
       style="display:inline;fill:none;stroke:#000000;stroke-width:0.75;stroke-linecap:round;stroke-linejoin:round"
       d="m -58.517,1055.68 v 4.8 l 4.788,-0.02 v -4.77 z"
       sodipodi:nodetypes="ccccc"
       transform="translate(82.704724,-1018.46)"
       inkscape:label="A2" />
    <path
       id="path1050-1-1"
       style="display:inline;fill:none;stroke:#000000;stroke-width:0.75;stroke-linecap:round;stroke-linejoin:round"
       d="m -49.068844,1055.68 v 4.8 l 4.788,-0.02 v -4.77 z"
       sodipodi:nodetypes="ccccc"
       transform="translate(82.704724,-1018.46)"
       inkscape:label="B2" />
    <path
       id="path1050-2-8"
       style="display:inline;fill:none;stroke:#000000;stroke-width:0.75;stroke-linecap:round;stroke-linejoin:round"
       d="m -39.620689,1055.68 v 4.8 l 4.788,-0.02 v -4.77 z"
       sodipodi:nodetypes="ccccc"
       transform="translate(82.704724,-1018.46)"
       inkscape:label="C2" />
    <path
       id="path1050-22-9"
       style="display:inline;fill:none;stroke:#000000;stroke-width:0.75;stroke-linecap:round;stroke-linejoin:round"
       d="m -30.172533,1055.68 v 4.8 l 4.788,-0.02 v -4.77 z"
       sodipodi:nodetypes="ccccc"
       transform="translate(82.704724,-1018.46)"
       inkscape:label="D2" />
    <path
       id="path1050-6-8"
       style="display:inline;fill:none;stroke:#000000;stroke-width:0.75;stroke-linecap:round;stroke-linejoin:round"
       d="m -20.724378,1055.68 v 4.8 l 4.788,-0.02 v -4.77 z"
       sodipodi:nodetypes="ccccc"
       transform="translate(82.704724,-1018.46)"
       inkscape:label="E2" />
    <path
       id="path1050-5-6"
       style="display:inline;fill:none;stroke:#000000;stroke-width:0.75;stroke-linecap:round;stroke-linejoin:round"
       d="m -11.276223,1055.68 v 4.8 l 4.7880008,-0.02 v -4.77 z"
       sodipodi:nodetypes="ccccc"
       transform="translate(82.704724,-1018.46)"
       inkscape:label="F2" />
    <path
       id="path1050-61-5"
       style="display:inline;fill:none;stroke:#000000;stroke-width:0.75;stroke-linecap:round;stroke-linejoin:round"
       d="m -1.8280667,1055.68 v 4.8 l 4.788,-0.02 v -4.77 z"
       sodipodi:nodetypes="ccccc"
       transform="translate(82.704724,-1018.46)"
       inkscape:label="G2" />
    <path
       id="path1050-9-0"
       style="display:inline;fill:none;stroke:#000000;stroke-width:0.75;stroke-linecap:round;stroke-linejoin:round"
       d="m 7.6200885,1055.68 v 4.8 l 4.7880005,-0.02 v -4.77 z"
       sodipodi:nodetypes="ccccc"
       transform="translate(82.704724,-1018.46)"
       inkscape:label="H2" />
    <path
       id="path1050-79-2"
       style="display:inline;fill:none;stroke:#000000;stroke-width:0.75;stroke-linecap:round;stroke-linejoin:round"
       d="m 17.068244,1055.68 v 4.8 l 4.788,-0.02 v -4.77 z"
       sodipodi:nodetypes="ccccc"
       transform="translate(82.704724,-1018.46)"
       inkscape:label="J2" />
    <path
       id="path1050-7-6"
       style="display:inline;fill:none;stroke:#000000;stroke-width:0.75;stroke-linecap:round;stroke-linejoin:round"
       d="m 26.5164,1055.68 v 4.8 l 4.788,-0.02 v -4.77 z"
       sodipodi:nodetypes="ccccc"
       transform="translate(82.704724,-1018.46)"
       inkscape:label="K2" />
    <path
       id="path1142-4"
       style="display:inline;fill:none;stroke:#000000;stroke-width:0.75;stroke-linecap:round;stroke-linejoin:round"
       d="m 37.889775,1060.3525 h 8.50395 v -4.545 h -8.50395 z"
       sodipodi:nodetypes="ccccc"
       transform="translate(82.704724,-1018.46)"
       inkscape:label="L2" />
    <path
       id="path1142-4-13"
       style="display:inline;fill:none;stroke:#000000;stroke-width:0.75;stroke-linecap:round;stroke-linejoin:round"
       d="m 51.873975,1060.3525 h 8.50395 v -4.545 h -8.50395 z"
       sodipodi:nodetypes="ccccc"
       transform="translate(82.704724,-1018.46)"
       inkscape:label="M2" />
    <path
       id="path1050-8"
       style="display:inline;fill:none;stroke:#000000;stroke-width:0.75;stroke-linecap:round;stroke-linejoin:round"
       d="m -58.517,1071.55 v 4.8 l 4.788,-0.02 v -4.77 z"
       sodipodi:nodetypes="ccccc"
       transform="translate(82.704724,-1018.46)"
       inkscape:label="A3" />
    <path
       id="path1050-1-6"
       style="display:inline;fill:none;stroke:#000000;stroke-width:0.75;stroke-linecap:round;stroke-linejoin:round"
       d="m -49.068844,1071.55 v 4.8 l 4.788,-0.02 v -4.77 z"
       sodipodi:nodetypes="ccccc"
       transform="translate(82.704724,-1018.46)"
       inkscape:label="B3" />
    <path
       id="path1050-2-3"
       style="display:inline;fill:none;stroke:#000000;stroke-width:0.75;stroke-linecap:round;stroke-linejoin:round"
       d="m -39.620689,1071.55 v 4.8 l 4.788,-0.02 v -4.77 z"
       sodipodi:nodetypes="ccccc"
       transform="translate(82.704724,-1018.46)"
       inkscape:label="C3" />
    <path
       id="path1050-22-5"
       style="display:inline;fill:none;stroke:#000000;stroke-width:0.75;stroke-linecap:round;stroke-linejoin:round"
       d="m -30.172533,1071.55 v 4.8 l 4.788,-0.02 v -4.77 z"
       sodipodi:nodetypes="ccccc"
       transform="translate(82.704724,-1018.46)"
       inkscape:label="D3" />
    <path
       id="path1050-6-0"
       style="display:inline;fill:none;stroke:#000000;stroke-width:0.75;stroke-linecap:round;stroke-linejoin:round"
       d="m -20.724378,1071.55 v 4.8 l 4.788,-0.02 v -4.77 z"
       sodipodi:nodetypes="ccccc"
       transform="translate(82.704724,-1018.46)"
       inkscape:label="E3" />
    <path
       id="path1050-5-9"
       style="display:inline;fill:none;stroke:#000000;stroke-width:0.75;stroke-linecap:round;stroke-linejoin:round"
       d="m -11.276223,1071.55 v 4.8 l 4.7880008,-0.02 v -4.77 z"
       sodipodi:nodetypes="ccccc"
       transform="translate(82.704724,-1018.46)"
       inkscape:label="F3" />
    <path
       id="path1050-61-0"
       style="display:inline;fill:none;stroke:#000000;stroke-width:0.75;stroke-linecap:round;stroke-linejoin:round"
       d="m -1.8280667,1071.55 v 4.8 l 4.788,-0.02 v -4.77 z"
       sodipodi:nodetypes="ccccc"
       transform="translate(82.704724,-1018.46)"
       inkscape:label="G3" />
    <path
       id="path1050-9-06"
       style="display:inline;fill:none;stroke:#000000;stroke-width:0.75;stroke-linecap:round;stroke-linejoin:round"
       d="m 7.6200885,1071.55 v 4.8 l 4.7880005,-0.02 v -4.77 z"
       sodipodi:nodetypes="ccccc"
       transform="translate(82.704724,-1018.46)"
       inkscape:label="H3" />
    <path
       id="path1050-79-1"
       style="display:inline;fill:none;stroke:#000000;stroke-width:0.75;stroke-linecap:round;stroke-linejoin:round"
       d="m 17.068244,1071.55 v 4.8 l 4.788,-0.02 v -4.77 z"
       sodipodi:nodetypes="ccccc"
       transform="translate(82.704724,-1018.46)"
       inkscape:label="J3" />
    <path
       id="path1050-7-8"
       style="display:inline;fill:none;stroke:#000000;stroke-width:0.75;stroke-linecap:round;stroke-linejoin:round"
       d="m 26.5164,1071.55 v 4.8 l 4.788,-0.02 v -4.77 z"
       sodipodi:nodetypes="ccccc"
       transform="translate(82.704724,-1018.46)"
       inkscape:label="K3" />
    <path
       id="path1142-4-1"
       style="display:inline;fill:none;stroke:#000000;stroke-width:0.75;stroke-linecap:round;stroke-linejoin:round"
       d="m 37.889775,1076.2225 h 8.50395 v -4.545 h -8.50395 z"
       sodipodi:nodetypes="ccccc"
       transform="translate(82.704724,-1018.46)"
       inkscape:label="L3" />
    <path
       id="path1142-4-7"
       style="display:inline;fill:none;stroke:#000000;stroke-width:0.75;stroke-linecap:round;stroke-linejoin:round"
       d="m 51.873975,1076.2225 h 8.50395 v -4.545 h -8.50395 z"
       sodipodi:nodetypes="ccccc"
       transform="translate(82.704724,-1018.46)"
       inkscape:label="M3" />
    <path
       id="path1050-60"
       style="display:inline;fill:none;stroke:#000000;stroke-width:0.75;stroke-linecap:round;stroke-linejoin:round"
       d="m -58.517,1087.43 v 4.8 l 4.788,-0.02 v -4.77 z"
       sodipodi:nodetypes="ccccc"
       transform="translate(82.704724,-1018.46)"
       inkscape:label="A4" />
    <path
       id="path1050-1-66"
       style="display:inline;fill:none;stroke:#000000;stroke-width:0.75;stroke-linecap:round;stroke-linejoin:round"
       d="m -49.068844,1087.43 v 4.8 l 4.788,-0.02 v -4.77 z"
       sodipodi:nodetypes="ccccc"
       transform="translate(82.704724,-1018.46)"
       inkscape:label="B4" />
    <path
       id="path1050-2-82"
       style="display:inline;fill:none;stroke:#000000;stroke-width:0.75;stroke-linecap:round;stroke-linejoin:round"
       d="m -39.620689,1087.43 v 4.8 l 4.788,-0.02 v -4.77 z"
       sodipodi:nodetypes="ccccc"
       transform="translate(82.704724,-1018.46)"
       inkscape:label="C4" />
    <path
       id="path1050-22-1"
       style="display:inline;fill:none;stroke:#000000;stroke-width:0.75;stroke-linecap:round;stroke-linejoin:round"
       d="m -30.172533,1087.43 v 4.8 l 4.788,-0.02 v -4.77 z"
       sodipodi:nodetypes="ccccc"
       transform="translate(82.704724,-1018.46)"
       inkscape:label="D4" />
    <path
       id="path1050-6-84"
       style="display:inline;fill:none;stroke:#000000;stroke-width:0.75;stroke-linecap:round;stroke-linejoin:round"
       d="m -20.724378,1087.43 v 4.8 l 4.788,-0.02 v -4.77 z"
       sodipodi:nodetypes="ccccc"
       transform="translate(82.704724,-1018.46)"
       inkscape:label="E4" />
    <path
       id="path1050-5-96"
       style="display:inline;fill:none;stroke:#000000;stroke-width:0.75;stroke-linecap:round;stroke-linejoin:round"
       d="m -11.276223,1087.43 v 4.8 l 4.7880008,-0.02 v -4.77 z"
       sodipodi:nodetypes="ccccc"
       transform="translate(82.704724,-1018.46)"
       inkscape:label="F4" />
    <path
       id="path1050-61-3"
       style="display:inline;fill:none;stroke:#000000;stroke-width:0.75;stroke-linecap:round;stroke-linejoin:round"
       d="m -1.8280667,1087.43 v 4.8 l 4.788,-0.02 v -4.77 z"
       sodipodi:nodetypes="ccccc"
       transform="translate(82.704724,-1018.46)"
       inkscape:label="G4" />
    <path
       id="path1050-9-7"
       style="display:inline;fill:none;stroke:#000000;stroke-width:0.75;stroke-linecap:round;stroke-linejoin:round"
       d="m 7.6200885,1087.43 v 4.8 l 4.7880005,-0.02 v -4.77 z"
       sodipodi:nodetypes="ccccc"
       transform="translate(82.704724,-1018.46)"
       inkscape:label="H4" />
    <path
       id="path1050-79-8"
       style="display:inline;fill:none;stroke:#000000;stroke-width:0.75;stroke-linecap:round;stroke-linejoin:round"
       d="m 17.068244,1087.43 v 4.8 l 4.788,-0.02 v -4.77 z"
       sodipodi:nodetypes="ccccc"
       transform="translate(82.704724,-1018.46)"
       inkscape:label="J4" />
    <path
       id="path1050-7-9"
       style="display:inline;fill:none;stroke:#000000;stroke-width:0.75;stroke-linecap:round;stroke-linejoin:round"
       d="m 26.5164,1087.43 v 4.8 l 4.788,-0.02 v -4.77 z"
       sodipodi:nodetypes="ccccc"
       transform="translate(82.704724,-1018.46)"
       inkscape:label="K4" />
    <path
       id="path1142-4-3"
       style="display:inline;fill:none;stroke:#000000;stroke-width:0.75;stroke-linecap:round;stroke-linejoin:round"
       d="m 37.889775,1092.0975 h 8.50395 v -4.545 h -8.50395 z"
       sodipodi:nodetypes="ccccc"
       transform="translate(82.704724,-1018.46)"
       inkscape:label="L4" />
    <path
       id="path1142-4-2"
       style="display:inline;fill:none;stroke:#000000;stroke-width:0.75;stroke-linecap:round;stroke-linejoin:round"
       d="m 51.873975,1092.0975 h 8.50395 v -4.545 h -8.50395 z"
       sodipodi:nodetypes="ccccc"
       transform="translate(82.704724,-1018.46)"
       inkscape:label="M4" />
  </g>
</svg>
