<?xml version="1.0" encoding="UTF-8" standalone="no"?>
<svg
   viewBox="0 0 146.51181 105.50344"
   width="146.51181"
   height="105.50344"
   version="1.1"
   id="svg1100"
   sodipodi:docname="6437288-2.svg"
   inkscape:version="1.4 (86a8ad7, 2024-10-11)"
   xmlns:inkscape="http://www.inkscape.org/namespaces/inkscape"
   xmlns:sodipodi="http://sodipodi.sourceforge.net/DTD/sodipodi-0.dtd"
   xmlns="http://www.w3.org/2000/svg"
   xmlns:svg="http://www.w3.org/2000/svg">
  <sodipodi:namedview
     id="namedview1100"
     pagecolor="#ffffff"
     bordercolor="#666666"
     borderopacity="1.0"
     inkscape:showpageshadow="2"
     inkscape:pageopacity="0.0"
     inkscape:pagecheckerboard="0"
     inkscape:deskcolor="#d1d1d1"
     inkscape:zoom="7.6672078"
     inkscape:cx="73.233961"
     inkscape:cy="52.757146"
     inkscape:window-width="1920"
     inkscape:window-height="1009"
     inkscape:window-x="1912"
     inkscape:window-y="-8"
     inkscape:window-maximized="1"
     inkscape:current-layer="layer2"
     showguides="true" />
  <desc
     id="desc1">c-6437288-1-c-2d.dxf - scale = 1.000000, origin = (0.000000, 0.000000), method = file</desc>
  <defs
     id="defs303">
    <marker
       id="DistanceX"
       orient="auto"
       refX="0"
       refY="0"
       style="overflow:visible">
      <path
         d="M 3,-3 -3,3 M 0,-5 V 5"
         style="stroke:#000000;stroke-width:0.5"
         id="path1" />
    </marker>
    <pattern
       id="Hatch"
       patternUnits="userSpaceOnUse"
       width="8"
       height="8"
       x="0"
       y="0">
      <path
         d="M8 4 l-4,4"
         stroke="#000000"
         stroke-width="0.25"
         linecap="square"
         id="path2" />
      <path
         d="M6 2 l-4,4"
         stroke="#000000"
         stroke-width="0.25"
         linecap="square"
         id="path3" />
      <path
         d="M4 0 l-4,4"
         stroke="#000000"
         stroke-width="0.25"
         linecap="square"
         id="path4" />
    </pattern>
    <symbol
       id="*MODEL_SPACE" />
    <symbol
       id="*PAPER_SPACE" />
    <symbol
       id="TE_H_SMALL_1CPOS_BL0">
      <path
         d="m 1091.3836,994.72618 c 0,0 -2.0373,-6.07832 -2.0373,-6.07832 0,0 -2.7763,0 -2.7763,0 0,0 3.5715,9.14065 3.5715,9.14065 -0.3326,0.89919 -0.9595,1.17289 -1.4024,1.17289 -0.3404,0 -0.7647,-0.15273 -1.1052,-0.35713 0,0 -1.0218,1.87073 -1.0218,1.87073 0.6635,0.3921 1.3609,0.6294 2.2964,0.6294 1.5479,0 2.9511,-1.27417 3.6489,-3.12909 0,0 3.5032,-9.32745 3.5032,-9.32745 0,0 -2.7259,0 -2.7259,0 0,0 -1.9481,6.07554 -1.9481,6.07554 0,0 0,0.003 0,0.003"
         style="fill:none;stroke:#ffff00;stroke-linecap:round"
         id="path5" />
      <path
         style="fill:none;stroke:#ffff00;stroke-linecap:round"
         d="m 1077.73,985.077 h 11.06"
         id="path6" />
      <path
         style="fill:none;stroke:#ffff00;stroke-linecap:round"
         d="m 1088.79,985.077 -0.9,2.426"
         id="path7" />
      <path
         style="fill:none;stroke:#ffff00;stroke-linecap:round"
         d="m 1087.89,987.503 h -3.32"
         id="path8" />
      <path
         style="fill:none;stroke:#ffff00;stroke-linecap:round"
         d="m 1084.57,987.503 v 10.255"
         id="path9" />
      <path
         style="fill:none;stroke:#ffff00;stroke-linecap:round"
         d="m 1084.57,997.758 h -2.69"
         id="path10" />
      <path
         style="fill:none;stroke:#ffff00;stroke-linecap:round"
         d="M 1081.88,997.758 V 987.503"
         id="path11" />
      <path
         style="fill:none;stroke:#ffff00;stroke-linecap:round"
         d="m 1081.88,987.503 h -4.15"
         id="path12" />
      <path
         style="fill:none;stroke:#ffff00;stroke-linecap:round"
         d="m 1077.73,987.503 v -2.426"
         id="path13" />
      <path
         style="fill:none;stroke:#ffff00;stroke-linecap:round"
         d="m 1119.91,985.075 v 12.672"
         id="path14" />
      <path
         style="fill:none;stroke:#ffff00;stroke-linecap:round"
         d="m 1119.91,997.747 h 8.85"
         id="path15" />
      <path
         style="fill:none;stroke:#ffff00;stroke-linecap:round"
         d="m 1128.76,997.747 v -2.33"
         id="path16" />
      <path
         style="fill:none;stroke:#ffff00;stroke-linecap:round"
         d="m 1128.76,995.417 h -6.25"
         id="path17" />
      <path
         style="fill:none;stroke:#ffff00;stroke-linecap:round"
         d="m 1122.51,995.417 v -3.075"
         id="path18" />
      <path
         style="fill:none;stroke:#ffff00;stroke-linecap:round"
         d="m 1122.51,992.342 h 5.42"
         id="path19" />
      <path
         style="fill:none;stroke:#ffff00;stroke-linecap:round"
         d="m 1127.93,992.342 v -2.331"
         id="path20" />
      <path
         style="fill:none;stroke:#ffff00;stroke-linecap:round"
         d="m 1127.93,990.011 h -5.42"
         id="path21" />
      <path
         style="fill:none;stroke:#ffff00;stroke-linecap:round"
         d="m 1122.51,990.011 v -2.606"
         id="path22" />
      <path
         style="fill:none;stroke:#ffff00;stroke-linecap:round"
         d="m 1122.51,987.405 h 5.6"
         id="path23" />
      <path
         style="fill:none;stroke:#ffff00;stroke-linecap:round"
         d="m 1128.11,987.405 0.87,-2.33"
         id="path24" />
      <path
         style="fill:none;stroke:#ffff00;stroke-linecap:round"
         d="m 1128.98,985.075 h -9.07"
         id="path25" />
      <path
         d="m 1104.2385,996.56001 c -0.016,0.0164 -0.032,0.0327 -0.049,0.0489 -0.052,0.0503 -0.1041,0.10012 -0.1574,0.14878 -0.7891,0.71982 -1.7501,1.20139 -3.2632,1.20139 -2.7386,0 -4.7458,-2.10892 -4.7458,-4.72884 0,-2.61947 1.9901,-4.76245 4.7796,-4.76245 1.5272,0 2.5439,0.4577 3.3481,1.2278 0,0 -0.8125,2.15087 -0.8125,2.15087 -0.5785,-0.70683 -1.3687,-1.23175 -2.5527,-1.15017 -1.2897,0.089 -2.2118,1.13951 -2.2118,2.50011 0,1.41228 1.0199,2.53487 2.3144,2.53487 1.2065,0 2.1138,-0.67995 2.5706,-1.26372 0,0 0.7798,2.09246 0.7798,2.09246"
         style="fill:none;stroke:#ffff00;stroke-linecap:round"
         id="path26" />
      <path
         d="m 1109.8295,988.46779 c -2.8408,0 -4.9495,2.12699 -4.9495,4.76245 0,2.63661 2.0913,4.72884 4.9157,4.72884 2.8407,0 4.9499,-2.12583 4.9499,-4.76268 0,-2.63638 -2.0922,-4.72861 -4.9161,-4.72861"
         style="fill:none;stroke:#ffff00;stroke-linecap:round"
         id="path27" />
      <path
         d="m 1109.8295,995.73127 c -1.4292,0 -2.3984,-1.15712 -2.3984,-2.53487 0,-1.3606 0.8841,-2.50011 2.3646,-2.50011 1.4289,0 2.3983,1.15643 2.3983,2.53395 0,1.36152 -0.8848,2.50103 -2.3645,2.50103"
         style="fill:none;stroke:#ffff00;stroke-linecap:round"
         id="path28" />
      <path
         style="fill:none;stroke:#ffff00;stroke-linecap:round"
         d="m 1130.46,997.755 h 2.58"
         id="path29" />
      <path
         style="fill:none;stroke:#ffff00;stroke-linecap:round"
         d="M 1133.04,997.755 V 985.083"
         id="path30" />
      <path
         style="fill:none;stroke:#ffff00;stroke-linecap:round"
         d="m 1133.04,985.083 h -2.58"
         id="path31" />
      <path
         style="fill:none;stroke:#ffff00;stroke-linecap:round"
         d="m 1130.46,985.083 v 12.672"
         id="path32" />
      <path
         d="m 1139.0086,988.46825 c -2.6538,0 -4.5075,2.14275 -4.5075,4.76268 0,2.80741 2.0234,4.72885 4.762,4.72885 1.6495,0 2.8753,-0.64635 3.7256,-1.70012 0,0 -1.48,-1.31054 -1.48,-1.31054 -0.7145,0.66396 -1.3439,0.93557 -2.2111,0.93557 -1.1569,0 -1.9564,-0.61228 -2.2281,-1.78586 0,0 6.3446,0 6.3446,0 0.016,-0.23893 0.033,-0.42526 0.033,-0.66419 0,-2.60232 -1.3949,-4.96639 -4.4389,-4.96639"
         style="fill:none;stroke:#ffff00;stroke-linecap:round"
         id="path33" />
      <path
         d="m 1137.0348,992.48284 c 0.2032,-1.17358 0.9022,-1.93835 1.9738,-1.93835 1.0876,0 1.7689,0.78146 1.9219,1.93835 0,0 -3.8957,0 -3.8957,0"
         style="fill:none;stroke:#ffff00;stroke-linecap:round"
         id="path34" />
      <path
         d="m 1156.8317,988.63951 c 0,0 0,-2.33116 0,-2.33116 0,0 -2.5865,0 -2.5865,0 0,0 0,8.86209 0,8.86209 0,2.11008 1.0723,2.73905 2.6544,2.73905 0.8673,0 1.4964,-0.20556 2.0415,-0.52723 0,0 0,-2.07509 0,-2.07509 -0.3745,0.20325 -0.8009,0.32237 -1.2758,0.32237 -0.5791,0 -0.8336,-0.28946 -0.8336,-0.88413 0,0 0,-3.89478 0,-3.89478 0,0 1.671,0 1.671,0 0,0 0.8241,-2.21112 0.8241,-2.21112 0,0 -2.4951,0 -2.4951,0"
         style="fill:none;stroke:#ffff00;stroke-linecap:round"
         id="path35" />
      <path
         d="m 1171.7953,988.46825 c -2.8398,0 -4.949,2.12676 -4.949,4.76268 0,2.63615 2.0923,4.72885 4.9152,4.72885 2.8408,0 4.9499,-2.12584 4.9499,-4.76269 0,-2.63684 -2.092,-4.72884 -4.9161,-4.72884"
         style="fill:none;stroke:#ffff00;stroke-linecap:round"
         id="path36" />
      <path
         d="m 1171.7953,995.73174 c -1.4287,0 -2.3986,-1.15736 -2.3986,-2.53465 0,-1.36083 0.8858,-2.50011 2.3648,-2.50011 1.4294,0 2.3977,1.1562 2.3977,2.53395 0,1.3613 -0.8837,2.50081 -2.3639,2.50081"
         style="fill:none;stroke:#ffff00;stroke-linecap:round"
         id="path37" />
      <path
         d="m 1183.26,988.46825 c -1.3094,0 -2.0744,0.69803 -2.6695,1.46234 0,0 0,-1.29108 0,-1.29108 0,0 -2.5854,0 -2.5854,0 0,0 0,9.11586 0,9.11586 0,0 2.5854,0 2.5854,0 0,0 0,-5.08504 0,-5.08504 0,-1.22572 0.6289,-1.85423 1.6159,-1.85423 0.9871,0 1.5646,0.62851 1.5646,1.85423 0,0 0,5.08504 0,5.08504 0,0 2.5854,0 2.5854,0 0,0 0,-5.90219 0,-5.90219 0,-2.09246 -1.14,-3.38493 -3.0964,-3.38493"
         style="fill:none;stroke:#ffff00;stroke-linecap:round"
         id="path38" />
      <path
         style="fill:none;stroke:#ffff00;stroke-linecap:round"
         d="m 1187.93,987.635 h 2.72"
         id="path39" />
      <path
         style="fill:none;stroke:#ffff00;stroke-linecap:round"
         d="m 1190.65,987.635 v -2.297"
         id="path40" />
      <path
         style="fill:none;stroke:#ffff00;stroke-linecap:round"
         d="m 1190.65,985.338 h -2.72"
         id="path41" />
      <path
         style="fill:none;stroke:#ffff00;stroke-linecap:round"
         d="m 1187.93,985.338 v 2.297"
         id="path42" />
      <path
         style="fill:none;stroke:#ffff00;stroke-linecap:round"
         d="m 1187.99,997.755 h 2.59"
         id="path43" />
      <path
         style="fill:none;stroke:#ffff00;stroke-linecap:round"
         d="M 1190.58,997.755 V 988.64"
         id="path44" />
      <path
         style="fill:none;stroke:#ffff00;stroke-linecap:round"
         d="m 1190.58,988.64 h -2.59"
         id="path45" />
      <path
         style="fill:none;stroke:#ffff00;stroke-linecap:round"
         d="m 1187.99,988.64 v 9.115"
         id="path46" />
      <path
         d="m 1207.317,991.36071 c -0.9006,-0.52839 -1.8024,-0.85098 -2.4663,-0.85098 -0.6283,0 -0.952,0.27254 -0.952,0.64612 0,1.22479 4.609,0.81691 4.609,3.79327 0,2.04102 -1.5131,2.96037 -3.4865,2.96037 -1.2755,0 -2.586,-0.33534 -3.7937,-1.28737 0,0 0.7298,-1.9321 0.7298,-1.9321 0.9863,0.84172 2.2813,1.22851 3.1316,1.22851 0.7488,0 1.0892,-0.27138 1.0892,-0.69734 0,-1.29223 -4.6102,-0.59513 -4.6102,-3.79373 0,-1.87045 1.4974,-2.90776 3.3335,-2.90776 1.061,0 2.2079,0.32885 3.1523,0.89548 0,0 -0.7367,1.94553 -0.7367,1.94553"
         style="fill:none;stroke:#ffff00;stroke-linecap:round"
         id="path47" />
      <path
         d="m 1152.8443,996.56071 c -0.017,0.0162 -0.033,0.0327 -0.049,0.0482 -0.052,0.0507 -0.1041,0.10081 -0.1576,0.14878 -0.7889,0.72051 -1.75,1.20209 -3.2631,1.20209 -2.7388,0 -4.7457,-2.10892 -4.7457,-4.72885 0,-2.61993 1.99,-4.76268 4.7796,-4.76268 1.527,0 2.5437,0.45747 3.3478,1.22781 0,0 -0.812,2.15086 -0.812,2.15086 -0.5787,-0.7066 -1.3692,-1.23151 -2.5527,-1.14994 -1.29,0.0888 -2.2121,1.13928 -2.2121,2.50012 0,1.41204 1.0197,2.53464 2.3143,2.53464 1.2064,0 2.1133,-0.68042 2.5703,-1.2635 0,0 0.7801,2.09247 0.7801,2.09247"
         style="fill:none;stroke:#ffff00;stroke-linecap:round"
         id="path48" />
      <path
         d="m 1200.1038,996.56071 c -0.017,0.0162 -0.033,0.0327 -0.05,0.0482 -0.052,0.0507 -0.1041,0.10081 -0.1569,0.14878 -0.7894,0.72051 -1.75,1.20209 -3.2638,1.20209 -2.7378,0 -4.745,-2.10892 -4.745,-4.72885 0,-2.61993 1.9902,-4.76268 4.7789,-4.76268 1.5274,0 2.5446,0.45747 3.3485,1.22781 0,0 -0.8127,2.15086 -0.8127,2.15086 -0.5782,-0.7066 -1.369,-1.23151 -2.5527,-1.14994 -1.2893,0.0888 -2.2112,1.13928 -2.2112,2.50012 0,1.41204 1.0197,2.53464 2.3138,2.53464 1.2065,0 2.114,-0.68042 2.5706,-1.2635 0,0 0.7801,2.09247 0.7801,2.09247"
         style="fill:none;stroke:#ffff00;stroke-linecap:round"
         id="path49" />
      <path
         d="m 1163.3541,990.47775 c 0,0 0,-1.83638 0,-1.83638 0,0 -2.5854,0 -2.5854,0 0,0 0,9.114 0,9.114 0,0 2.5854,0 2.5854,0 0,0 0,-3.36616 0,-3.36616 0,-2.17798 1.0538,-3.21436 2.7703,-3.21436 0,0 0.137,0 0.137,0 0,0 0,-2.70475 0,-2.70475 -1.53,-0.0679 -2.3812,0.74948 -2.9073,2.00765"
         style="fill:none;stroke:#ffff00;stroke-linecap:round"
         id="path50" />
      <path
         style="fill:none;stroke:#ffff00;stroke-linecap:round"
         d="m 1071.65,975.548 1.18,-3.168"
         id="path51" />
      <path
         style="fill:none;stroke:#ffff00;stroke-linecap:round"
         d="m 1072.83,972.38 h -17.7"
         id="path52" />
      <path
         style="fill:none;stroke:#ffff00;stroke-linecap:round"
         d="m 1055.13,972.38 -1.19,3.168"
         id="path53" />
      <path
         style="fill:none;stroke:#ffff00;stroke-linecap:round"
         d="m 1053.94,975.548 h 9.27"
         id="path54" />
      <path
         style="fill:none;stroke:#ffff00;stroke-linecap:round"
         d="m 1063.21,975.548 -0.4,1.06"
         id="path55" />
      <path
         style="fill:none;stroke:#ffff00;stroke-linecap:round"
         d="m 1062.81,976.608 h 11.57"
         id="path56" />
      <path
         style="fill:none;stroke:#ffff00;stroke-linecap:round"
         d="m 1074.38,976.608 0.39,-1.06"
         id="path57" />
      <path
         style="fill:none;stroke:#ffff00;stroke-linecap:round"
         d="m 1074.77,975.548 h -3.12"
         id="path58" />
      <path
         style="fill:none;stroke:#ffff00;stroke-linecap:round"
         d="m 1071.24,985.059 0.39,-1.056"
         id="path59" />
      <path
         style="fill:none;stroke:#ffff00;stroke-linecap:round"
         d="m 1071.63,984.003 h -11.56"
         id="path60" />
      <path
         style="fill:none;stroke:#ffff00;stroke-linecap:round"
         d="m 1060.07,984.003 -0.39,1.051"
         id="path61" />
      <path
         style="fill:none;stroke:#ffff00;stroke-linecap:round"
         d="m 1059.68,985.054 h -4.01"
         id="path62" />
      <path
         style="fill:none;stroke:#ffff00;stroke-linecap:round"
         d="m 1055.67,985.054 -1.18,3.173"
         id="path63" />
      <path
         style="fill:none;stroke:#ffff00;stroke-linecap:round"
         d="m 1054.49,988.227 h 4.01"
         id="path64" />
      <path
         style="fill:none;stroke:#ffff00;stroke-linecap:round"
         d="m 1058.5,988.227 -0.39,1.057"
         id="path65" />
      <path
         style="fill:none;stroke:#ffff00;stroke-linecap:round"
         d="m 1058.11,989.284 h 11.56"
         id="path66" />
      <path
         style="fill:none;stroke:#ffff00;stroke-linecap:round"
         d="m 1069.67,989.284 0.4,-1.057"
         id="path67" />
      <path
         style="fill:none;stroke:#ffff00;stroke-linecap:round"
         d="m 1070.07,988.227 h -8.14"
         id="path68" />
      <path
         style="fill:none;stroke:#ffff00;stroke-linecap:round"
         d="m 1061.93,988.227 1.18,-3.168"
         id="path69" />
      <path
         style="fill:none;stroke:#ffff00;stroke-linecap:round"
         d="m 1063.11,985.059 h 8.13"
         id="path70" />
      <path
         style="fill:none;stroke:#ffff00;stroke-linecap:round"
         d="m 1073.59,978.731 0.39,-1.064"
         id="path71" />
      <path
         style="fill:none;stroke:#ffff00;stroke-linecap:round"
         d="m 1073.98,977.667 h -11.56"
         id="path72" />
      <path
         style="fill:none;stroke:#ffff00;stroke-linecap:round"
         d="m 1062.42,977.667 -0.39,1.059"
         id="path73" />
      <path
         style="fill:none;stroke:#ffff00;stroke-linecap:round"
         d="m 1062.03,978.726 h -4.01"
         id="path74" />
      <path
         style="fill:none;stroke:#ffff00;stroke-linecap:round"
         d="m 1058.02,978.726 -1.18,3.173"
         id="path75" />
      <path
         style="fill:none;stroke:#ffff00;stroke-linecap:round"
         d="m 1056.84,981.899 h 4.01"
         id="path76" />
      <path
         style="fill:none;stroke:#ffff00;stroke-linecap:round"
         d="m 1060.85,981.899 -0.39,1.052"
         id="path77" />
      <path
         style="fill:none;stroke:#ffff00;stroke-linecap:round"
         d="m 1060.46,982.951 h 11.56"
         id="path78" />
      <path
         style="fill:none;stroke:#ffff00;stroke-linecap:round"
         d="m 1072.02,982.951 0.39,-1.052"
         id="path79" />
      <path
         style="fill:none;stroke:#ffff00;stroke-linecap:round"
         d="m 1072.41,981.899 h -8.13"
         id="path80" />
      <path
         style="fill:none;stroke:#ffff00;stroke-linecap:round"
         d="m 1064.28,981.899 1.18,-3.168"
         id="path81" />
      <path
         style="fill:none;stroke:#ffff00;stroke-linecap:round"
         d="m 1065.46,978.731 h 8.13"
         id="path82" />
      <path
         style="fill:none;stroke:#ffff00;stroke-linecap:round"
         d="m 1057.32,991.398 h 11.57"
         id="path83" />
      <path
         style="fill:none;stroke:#ffff00;stroke-linecap:round"
         d="m 1068.89,991.398 0.39,-1.057"
         id="path84" />
      <path
         style="fill:none;stroke:#ffff00;stroke-linecap:round"
         d="m 1069.28,990.341 h -11.56"
         id="path85" />
      <path
         style="fill:none;stroke:#ffff00;stroke-linecap:round"
         d="m 1057.72,990.341 -0.4,1.057"
         id="path86" />
      <path
         style="fill:none;stroke:#ffff00;stroke-linecap:round"
         d="m 1072.83,972.38 h -17.7"
         id="path87" />
      <path
         style="fill:none;stroke:#ffff00;stroke-linecap:round"
         d="m 1055.13,972.38 -1.19,3.168"
         id="path88" />
      <path
         style="fill:none;stroke:#ffff00;stroke-linecap:round"
         d="m 1053.94,975.548 h 9.27"
         id="path89" />
      <path
         style="fill:none;stroke:#ffff00;stroke-linecap:round"
         d="m 1063.21,975.548 -0.4,1.06"
         id="path90" />
      <path
         style="fill:none;stroke:#ffff00;stroke-linecap:round"
         d="m 1062.81,976.608 h 11.57"
         id="path91" />
      <path
         style="fill:none;stroke:#ffff00;stroke-linecap:round"
         d="m 1074.38,976.608 0.39,-1.06"
         id="path92" />
      <path
         style="fill:none;stroke:#ffff00;stroke-linecap:round"
         d="m 1074.77,975.548 h -3.12"
         id="path93" />
      <path
         style="fill:none;stroke:#ffff00;stroke-linecap:round"
         d="m 1071.65,975.548 1.18,-3.168"
         id="path94" />
      <path
         d="m 1072.8309,972.37997 -1.1808,3.16825 h 3.1203 l -0.393,1.05932 h -11.5641 l 0.3931,-1.05932 h -9.2618 l 1.1837,-3.16825 h 17.7026"
         style="fill:none;stroke:#ffff00;stroke-linecap:round"
         id="path95" />
      <path
         d="m 1072.8309,972.37997 -1.1808,3.16825 h 3.1203 l -0.393,1.05932 h -11.5641 l 0.3931,-1.05932 h -9.2618 l 1.1837,-3.16825 z"
         style="fill:#ffff00"
         id="path96" />
      <path
         style="fill:none;stroke:#ffff00;stroke-linecap:round"
         d="m 1073.98,977.667 h -11.56"
         id="path97" />
      <path
         style="fill:none;stroke:#ffff00;stroke-linecap:round"
         d="m 1062.42,977.667 -0.39,1.059"
         id="path98" />
      <path
         style="fill:none;stroke:#ffff00;stroke-linecap:round"
         d="m 1062.03,978.726 h -4.01"
         id="path99" />
      <path
         style="fill:none;stroke:#ffff00;stroke-linecap:round"
         d="m 1058.02,978.726 -1.18,3.173"
         id="path100" />
      <path
         style="fill:none;stroke:#ffff00;stroke-linecap:round"
         d="m 1056.84,981.899 h 4.01"
         id="path101" />
      <path
         style="fill:none;stroke:#ffff00;stroke-linecap:round"
         d="m 1060.85,981.899 -0.39,1.052"
         id="path102" />
      <path
         style="fill:none;stroke:#ffff00;stroke-linecap:round"
         d="m 1060.46,982.951 h 11.56"
         id="path103" />
      <path
         style="fill:none;stroke:#ffff00;stroke-linecap:round"
         d="m 1072.02,982.951 0.39,-1.052"
         id="path104" />
      <path
         style="fill:none;stroke:#ffff00;stroke-linecap:round"
         d="m 1072.41,981.899 h -8.13"
         id="path105" />
      <path
         style="fill:none;stroke:#ffff00;stroke-linecap:round"
         d="m 1064.28,981.899 1.18,-3.168"
         id="path106" />
      <path
         style="fill:none;stroke:#ffff00;stroke-linecap:round"
         d="m 1065.46,978.731 h 8.13"
         id="path107" />
      <path
         style="fill:none;stroke:#ffff00;stroke-linecap:round"
         d="m 1073.59,978.731 0.39,-1.064"
         id="path108" />
      <path
         d="m 1073.9843,977.66687 -0.3948,1.06408 h -8.1309 l -1.1761,3.16755 h 8.1317 l -0.3905,1.05242 h -11.5644 l 0.3903,-1.05172 h -4.0056 l 1.1781,-3.173 h 4.0049 l 0.3932,-1.05933 h 11.5641"
         style="fill:none;stroke:#ffff00;stroke-linecap:round"
         id="path109" />
      <path
         d="m 1073.9843,977.66687 -0.3948,1.06408 h -8.1309 l -1.1761,3.16755 h 8.1317 l -0.3905,1.05242 h -11.5644 l 0.3903,-1.05172 h -4.0056 l 1.1781,-3.173 h 4.0049 l 0.3932,-1.05933 z"
         style="fill:#ffff00"
         id="path110" />
      <path
         style="fill:none;stroke:#ffff00;stroke-linecap:round"
         d="m 1071.63,984.003 h -11.56"
         id="path111" />
      <path
         style="fill:none;stroke:#ffff00;stroke-linecap:round"
         d="m 1060.07,984.003 -0.39,1.051"
         id="path112" />
      <path
         style="fill:none;stroke:#ffff00;stroke-linecap:round"
         d="m 1059.68,985.054 h -4.01"
         id="path113" />
      <path
         style="fill:none;stroke:#ffff00;stroke-linecap:round"
         d="m 1055.67,985.054 -1.18,3.173"
         id="path114" />
      <path
         style="fill:none;stroke:#ffff00;stroke-linecap:round"
         d="m 1054.49,988.227 h 4.01"
         id="path115" />
      <path
         style="fill:none;stroke:#ffff00;stroke-linecap:round"
         d="m 1058.5,988.227 -0.39,1.057"
         id="path116" />
      <path
         style="fill:none;stroke:#ffff00;stroke-linecap:round"
         d="m 1058.11,989.284 h 11.56"
         id="path117" />
      <path
         style="fill:none;stroke:#ffff00;stroke-linecap:round"
         d="m 1069.67,989.284 0.4,-1.057"
         id="path118" />
      <path
         style="fill:none;stroke:#ffff00;stroke-linecap:round"
         d="m 1070.07,988.227 h -8.14"
         id="path119" />
      <path
         style="fill:none;stroke:#ffff00;stroke-linecap:round"
         d="m 1061.93,988.227 1.18,-3.168"
         id="path120" />
      <path
         style="fill:none;stroke:#ffff00;stroke-linecap:round"
         d="m 1063.11,985.059 h 8.13"
         id="path121" />
      <path
         style="fill:none;stroke:#ffff00;stroke-linecap:round"
         d="m 1071.24,985.059 0.39,-1.056"
         id="path122" />
      <path
         d="m 1071.6334,984.00268 -0.3946,1.05654 h -8.1335 l -1.1761,3.16755 h 8.1369 l -0.3924,1.05748 h -11.5647 l 0.3922,-1.05679 h -4.0105 l 1.1781,-3.17299 h 4.0094 l 0.3908,-1.05179 h 11.5644"
         style="fill:none;stroke:#ffff00;stroke-linecap:round"
         id="path123" />
      <path
         d="m 1071.6334,984.00268 -0.3946,1.05654 h -8.1335 l -1.1761,3.16755 h 8.1369 l -0.3924,1.05748 h -11.5647 l 0.3922,-1.05679 h -4.0105 l 1.1781,-3.17299 h 4.0094 l 0.3908,-1.05179 z"
         style="fill:#ffff00"
         id="path124" />
      <path
         style="fill:none;stroke:#ffff00;stroke-linecap:round"
         d="m 1068.89,991.398 0.39,-1.057"
         id="path125" />
      <path
         style="fill:none;stroke:#ffff00;stroke-linecap:round"
         d="m 1069.28,990.341 h -11.56"
         id="path126" />
      <path
         style="fill:none;stroke:#ffff00;stroke-linecap:round"
         d="m 1057.72,990.341 -0.4,1.057"
         id="path127" />
      <path
         style="fill:none;stroke:#ffff00;stroke-linecap:round"
         d="m 1057.32,991.398 h 11.57"
         id="path128" />
      <path
         style="fill:none;stroke:#ffff00;stroke-linecap:round"
         d="m 1068.89,991.398 h -11.57 l 0.4,-1.057 z"
         id="path129" />
      <path
         style="fill:none;stroke:#ffff00;stroke-linecap:round"
         d="m 1088.79,985.077 -0.9,2.426"
         id="path130" />
      <path
         style="fill:none;stroke:#ffff00;stroke-linecap:round"
         d="m 1087.89,987.503 h -3.32"
         id="path131" />
      <path
         style="fill:none;stroke:#ffff00;stroke-linecap:round"
         d="m 1084.57,987.503 v 10.255"
         id="path132" />
      <path
         style="fill:none;stroke:#ffff00;stroke-linecap:round"
         d="m 1084.57,997.758 h -2.69"
         id="path133" />
      <path
         style="fill:none;stroke:#ffff00;stroke-linecap:round"
         d="M 1081.88,997.758 V 987.503"
         id="path134" />
      <path
         style="fill:none;stroke:#ffff00;stroke-linecap:round"
         d="m 1081.88,987.503 h -4.15"
         id="path135" />
      <path
         style="fill:none;stroke:#ffff00;stroke-linecap:round"
         d="m 1077.73,987.503 v -2.426"
         id="path136" />
      <path
         style="fill:none;stroke:#ffff00;stroke-linecap:round"
         d="m 1077.73,985.077 h 11.06"
         id="path137" />
      <path
         d="m 1088.789,985.07706 -0.9032,2.42618 h -3.3137 v 10.25445 h -2.6872 v -10.25445 h -4.1539 v -2.42618 h 11.0607"
         style="fill:none;stroke:#ffff00;stroke-linecap:round"
         id="path138" />
      <path
         d="m 1088.789,985.07706 -0.9032,2.42618 h -3.3137 v 10.25445 h -2.6872 v -10.25445 h -4.1539 v -2.42618 z"
         style="fill:#ffff00"
         id="path139" />
      <path
         d="m 1091.3836,994.72618 c 0,0 -2.0373,-6.07832 -2.0373,-6.07832 0,0 -2.7763,0 -2.7763,0 0,0 3.5715,9.14065 3.5715,9.14065 -0.3326,0.89919 -0.9595,1.17289 -1.4024,1.17289 -0.3404,0 -0.7647,-0.15273 -1.1052,-0.35713 0,0 -1.0218,1.87073 -1.0218,1.87073 0.6635,0.3921 1.3609,0.6294 2.2964,0.6294 1.5479,0 2.9511,-1.27417 3.6489,-3.12909 0,0 3.5032,-9.32745 3.5032,-9.32745 0,0 -2.7259,0 -2.7259,0 0,0 -1.9481,6.07554 -1.9481,6.07554 0,0 0,0.003 0,0.003"
         style="fill:none;stroke:#ffff00;stroke-linecap:round"
         id="path140" />
      <path
         d="m 1091.3836,994.72618 v -0.003 l 1.9481,-6.07554 h 2.7259 l -3.5032,9.32745 -0.011,0.0302 -0.3765,0.81482 -0.4563,0.70334 -0.5137,0.57695 -0.5505,0.4444 -0.5712,0.3127 -0.5818,0.1852 -0.5875,0.062 -0.4008,-0.015 -0.3734,-0.045 -0.6807,-0.1725 -0.6491,-0.2879 -0.1924,-0.1086 1.0218,-1.87075 0.1962,0.10734 0.5046,0.19202 0.4044,0.0578 0.1614,-0.0117 0.3645,-0.11034 0.3402,-0.22558 0.2971,-0.34566 0.2392,-0.47963 -3.5715,-9.14065 h 2.7763 l 2.0373,6.07832"
         style="fill:none;stroke:#ffff00;stroke-linecap:round"
         id="path141" />
      <path
         d="m 1091.3836,994.72618 v -0.003 l 1.9481,-6.07554 h 2.7259 l -3.5032,9.32745 -0.011,0.0302 -0.3765,0.81482 -0.4563,0.70334 -0.5137,0.57695 -0.5505,0.4444 -0.5712,0.3127 -0.5818,0.1852 -0.5875,0.062 -0.4008,-0.015 -0.3734,-0.045 -0.6807,-0.1725 -0.6491,-0.2879 -0.1924,-0.1086 1.0218,-1.87075 0.1962,0.10734 0.5046,0.19202 0.4044,0.0578 0.1614,-0.0117 0.3645,-0.11034 0.3402,-0.22558 0.2971,-0.34566 0.2392,-0.47963 -3.5715,-9.14065 h 2.7763 z"
         style="fill:#ffff00"
         id="path142" />
      <path
         d="m 1104.2385,996.56001 c -0.016,0.0164 -0.032,0.0327 -0.049,0.0489 -0.052,0.0503 -0.1041,0.10012 -0.1574,0.14878 -0.7891,0.71982 -1.7501,1.20139 -3.2632,1.20139 -2.7386,0 -4.7458,-2.10892 -4.7458,-4.72884 0,-2.61947 1.9901,-4.76245 4.7796,-4.76245 1.5272,0 2.5439,0.4577 3.3481,1.2278 0,0 -0.8125,2.15087 -0.8125,2.15087 -0.5785,-0.70683 -1.3687,-1.23175 -2.5527,-1.15017 -1.2897,0.089 -2.2118,1.13951 -2.2118,2.50011 0,1.41228 1.0199,2.53487 2.3144,2.53487 1.2065,0 2.1138,-0.67995 2.5706,-1.26372 0,0 0.7798,2.09246 0.7798,2.09246"
         style="fill:none;stroke:#ffff00;stroke-linecap:round"
         id="path143" />
      <path
         d="m 1100.0794,988.5173 0.7232,-0.0495 0.8049,0.047 0.7025,0.1354 0.6204,0.21825 0.555,0.29896 0.5116,0.38712 0.1537,0.14105 -0.8125,2.15087 -0.157,-0.18131 -0.4085,-0.38083 -0.4328,-0.28238 -0.4673,-0.19253 -0.5135,-0.1039 -0.5736,-0.009 -4.0503,-0.0223 0.4006,-0.55336 0.4748,-0.48505 0.5401,-0.40867 0.5965,-0.32586 0.6451,-0.23795 0.6871,-0.14575"
         style="fill:none;stroke:#ffff00;stroke-linecap:round"
         id="path144" />
      <path
         d="m 1100.0794,988.5173 0.7232,-0.0495 0.8049,0.047 0.7025,0.1354 0.6204,0.21825 0.555,0.29896 0.5116,0.38712 0.1537,0.14105 -0.8125,2.15087 -0.157,-0.18131 -0.4085,-0.38083 -0.4328,-0.28238 -0.4673,-0.19253 -0.5135,-0.1039 -0.5736,-0.009 -4.0503,-0.0223 0.4006,-0.55336 0.4748,-0.48505 0.5401,-0.40867 0.5965,-0.32586 0.6451,-0.23795 z"
         style="fill:#ffff00"
         id="path145" />
      <path
         d="m 1099.8527,990.95498 -0.3967,0.26274 -3.2358,0.61673 0.2418,-0.64948 0.2732,-0.51103 4.0503,0.0223 -0.4867,0.083 -0.4461,0.17569"
         style="fill:none;stroke:#ffff00;stroke-linecap:round"
         id="path146" />
      <path
         d="m 1099.8527,990.95498 -0.3967,0.26274 -3.2358,0.61673 0.2418,-0.64948 0.2732,-0.51103 4.0503,0.0223 -0.4867,0.083 z"
         style="fill:#ffff00"
         id="path147" />
      <path
         d="m 1099.1194,991.56078 -0.265,0.41458 -2.7816,0.5443 0.1474,-0.68521 3.2358,-0.61673 -0.3366,0.34306"
         style="fill:none;stroke:#ffff00;stroke-linecap:round"
         id="path148" />
      <path
         d="m 1099.1194,991.56078 -0.265,0.41458 -2.7816,0.5443 0.1474,-0.68521 3.2358,-0.61673 z"
         style="fill:#ffff00"
         id="path149" />
      <path
         d="m 1098.767,992.16854 -0.144,0.49406 -2.6,0.56764 0.05,-0.71058 2.7816,-0.5443 -0.087,0.19318"
         style="fill:none;stroke:#ffff00;stroke-linecap:round"
         id="path150" />
      <path
         d="m 1098.767,992.16854 -0.144,0.49406 -2.6,0.56764 0.05,-0.71058 2.7816,-0.5443 z"
         style="fill:#ffff00"
         id="path151" />
      <path
         d="m 1098.5737,993.1964 0.049,0.52909 0.1445,0.49865 0.2336,0.45219 -2.5395,0.58684 -0.2414,-0.64515 -0.1472,-0.68088 -0.05,-0.7069 2.6,-0.56764 -0.049,0.5338"
         style="fill:none;stroke:#ffff00;stroke-linecap:round"
         id="path152" />
      <path
         d="m 1098.5737,993.1964 0.049,0.52909 0.1445,0.49865 0.2336,0.45219 -2.5395,0.58684 -0.2414,-0.64515 -0.1472,-0.68088 -0.05,-0.7069 2.6,-0.56764 z"
         style="fill:#ffff00"
         id="path153" />
      <path
         d="m 1099.2262,994.97212 0.3564,0.32627 -2.7904,0.56364 -0.3309,-0.59886 2.5395,-0.58684 0.2254,0.29579"
         style="fill:none;stroke:#ffff00;stroke-linecap:round"
         id="path154" />
      <path
         d="m 1099.2262,994.97212 0.3564,0.32627 -2.7904,0.56364 -0.3309,-0.59886 2.5395,-0.58684 z"
         style="fill:#ffff00"
         id="path155" />
      <path
         d="m 1100.8881,995.73127 0.5476,-0.0476 0.5278,-0.14085 0.5035,-0.23146 0.4667,-0.31632 0.4045,-0.38327 0.1205,-0.14419 0.7798,2.09246 -6.6472,0.22769 -0.4732,-0.48621 -0.3259,-0.43946 2.7904,-0.56364 0.4043,0.2384 0.4386,0.14535 0.4626,0.0491"
         style="fill:none;stroke:#ffff00;stroke-linecap:round"
         id="path156" />
      <path
         d="m 1100.8881,995.73127 0.5476,-0.0476 0.5278,-0.14085 0.5035,-0.23146 0.4667,-0.31632 0.4045,-0.38327 0.1205,-0.14419 0.7798,2.09246 -6.6472,0.22769 -0.4732,-0.48621 -0.3259,-0.43946 2.7904,-0.56364 0.4043,0.2384 0.4386,0.14535 z"
         style="fill:#ffff00"
         id="path157" />
      <path
         d="m 1104.032,996.75769 -0.1087,0.0967 -0.526,0.39778 -0.552,0.30243 -0.6056,0.21932 -0.6861,0.13733 -0.7848,0.0478 -0.7168,-0.0495 -0.6832,-0.14605 -0.6431,-0.2387 -0.5954,-0.32705 -0.539,-0.41005 6.6472,-0.22769 -0.049,0.0489 -0.1574,0.14878"
         style="fill:none;stroke:#ffff00;stroke-linecap:round"
         id="path158" />
      <path
         d="m 1104.032,996.75769 -0.1087,0.0967 -0.526,0.39778 -0.552,0.30243 -0.6056,0.21932 -0.6861,0.13733 -0.7848,0.0478 -0.7168,-0.0495 -0.6832,-0.14605 -0.6431,-0.2387 -0.5954,-0.32705 -0.539,-0.41005 6.6472,-0.22769 -0.049,0.0489 z"
         style="fill:#ffff00"
         id="path159" />
      <path
         d="m 1109.8295,988.46779 c -2.8408,0 -4.9495,2.12699 -4.9495,4.76245 0,2.63661 2.0913,4.72884 4.9157,4.72884 2.8407,0 4.9499,-2.12583 4.9499,-4.76268 0,-2.63638 -2.0922,-4.72861 -4.9161,-4.72861"
         style="fill:none;stroke:#ffff00;stroke-linecap:round"
         id="path160" />
      <path
         d="m 1109.8295,995.73127 c -1.4292,0 -2.3984,-1.15712 -2.3984,-2.53487 0,-1.3606 0.8841,-2.50011 2.3646,-2.50011 1.4289,0 2.3983,1.15643 2.3983,2.53395 0,1.36152 -0.8848,2.50103 -2.3645,2.50103"
         style="fill:none;stroke:#ffff00;stroke-linecap:round"
         id="path161" />
      <path
         style="fill:none;stroke:#ffff00;stroke-linecap:round"
         d="m 1109.83,988.468 0.77,0.053 -2.27,0.158 z"
         id="path162" />
      <path
         d="m 1111.334,988.6789 0.6876,0.25709 0.6321,0.35097 0.5663,0.43787 0.2464,0.2397 0.4486,0.54861 0.3576,0.60843 0.2605,0.65686 0.1588,0.69473 0.054,0.72324 -0.054,0.72134 -0.1591,0.69534 -0.2612,0.65954 -0.359,0.61253 -3.698,-0.18093 0.3555,-0.0787 0.326,-0.12727 0.2957,-0.17352 0.264,-0.21796 0.2299,-0.26068 0.1924,-0.30119 0.1506,-0.33852 0.1045,-0.37122 0.054,-0.39776 0.01,-0.20717 -0.027,-0.3963 -0.081,-0.38139 -0.067,-0.2014 -0.1576,-0.34193 -0.2012,-0.30729 -0.2396,-0.26756 -0.273,-0.22406 -0.3022,-0.17789 -0.3277,-0.12963 -0.3507,-0.0794 -0.3718,-0.0271 -0.3853,0.0271 -4.0563,0.43102 0.3591,-0.6126 0.4506,-0.55359 0.2678,-0.26061 0.5705,-0.43934 0.6352,-0.35185 0.6891,-0.25744 2.2741,-0.15765 0.7335,0.15762"
         style="fill:none;stroke:#ffff00;stroke-linecap:round"
         id="path163" />
      <path
         d="m 1111.334,988.6789 0.6876,0.25709 0.6321,0.35097 0.5663,0.43787 0.2464,0.2397 0.4486,0.54861 0.3576,0.60843 0.2605,0.65686 0.1588,0.69473 0.054,0.72324 -0.054,0.72134 -0.1591,0.69534 -0.2612,0.65954 -0.359,0.61253 -3.698,-0.18093 0.3555,-0.0787 0.326,-0.12727 0.2957,-0.17352 0.264,-0.21796 0.2299,-0.26068 0.1924,-0.30119 0.1506,-0.33852 0.1045,-0.37122 0.054,-0.39776 0.01,-0.20717 -0.027,-0.3963 -0.081,-0.38139 -0.067,-0.2014 -0.1576,-0.34193 -0.2012,-0.30729 -0.2396,-0.26756 -0.273,-0.22406 -0.3022,-0.17789 -0.3277,-0.12963 -0.3507,-0.0794 -0.3718,-0.0271 -0.3853,0.0271 -4.0563,0.43102 0.3591,-0.6126 0.4506,-0.55359 0.2678,-0.26061 0.5705,-0.43934 0.6352,-0.35185 0.6891,-0.25744 2.2741,-0.15765 z"
         style="fill:#ffff00"
         id="path164" />
      <path
         d="m 1108.4331,991.10275 -0.264,0.21791 -3.0763,0.49324 0.2613,-0.65954 4.0563,-0.43102 -0.3556,0.0787 -0.326,0.12724 -0.2957,0.17348"
         style="fill:none;stroke:#ffff00;stroke-linecap:round"
         id="path165" />
      <path
         d="m 1108.4331,991.10275 -0.264,0.21791 -3.0763,0.49324 0.2613,-0.65954 4.0563,-0.43102 -0.3556,0.0787 -0.326,0.12724 z"
         style="fill:#ffff00"
         id="path166" />
      <path
         d="m 1107.9392,991.58126 -0.1923,0.30111 -2.8132,0.62677 0.1591,-0.69524 3.0763,-0.49324 -0.2299,0.2606"
         style="fill:none;stroke:#ffff00;stroke-linecap:round"
         id="path167" />
      <path
         d="m 1107.9392,991.58126 -0.1923,0.30111 -2.8132,0.62677 0.1591,-0.69524 3.0763,-0.49324 z"
         style="fill:#ffff00"
         id="path168" />
      <path
         d="m 1107.5963,992.22079 -0.1044,0.37113 -2.6119,0.63832 0.054,-0.7211 2.8132,-0.62677 -0.1506,0.33842"
         style="fill:none;stroke:#ffff00;stroke-linecap:round"
         id="path169" />
      <path
         d="m 1107.5963,992.22079 -0.1044,0.37113 -2.6119,0.63832 0.054,-0.7211 2.8132,-0.62677 z"
         style="fill:#ffff00"
         id="path170" />
      <path
         d="m 1107.4311,993.1964 0.027,0.39642 0.081,0.38154 -2.4466,0.67422 -0.1588,-0.69489 -0.054,-0.72345 2.6119,-0.63832 -0.054,0.39766 -0.01,0.20682"
         style="fill:none;stroke:#ffff00;stroke-linecap:round"
         id="path171" />
      <path
         d="m 1107.4311,993.1964 0.027,0.39642 0.081,0.38154 -2.4466,0.67422 -0.1588,-0.69489 -0.054,-0.72345 2.6119,-0.63832 -0.054,0.39766 z"
         style="fill:#ffff00"
         id="path172" />
      <path
         d="m 1107.7635,994.51824 0.2012,0.30734 -2.6117,0.47995 -0.2605,-0.65695 2.4466,-0.67422 0.067,0.20186 0.1577,0.34202"
         style="fill:none;stroke:#ffff00;stroke-linecap:round"
         id="path173" />
      <path
         d="m 1107.7635,994.51824 0.2012,0.30734 -2.6117,0.47995 -0.2605,-0.65695 2.4466,-0.67422 0.067,0.20186 z"
         style="fill:#ffff00"
         id="path174" />
      <path
         d="m 1108.2043,995.09317 0.273,0.22409 -2.7667,0.59673 -0.3576,-0.60846 2.6117,-0.47995 0.2396,0.26759"
         style="fill:none;stroke:#ffff00;stroke-linecap:round"
         id="path175" />
      <path
         d="m 1108.2043,995.09317 0.273,0.22409 -2.7667,0.59673 -0.3576,-0.60846 2.6117,-0.47995 z"
         style="fill:#ffff00"
         id="path176" />
      <path
         d="m 1109.8295,995.73127 0.3851,-0.0271 3.698,0.18093 -0.4505,0.55351 -0.268,0.26072 -0.5705,0.43929 -0.6352,0.35182 -0.6893,0.25744 -0.7337,0.15768 -0.7697,0.0535 -0.7712,-0.0535 -0.7335,-0.15761 -0.6875,-0.25706 -0.632,-0.35093 -0.5661,-0.43782 -0.2463,-0.23958 -0.4485,-0.54859 2.7667,-0.59673 0.3021,0.17788 0.3277,0.12964 0.3506,0.0794 0.3718,0.0271"
         style="fill:none;stroke:#ffff00;stroke-linecap:round"
         id="path177" />
      <path
         d="m 1109.8295,995.73127 0.3851,-0.0271 3.698,0.18093 -0.4505,0.55351 -0.268,0.26072 -0.5705,0.43929 -0.6352,0.35182 -0.6893,0.25744 -0.7337,0.15768 -0.7697,0.0535 -0.7712,-0.0535 -0.7335,-0.15761 -0.6875,-0.25706 -0.632,-0.35093 -0.5661,-0.43782 -0.2463,-0.23958 -0.4485,-0.54859 2.7667,-0.59673 0.3021,0.17788 0.3277,0.12964 0.3506,0.0794 z"
         style="fill:#ffff00"
         id="path178" />
      <path
         style="fill:none;stroke:#ffff00;stroke-linecap:round"
         d="m 1119.91,997.747 h 8.85"
         id="path179" />
      <path
         style="fill:none;stroke:#ffff00;stroke-linecap:round"
         d="m 1128.76,997.747 v -2.33"
         id="path180" />
      <path
         style="fill:none;stroke:#ffff00;stroke-linecap:round"
         d="m 1128.76,995.417 h -6.25"
         id="path181" />
      <path
         style="fill:none;stroke:#ffff00;stroke-linecap:round"
         d="m 1122.51,995.417 v -3.075"
         id="path182" />
      <path
         style="fill:none;stroke:#ffff00;stroke-linecap:round"
         d="m 1122.51,992.342 h 5.42"
         id="path183" />
      <path
         style="fill:none;stroke:#ffff00;stroke-linecap:round"
         d="m 1127.93,992.342 v -2.331"
         id="path184" />
      <path
         style="fill:none;stroke:#ffff00;stroke-linecap:round"
         d="m 1127.93,990.011 h -5.42"
         id="path185" />
      <path
         style="fill:none;stroke:#ffff00;stroke-linecap:round"
         d="m 1122.51,990.011 v -2.606"
         id="path186" />
      <path
         style="fill:none;stroke:#ffff00;stroke-linecap:round"
         d="m 1122.51,987.405 h 5.6"
         id="path187" />
      <path
         style="fill:none;stroke:#ffff00;stroke-linecap:round"
         d="m 1128.11,987.405 0.87,-2.33"
         id="path188" />
      <path
         style="fill:none;stroke:#ffff00;stroke-linecap:round"
         d="m 1128.98,985.075 h -9.07"
         id="path189" />
      <path
         style="fill:none;stroke:#ffff00;stroke-linecap:round"
         d="m 1119.91,985.075 v 12.672"
         id="path190" />
      <path
         d="m 1119.9101,997.74657 v -12.6716 h 9.0707 l -0.8686,2.32978 h -5.5991 v 2.60649 h 5.4137 v 2.33047 h -5.4137 v 3.07531 h 6.2468 v 2.32955 h -8.8498"
         style="fill:none;stroke:#ffff00;stroke-linecap:round"
         id="path191" />
      <path
         d="m 1119.9101,997.74657 v -12.6716 h 9.0707 l -0.8686,2.32978 h -5.5991 v 2.60649 h 5.4137 v 2.33047 h -5.4137 v 3.07531 h 6.2468 v 2.32955 z"
         style="fill:#ffff00"
         id="path192" />
      <path
         style="fill:none;stroke:#ffff00;stroke-linecap:round"
         d="M 1133.04,997.755 V 985.083"
         id="path193" />
      <path
         style="fill:none;stroke:#ffff00;stroke-linecap:round"
         d="m 1133.04,985.083 h -2.58"
         id="path194" />
      <path
         style="fill:none;stroke:#ffff00;stroke-linecap:round"
         d="m 1130.46,985.083 v 12.672"
         id="path195" />
      <path
         style="fill:none;stroke:#ffff00;stroke-linecap:round"
         d="m 1130.46,997.755 h 2.58"
         id="path196" />
      <path
         style="fill:none;stroke:#ffff00;stroke-linecap:round"
         d="m 1133.04,997.755 h -2.58 v -12.672 z"
         id="path197" />
      <path
         d="m 1139.0086,988.46825 c -2.6538,0 -4.5075,2.14275 -4.5075,4.76268 0,2.80741 2.0234,4.72885 4.762,4.72885 1.6495,0 2.8753,-0.64635 3.7256,-1.70012 0,0 -1.48,-1.31054 -1.48,-1.31054 -0.7145,0.66396 -1.3439,0.93557 -2.2111,0.93557 -1.1569,0 -1.9564,-0.61228 -2.2281,-1.78586 0,0 6.3446,0 6.3446,0 0.016,-0.23893 0.033,-0.42526 0.033,-0.66419 0,-2.60232 -1.3949,-4.96639 -4.4389,-4.96639"
         style="fill:none;stroke:#ffff00;stroke-linecap:round"
         id="path198" />
      <path
         d="m 1137.0348,992.48284 c 0.2032,-1.17358 0.9022,-1.93835 1.9738,-1.93835 1.0876,0 1.7689,0.78146 1.9219,1.93835 0,0 -3.8957,0 -3.8957,0"
         style="fill:none;stroke:#ffff00;stroke-linecap:round"
         id="path199" />
      <path
         d="m 1138.3116,988.51921 0.697,-0.051 0.7435,0.0503 0.6724,0.14573 0.6033,0.23375 0.5393,0.31736 0.4779,0.39922 0.4168,0.48129 0.353,0.56425 0.2834,0.64698 0.2056,0.72633 0.1181,0.79696 -2.4914,-0.34761 -0.01,-0.0624 -0.066,-0.32488 -0.093,-0.29358 -0.117,-0.26184 -0.1388,-0.23032 -0.1588,-0.19942 -0.1776,-0.16925 -0.1956,-0.13968 -0.2137,-0.11027 -0.2323,-0.0804 -0.251,-0.0494 -0.2699,-0.0169 -3.8875,0.2112 0.3781,-0.57869 0.4512,-0.50447 0.5147,-0.4229 0.5698,-0.33588 0.6174,-0.24471 0.6593,-0.14983"
         style="fill:none;stroke:#ffff00;stroke-linecap:round"
         id="path200" />
      <path
         d="m 1138.3116,988.51921 0.697,-0.051 0.7435,0.0503 0.6724,0.14573 0.6033,0.23375 0.5393,0.31736 0.4779,0.39922 0.4168,0.48129 0.353,0.56425 0.2834,0.64698 0.2056,0.72633 0.1181,0.79696 -2.4914,-0.34761 -0.01,-0.0624 -0.066,-0.32488 -0.093,-0.29358 -0.117,-0.26184 -0.1388,-0.23032 -0.1588,-0.19942 -0.1776,-0.16925 -0.1956,-0.13968 -0.2137,-0.11027 -0.2323,-0.0804 -0.251,-0.0494 -0.2699,-0.0169 -3.8875,0.2112 0.3781,-0.57869 0.4512,-0.50447 0.5147,-0.4229 0.5698,-0.33588 0.6174,-0.24471 z"
         style="fill:#ffff00"
         id="path201" />
      <path
         d="m 1138.2538,990.6919 -0.2164,0.1112 -3.2118,0.59589 0.2955,-0.6433 3.8875,-0.2112 -0.2694,0.0169 -0.2514,0.0496 -0.234,0.0809"
         style="fill:none;stroke:#ffff00;stroke-linecap:round"
         id="path202" />
      <path
         d="m 1138.2538,990.6919 -0.2164,0.1112 -3.2118,0.59589 0.2955,-0.6433 3.8875,-0.2112 -0.2694,0.0169 -0.2514,0.0496 z"
         style="fill:#ffff00"
         id="path203" />
      <path
         d="m 1137.4902,991.31922 -0.1463,0.23539 -0.1257,0.26864 -2.6659,0.66134 0.1515,-0.7162 0.1218,-0.3694 3.2118,-0.59589 -0.1996,0.14129 -0.1826,0.17176 -0.165,0.20307"
         style="fill:none;stroke:#ffff00;stroke-linecap:round"
         id="path204" />
      <path
         d="m 1137.4902,991.31922 -0.1463,0.23539 -0.1257,0.26864 -2.6659,0.66134 0.1515,-0.7162 0.1218,-0.3694 3.2118,-0.59589 -0.1996,0.14129 -0.1826,0.17176 z"
         style="fill:#ffff00"
         id="path205" />
      <path
         d="m 1140.9305,992.48284 2.4914,0.34761 0.026,0.60419 -0.028,0.59399 -6.3495,0.0702 -2.3678,0.59656 -0.1495,-0.70731 -0.051,-0.75715 0.051,-0.74634 2.6659,-0.66134 -0.1028,0.30248 -0.077,0.33632 v 0.0208 h 0.8415 1.6829 1.2622 0.1091"
         style="fill:none;stroke:#ffff00;stroke-linecap:round"
         id="path206" />
      <path
         d="m 1140.9305,992.48284 2.4914,0.34761 0.026,0.60419 -0.028,0.59399 -6.3495,0.0702 -2.3678,0.59656 -0.1495,-0.70731 -0.051,-0.75715 0.051,-0.74634 2.6659,-0.66134 -0.1028,0.30248 -0.077,0.33632 v 0.0208 h 0.8415 1.6829 1.2622 z"
         style="fill:#ffff00"
         id="path207" />
      <path
         style="fill:none;stroke:#ffff00;stroke-linecap:round"
         d="m 1137.07,994.099 6.35,-0.07 -0.01,0.07 z"
         id="path208" />
      <path
         d="m 1137.2383,994.61558 0.238,0.42123 0.3036,0.33531 -2.5068,0.56986 -0.3293,-0.59366 -0.2421,-0.65293 2.3678,-0.59656 0.1688,0.51675"
         style="fill:none;stroke:#ffff00;stroke-linecap:round"
         id="path209" />
      <path
         d="m 1137.2383,994.61558 0.238,0.42123 0.3036,0.33531 -2.5068,0.56986 -0.3293,-0.59366 -0.2421,-0.65293 2.3678,-0.59656 z"
         style="fill:#ffff00"
         id="path210" />
      <path
         d="m 1139.2976,995.88469 0.5669,-0.045 0.5062,-0.13761 0.4782,-0.23867 0.4939,-0.36592 0.1659,-0.1484 1.4385,1.27385 -7.2627,0.24812 -0.4114,-0.52911 2.5068,-0.56986 0.3671,0.25229 0.4313,0.16937 0.5026,0.0835 0.2167,0.007"
         style="fill:none;stroke:#ffff00;stroke-linecap:round"
         id="path211" />
      <path
         d="m 1139.2976,995.88469 0.5669,-0.045 0.5062,-0.13761 0.4782,-0.23867 0.4939,-0.36592 0.1659,-0.1484 1.4385,1.27385 -7.2627,0.24812 -0.4114,-0.52911 2.5068,-0.56986 0.3671,0.25229 0.4313,0.16937 0.5026,0.0835 z"
         style="fill:#ffff00"
         id="path212" />
      <path
         d="m 1142.9613,996.29325 -0.4746,0.49997 -0.5267,0.41016 -0.581,0.32325 -0.64,0.23647 -0.3442,0.0848 -1.6263,0.0905 -0.7324,-0.11557 -0.6816,-0.21072 -0.6234,-0.29975 -0.5588,-0.38245 -0.4878,-0.45884 7.2627,-0.24812 0.042,0.0367 -0.027,0.0336"
         style="fill:none;stroke:#ffff00;stroke-linecap:round"
         id="path213" />
      <path
         d="m 1142.9613,996.29325 -0.4746,0.49997 -0.5267,0.41016 -0.581,0.32325 -0.64,0.23647 -0.3442,0.0848 -1.6263,0.0905 -0.7324,-0.11557 -0.6816,-0.21072 -0.6234,-0.29975 -0.5588,-0.38245 -0.4878,-0.45884 7.2627,-0.24812 0.042,0.0367 z"
         style="fill:#ffff00"
         id="path214" />
      <path
         style="fill:none;stroke:#ffff00;stroke-linecap:round"
         d="m 1140.03,997.91 -0.77,0.05 -0.49,-0.022 z"
         id="path215" />
      <path
         d="m 1152.8443,996.56071 c -0.017,0.0162 -0.033,0.0327 -0.049,0.0482 -0.052,0.0507 -0.1041,0.10081 -0.1576,0.14878 -0.7889,0.72051 -1.75,1.20209 -3.2631,1.20209 -2.7388,0 -4.7457,-2.10892 -4.7457,-4.72885 0,-2.61993 1.99,-4.76268 4.7796,-4.76268 1.527,0 2.5437,0.45747 3.3478,1.22781 0,0 -0.812,2.15086 -0.812,2.15086 -0.5787,-0.7066 -1.3692,-1.23151 -2.5527,-1.14994 -1.29,0.0888 -2.2121,1.13928 -2.2121,2.50012 0,1.41204 1.0197,2.53464 2.3143,2.53464 1.2064,0 2.1133,-0.68042 2.5703,-1.2635 0,0 0.7801,2.09247 0.7801,2.09247"
         style="fill:none;stroke:#ffff00;stroke-linecap:round"
         id="path216" />
      <path
         d="m 1148.6853,988.51776 0.7233,-0.0495 0.8048,0.047 0.7024,0.13537 0.6205,0.21823 0.5549,0.29894 0.5114,0.38709 0.1538,0.14116 -0.812,2.15086 -0.1568,-0.1809 -0.4087,-0.38092 -0.433,-0.28244 -0.4673,-0.19255 -0.5135,-0.10391 -0.5734,-0.009 -4.0506,-0.0226 0.4007,-0.55336 0.4748,-0.48503 0.54,-0.40866 0.5965,-0.32584 0.6451,-0.23795 0.6871,-0.14576"
         style="fill:none;stroke:#ffff00;stroke-linecap:round"
         id="path217" />
      <path
         d="m 1148.6853,988.51776 0.7233,-0.0495 0.8048,0.047 0.7024,0.13537 0.6205,0.21823 0.5549,0.29894 0.5114,0.38709 0.1538,0.14116 -0.812,2.15086 -0.1568,-0.1809 -0.4087,-0.38092 -0.433,-0.28244 -0.4673,-0.19255 -0.5135,-0.10391 -0.5734,-0.009 -4.0506,-0.0226 0.4007,-0.55336 0.4748,-0.48503 0.54,-0.40866 0.5965,-0.32584 0.6451,-0.23795 z"
         style="fill:#ffff00"
         id="path218" />
      <path
         d="m 1148.4589,990.95549 -0.3967,0.26265 -3.236,0.61683 0.2417,-0.64951 0.2732,-0.5111 4.0506,0.0226 -0.4867,0.0829 -0.4461,0.1756"
         style="fill:none;stroke:#ffff00;stroke-linecap:round"
         id="path219" />
      <path
         d="m 1148.4589,990.95549 -0.3967,0.26265 -3.236,0.61683 0.2417,-0.64951 0.2732,-0.5111 4.0506,0.0226 -0.4867,0.0829 z"
         style="fill:#ffff00"
         id="path220" />
      <path
         d="m 1147.7255,991.56111 -0.265,0.4145 -2.7818,0.54463 0.1475,-0.68527 3.236,-0.61683 -0.3367,0.34297"
         style="fill:none;stroke:#ffff00;stroke-linecap:round"
         id="path221" />
      <path
         d="m 1147.7255,991.56111 -0.265,0.4145 -2.7818,0.54463 0.1475,-0.68527 3.236,-0.61683 z"
         style="fill:#ffff00"
         id="path222" />
      <path
         d="m 1147.3729,992.16912 -0.144,0.49409 -2.5999,0.56772 0.05,-0.71069 2.7818,-0.54463 -0.088,0.19351"
         style="fill:none;stroke:#ffff00;stroke-linecap:round"
         id="path223" />
      <path
         d="m 1147.3729,992.16912 -0.144,0.49409 -2.5999,0.56772 0.05,-0.71069 2.7818,-0.54463 z"
         style="fill:#ffff00"
         id="path224" />
      <path
         d="m 1147.1796,993.1971 0.049,0.52906 0.1445,0.49864 0.2335,0.45217 -2.5394,0.58698 -0.2414,-0.64517 -0.1472,-0.6809 -0.05,-0.70695 2.5999,-0.56772 -0.049,0.53389"
         style="fill:none;stroke:#ffff00;stroke-linecap:round"
         id="path225" />
      <path
         d="m 1147.1796,993.1971 0.049,0.52906 0.1445,0.49864 0.2335,0.45217 -2.5394,0.58698 -0.2414,-0.64517 -0.1472,-0.6809 -0.05,-0.70695 2.5999,-0.56772 z"
         style="fill:#ffff00"
         id="path226" />
      <path
         d="m 1147.8321,994.97261 0.3563,0.32626 -2.7903,0.56393 -0.3308,-0.59885 2.5394,-0.58698 0.2254,0.29564"
         style="fill:none;stroke:#ffff00;stroke-linecap:round"
         id="path227" />
      <path
         d="m 1147.8321,994.97261 0.3563,0.32626 -2.7903,0.56393 -0.3308,-0.59885 2.5394,-0.58698 z"
         style="fill:#ffff00"
         id="path228" />
      <path
         d="m 1149.4939,995.73174 0.5474,-0.0476 0.5276,-0.14083 0.5034,-0.23147 0.4668,-0.31639 0.4048,-0.38346 0.1203,-0.14371 0.7801,2.09247 -6.6471,0.22773 -0.4732,-0.48619 -0.3259,-0.43945 2.7903,-0.56393 0.4043,0.23839 0.4385,0.14534 0.4627,0.0491"
         style="fill:none;stroke:#ffff00;stroke-linecap:round"
         id="path229" />
      <path
         d="m 1149.4939,995.73174 0.5474,-0.0476 0.5276,-0.14083 0.5034,-0.23147 0.4668,-0.31639 0.4048,-0.38346 0.1203,-0.14371 0.7801,2.09247 -6.6471,0.22773 -0.4732,-0.48619 -0.3259,-0.43945 2.7903,-0.56393 0.4043,0.23839 0.4385,0.14534 z"
         style="fill:#ffff00"
         id="path230" />
      <path
         d="m 1152.6378,996.75769 -0.1097,0.0976 -0.5255,0.39768 -0.5517,0.30239 -0.6054,0.2193 -0.686,0.13732 -0.7848,0.0478 -0.7168,-0.0495 -0.6832,-0.14605 -0.6431,-0.23869 -0.5954,-0.32704 -0.539,-0.41003 6.6471,-0.22773 -0.049,0.0482 -0.1576,0.14878"
         style="fill:none;stroke:#ffff00;stroke-linecap:round"
         id="path231" />
      <path
         d="m 1152.6378,996.75769 -0.1097,0.0976 -0.5255,0.39768 -0.5517,0.30239 -0.6054,0.2193 -0.686,0.13732 -0.7848,0.0478 -0.7168,-0.0495 -0.6832,-0.14605 -0.6431,-0.23869 -0.5954,-0.32704 -0.539,-0.41003 6.6471,-0.22773 -0.049,0.0482 z"
         style="fill:#ffff00"
         id="path232" />
      <path
         d="m 1156.8317,988.63951 c 0,0 0,-2.33116 0,-2.33116 0,0 -2.5865,0 -2.5865,0 0,0 0,8.86209 0,8.86209 0,2.11008 1.0723,2.73905 2.6544,2.73905 0.8673,0 1.4964,-0.20556 2.0415,-0.52723 0,0 0,-2.07509 0,-2.07509 -0.3745,0.20325 -0.8009,0.32237 -1.2758,0.32237 -0.5791,0 -0.8336,-0.28946 -0.8336,-0.88413 0,0 0,-3.89478 0,-3.89478 0,0 1.671,0 1.671,0 0,0 0.8241,-2.21112 0.8241,-2.21112 0,0 -2.4951,0 -2.4951,0"
         style="fill:none;stroke:#ffff00;stroke-linecap:round"
         id="path233" />
      <path
         d="m 1156.8317,988.63951 h 2.4951 l -0.8241,2.21112 h -1.671 v 3.89478 l 0.024,0.28684 0.092,0.26431 0.1597,0.18311 0.2317,0.11061 0.3255,0.0393 0.5156,-0.0488 0.4844,-0.14336 0.2758,-0.13021 v 2.07509 l -0.2206,0.1211 -0.5376,0.22112 -0.594,0.13666 -0.3314,0.036 -0.3579,0.0123 -0.2434,-0.005 -0.5976,-0.0684 -0.482,-0.13913 -0.3924,-0.20523 -0.3206,-0.27457 -0.1371,-0.16718 -0.1211,-0.18856 -0.1922,-0.44476 -0.1234,-0.55426 -0.045,-0.69173 v -8.86209 h 2.5865 v 2.33116"
         style="fill:none;stroke:#ffff00;stroke-linecap:round"
         id="path234" />
      <path
         d="m 1156.8317,988.63951 h 2.4951 l -0.8241,2.21112 h -1.671 v 3.89478 l 0.024,0.28684 0.092,0.26431 0.1597,0.18311 0.2317,0.11061 0.3255,0.0393 0.5156,-0.0488 0.4844,-0.14336 0.2758,-0.13021 v 2.07509 l -0.2206,0.1211 -0.5376,0.22112 -0.594,0.13666 -0.3314,0.036 -0.3579,0.0123 -0.2434,-0.005 -0.5976,-0.0684 -0.482,-0.13913 -0.3924,-0.20523 -0.3206,-0.27457 -0.1371,-0.16718 -0.1211,-0.18856 -0.1922,-0.44476 -0.1234,-0.55426 -0.045,-0.69173 v -8.86209 h 2.5865 z"
         style="fill:#ffff00"
         id="path235" />
      <path
         d="m 1163.3541,990.47775 c 0,0 0,-1.83638 0,-1.83638 0,0 -2.5854,0 -2.5854,0 0,0 0,9.114 0,9.114 0,0 2.5854,0 2.5854,0 0,0 0,-3.36616 0,-3.36616 0,-2.17798 1.0538,-3.21436 2.7703,-3.21436 0,0 0.137,0 0.137,0 0,0 0,-2.70475 0,-2.70475 -1.53,-0.0679 -2.3812,0.74948 -2.9073,2.00765"
         style="fill:none;stroke:#ffff00;stroke-linecap:round"
         id="path236" />
      <path
         d="m 1163.3541,990.47775 0.088,-0.19923 0.2863,-0.52541 0.3147,-0.41736 0.3468,-0.3272 0.3858,-0.24838 0.4346,-0.17451 0.4925,-0.0986 0.5588,-0.0169 v 2.62902 0.0757 h -0.1331 v 0 l -0.147,0.003 -0.5414,0.0601 -0.4689,0.13338 -0.4048,0.20178 -0.3476,0.26998 -0.2926,0.34082 -0.2359,0.41456 -0.1777,0.49763 -0.1138,0.5926 -0.041,0.70092 v 3.27191 0.0942 h -2.513 -0.072 v -8.85881 -0.25519 h 2.513 0.072 v 1.78496 0.0514"
         style="fill:none;stroke:#ffff00;stroke-linecap:round"
         id="path237" />
      <path
         d="m 1163.3541,990.47775 0.088,-0.19923 0.2863,-0.52541 0.3147,-0.41736 0.3468,-0.3272 0.3858,-0.24838 0.4346,-0.17451 0.4925,-0.0986 0.5588,-0.0169 v 2.62902 0.0757 h -0.1331 v 0 l -0.147,0.003 -0.5414,0.0601 -0.4689,0.13338 -0.4048,0.20178 -0.3476,0.26998 -0.2926,0.34082 -0.2359,0.41456 -0.1777,0.49763 -0.1138,0.5926 -0.041,0.70092 v 3.27191 0.0942 h -2.513 -0.072 v -8.85881 -0.25519 h 2.513 0.072 v 1.78496 z"
         style="fill:#ffff00"
         id="path238" />
      <path
         d="m 1171.7953,988.46825 c -2.8398,0 -4.949,2.12676 -4.949,4.76268 0,2.63615 2.0923,4.72885 4.9152,4.72885 2.8408,0 4.9499,-2.12584 4.9499,-4.76269 0,-2.63684 -2.092,-4.72884 -4.9161,-4.72884"
         style="fill:none;stroke:#ffff00;stroke-linecap:round"
         id="path239" />
      <path
         d="m 1171.7953,995.73174 c -1.4287,0 -2.3986,-1.15736 -2.3986,-2.53465 0,-1.36083 0.8858,-2.50011 2.3648,-2.50011 1.4294,0 2.3977,1.1562 2.3977,2.53395 0,1.3613 -0.8837,2.50081 -2.3639,2.50081"
         style="fill:none;stroke:#ffff00;stroke-linecap:round"
         id="path240" />
      <path
         style="fill:none;stroke:#ffff00;stroke-linecap:round"
         d="m 1171.8,988.468 0.77,0.054 -2.28,0.157 z"
         id="path241" />
      <path
         d="m 1173.3,988.67936 0.6876,0.25707 0.6321,0.35095 0.5662,0.43784 0.2465,0.23975 0.4485,0.54859 0.3575,0.60842 0.2605,0.65691 0.1589,0.69482 0.054,0.72339 -0.054,0.72133 -0.1591,0.69534 -0.2613,0.65953 -0.359,0.61253 -3.6979,-0.18115 0.3555,-0.0787 0.3259,-0.12723 0.2956,-0.17347 0.2639,-0.21789 0.2298,-0.26059 0.1922,-0.30114 0.1506,-0.33849 0.1043,-0.37125 0.054,-0.39786 0.01,-0.20716 -0.027,-0.39656 -0.081,-0.38158 -0.067,-0.20133 -0.1575,-0.34191 -0.2011,-0.30722 -0.2394,-0.26747 -0.2729,-0.22398 -0.302,-0.17782 -0.3276,-0.12959 -0.3508,-0.0794 -0.3719,-0.027 -0.385,0.027 -4.0561,0.43096 0.3591,-0.61262 0.4505,-0.55362 0.2679,-0.26063 0.5705,-0.43938 0.6351,-0.35188 0.6891,-0.25746 2.2738,-0.15765 0.7336,0.15761"
         style="fill:none;stroke:#ffff00;stroke-linecap:round"
         id="path242" />
      <path
         d="m 1173.3,988.67936 0.6876,0.25707 0.6321,0.35095 0.5662,0.43784 0.2465,0.23975 0.4485,0.54859 0.3575,0.60842 0.2605,0.65691 0.1589,0.69482 0.054,0.72339 -0.054,0.72133 -0.1591,0.69534 -0.2613,0.65953 -0.359,0.61253 -3.6979,-0.18115 0.3555,-0.0787 0.3259,-0.12723 0.2956,-0.17347 0.2639,-0.21789 0.2298,-0.26059 0.1922,-0.30114 0.1506,-0.33849 0.1043,-0.37125 0.054,-0.39786 0.01,-0.20716 -0.027,-0.39656 -0.081,-0.38158 -0.067,-0.20133 -0.1575,-0.34191 -0.2011,-0.30722 -0.2394,-0.26747 -0.2729,-0.22398 -0.302,-0.17782 -0.3276,-0.12959 -0.3508,-0.0794 -0.3719,-0.027 -0.385,0.027 -4.0561,0.43096 0.3591,-0.61262 0.4505,-0.55362 0.2679,-0.26063 0.5705,-0.43938 0.6351,-0.35188 0.6891,-0.25746 2.2738,-0.15765 z"
         style="fill:#ffff00"
         id="path243" />
      <path
         d="m 1170.3992,991.10356 -0.2641,0.218 -3.076,0.49299 0.2613,-0.65956 4.0561,-0.43096 -0.3555,0.0787 -0.326,0.12728 -0.2958,0.17355"
         style="fill:none;stroke:#ffff00;stroke-linecap:round"
         id="path244" />
      <path
         d="m 1170.3992,991.10356 -0.2641,0.218 -3.076,0.49299 0.2613,-0.65956 4.0561,-0.43096 -0.3555,0.0787 -0.326,0.12728 z"
         style="fill:#ffff00"
         id="path245" />
      <path
         d="m 1169.9051,991.58226 -0.1924,0.30119 -2.8127,0.62636 0.1591,-0.69526 3.076,-0.49299 -0.23,0.2607"
         style="fill:none;stroke:#ffff00;stroke-linecap:round"
         id="path246" />
      <path
         d="m 1169.9051,991.58226 -0.1924,0.30119 -2.8127,0.62636 0.1591,-0.69526 3.076,-0.49299 z"
         style="fill:#ffff00"
         id="path247" />
      <path
         d="m 1169.562,992.2219 -0.1045,0.37105 -2.6112,0.63798 0.054,-0.72112 2.8127,-0.62636 -0.1507,0.33845"
         style="fill:none;stroke:#ffff00;stroke-linecap:round"
         id="path248" />
      <path
         d="m 1169.562,992.2219 -0.1045,0.37105 -2.6112,0.63798 0.054,-0.72112 2.8127,-0.62636 z"
         style="fill:#ffff00"
         id="path249" />
      <path
         d="m 1169.3967,993.1971 0.027,0.39614 0.081,0.38137 -2.4459,0.67424 -0.1588,-0.69473 -0.054,-0.72319 2.6112,-0.63798 -0.054,0.39749 -0.01,0.20666"
         style="fill:none;stroke:#ffff00;stroke-linecap:round"
         id="path250" />
      <path
         d="m 1169.3967,993.1971 0.027,0.39614 0.081,0.38137 -2.4459,0.67424 -0.1588,-0.69473 -0.054,-0.72319 2.6112,-0.63798 -0.054,0.39749 z"
         style="fill:#ffff00"
         id="path251" />
      <path
         d="m 1169.7292,994.51855 0.2013,0.30737 -2.6111,0.47985 -0.2606,-0.65692 2.4459,-0.67424 0.067,0.20194 0.1577,0.342"
         style="fill:none;stroke:#ffff00;stroke-linecap:round"
         id="path252" />
      <path
         d="m 1169.7292,994.51855 0.2013,0.30737 -2.6111,0.47985 -0.2606,-0.65692 2.4459,-0.67424 0.067,0.20194 z"
         style="fill:#ffff00"
         id="path253" />
      <path
         d="m 1170.1702,995.09356 0.2731,0.22412 -2.7663,0.59659 -0.3576,-0.6085 2.6111,-0.47985 0.2397,0.26764"
         style="fill:none;stroke:#ffff00;stroke-linecap:round"
         id="path254" />
      <path
         d="m 1170.1702,995.09356 0.2731,0.22412 -2.7663,0.59659 -0.3576,-0.6085 2.6111,-0.47985 z"
         style="fill:#ffff00"
         id="path255" />
      <path
         d="m 1171.7953,995.73174 0.3852,-0.0271 3.6979,0.18115 -0.4505,0.55351 -0.268,0.26075 -0.5705,0.43929 -0.6352,0.35181 -0.6892,0.25744 -0.7337,0.15767 -0.7698,0.0535 -0.7707,-0.0535 -0.7333,-0.15762 -0.6874,-0.25711 -0.632,-0.35101 -0.5662,-0.43794 -0.2463,-0.23963 -0.4486,-0.5487 2.7663,-0.59659 0.3021,0.17792 0.3277,0.12964 0.3506,0.0794 0.3716,0.0271"
         style="fill:none;stroke:#ffff00;stroke-linecap:round"
         id="path256" />
      <path
         d="m 1171.7953,995.73174 0.3852,-0.0271 3.6979,0.18115 -0.4505,0.55351 -0.268,0.26075 -0.5705,0.43929 -0.6352,0.35181 -0.6892,0.25744 -0.7337,0.15767 -0.7698,0.0535 -0.7707,-0.0535 -0.7333,-0.15762 -0.6874,-0.25711 -0.632,-0.35101 -0.5662,-0.43794 -0.2463,-0.23963 -0.4486,-0.5487 2.7663,-0.59659 0.3021,0.17792 0.3277,0.12964 0.3506,0.0794 z"
         style="fill:#ffff00"
         id="path257" />
      <path
         d="m 1183.26,988.46825 c -1.3094,0 -2.0744,0.69803 -2.6695,1.46234 0,0 0,-1.29108 0,-1.29108 0,0 -2.5854,0 -2.5854,0 0,0 0,9.11586 0,9.11586 0,0 2.5854,0 2.5854,0 0,0 0,-5.08504 0,-5.08504 0,-1.22572 0.6289,-1.85423 1.6159,-1.85423 0.9871,0 1.5646,0.62851 1.5646,1.85423 0,0 0,5.08504 0,5.08504 0,0 2.5854,0 2.5854,0 0,0 0,-5.90219 0,-5.90219 0,-2.09246 -1.14,-3.38493 -3.0964,-3.38493"
         style="fill:none;stroke:#ffff00;stroke-linecap:round"
         id="path258" />
      <path
         d="m 1183.26,988.46825 0.6196,0.0469 0.5471,0.13465 0.4793,0.21585 0.2157,0.1375 0.1994,0.15664 0.3488,0.36889 0.2826,0.44487 0.2134,0.52456 0.1377,0.60876 0.053,0.69685 2e-4,0.0495 v 5.90219 h -2.5854 v -5.08504 l -0.018,-0.35749 -0.094,-0.47039 -0.163,-0.36888 -0.2259,-0.28308 -0.288,-0.20431 -0.351,-0.12585 -0.4246,-0.0442 -0.2946,0.0202 -0.3838,0.10099 -0.3184,0.17975 -0.1369,0.11978 -0.1212,0.13962 -0.1925,0.33835 -0.1239,0.42689 -0.045,0.52868 v 5.08504 h -2.5854 v -9.11586 h 2.5854 v 1.29108 l 0.2724,-0.32824 0.4241,-0.41705 0.4339,-0.31138 0.4626,-0.22155 0.5073,-0.13649 0.5692,-0.0476"
         style="fill:none;stroke:#ffff00;stroke-linecap:round"
         id="path259" />
      <path
         d="m 1183.26,988.46825 0.6196,0.0469 0.5471,0.13465 0.4793,0.21585 0.2157,0.1375 0.1994,0.15664 0.3488,0.36889 0.2826,0.44487 0.2134,0.52456 0.1377,0.60876 0.053,0.69685 2e-4,0.0495 v 5.90219 h -2.5854 v -5.08504 l -0.018,-0.35749 -0.094,-0.47039 -0.163,-0.36888 -0.2259,-0.28308 -0.288,-0.20431 -0.351,-0.12585 -0.4246,-0.0442 -0.2946,0.0202 -0.3838,0.10099 -0.3184,0.17975 -0.1369,0.11978 -0.1212,0.13962 -0.1925,0.33835 -0.1239,0.42689 -0.045,0.52868 v 5.08504 h -2.5854 v -9.11586 h 2.5854 v 1.29108 l 0.2724,-0.32824 0.4241,-0.41705 0.4339,-0.31138 0.4626,-0.22155 0.5073,-0.13649 z"
         style="fill:#ffff00"
         id="path260" />
      <path
         style="fill:none;stroke:#ffff00;stroke-linecap:round"
         d="M 1190.58,997.755 V 988.64"
         id="path261" />
      <path
         style="fill:none;stroke:#ffff00;stroke-linecap:round"
         d="m 1190.58,988.64 h -2.59"
         id="path262" />
      <path
         style="fill:none;stroke:#ffff00;stroke-linecap:round"
         d="m 1187.99,988.64 v 9.115"
         id="path263" />
      <path
         style="fill:none;stroke:#ffff00;stroke-linecap:round"
         d="m 1187.99,997.755 h 2.59"
         id="path264" />
      <path
         style="fill:none;stroke:#ffff00;stroke-linecap:round"
         d="m 1190.58,997.755 h -2.59 v -9.115 z"
         id="path265" />
      <path
         style="fill:none;stroke:#ffff00;stroke-linecap:round"
         d="m 1190.65,987.635 v -2.297"
         id="path266" />
      <path
         style="fill:none;stroke:#ffff00;stroke-linecap:round"
         d="m 1190.65,985.338 h -2.72"
         id="path267" />
      <path
         style="fill:none;stroke:#ffff00;stroke-linecap:round"
         d="m 1187.93,985.338 v 2.297"
         id="path268" />
      <path
         style="fill:none;stroke:#ffff00;stroke-linecap:round"
         d="m 1187.93,987.635 h 2.72"
         id="path269" />
      <path
         style="fill:none;stroke:#ffff00;stroke-linecap:round"
         d="m 1190.65,987.635 h -2.72 v -2.297 z"
         id="path270" />
      <path
         d="m 1200.1038,996.56071 c -0.017,0.0162 -0.033,0.0327 -0.05,0.0482 -0.052,0.0507 -0.1041,0.10081 -0.1569,0.14878 -0.7894,0.72051 -1.75,1.20209 -3.2638,1.20209 -2.7378,0 -4.745,-2.10892 -4.745,-4.72885 0,-2.61993 1.9902,-4.76268 4.7789,-4.76268 1.5274,0 2.5446,0.45747 3.3485,1.22781 0,0 -0.8127,2.15086 -0.8127,2.15086 -0.5782,-0.7066 -1.369,-1.23151 -2.5527,-1.14994 -1.2893,0.0888 -2.2112,1.13928 -2.2112,2.50012 0,1.41204 1.0197,2.53464 2.3138,2.53464 1.2065,0 2.114,-0.68042 2.5706,-1.2635 0,0 0.7801,2.09247 0.7801,2.09247"
         style="fill:none;stroke:#ffff00;stroke-linecap:round"
         id="path271" />
      <path
         d="m 1195.9443,988.51776 0.7231,-0.0495 0.8051,0.047 0.7026,0.13536 0.6206,0.21822 0.5549,0.29888 0.5113,0.38694 0.154,0.14139 -0.8127,2.15086 -0.1569,-0.18115 -0.4084,-0.38074 -0.4329,-0.28239 -0.4674,-0.19253 -0.5136,-0.10391 -0.5735,-0.009 -4.05,-0.0224 0.4006,-0.55342 0.4748,-0.48511 0.54,-0.4087 0.5964,-0.32589 0.6451,-0.23797 0.6869,-0.14576"
         style="fill:none;stroke:#ffff00;stroke-linecap:round"
         id="path272" />
      <path
         d="m 1195.9443,988.51776 0.7231,-0.0495 0.8051,0.047 0.7026,0.13536 0.6206,0.21822 0.5549,0.29888 0.5113,0.38694 0.154,0.14139 -0.8127,2.15086 -0.1569,-0.18115 -0.4084,-0.38074 -0.4329,-0.28239 -0.4674,-0.19253 -0.5136,-0.10391 -0.5735,-0.009 -4.05,-0.0224 0.4006,-0.55342 0.4748,-0.48511 0.54,-0.4087 0.5964,-0.32589 0.6451,-0.23797 z"
         style="fill:#ffff00"
         id="path273" />
      <path
         d="m 1195.7181,990.9555 -0.3965,0.26268 -3.2359,0.61684 0.2417,-0.64952 0.2731,-0.51089 4.05,0.0224 -0.4865,0.0829 -0.4459,0.17561"
         style="fill:none;stroke:#ffff00;stroke-linecap:round"
         id="path274" />
      <path
         d="m 1195.7181,990.9555 -0.3965,0.26268 -3.2359,0.61684 0.2417,-0.64952 0.2731,-0.51089 4.05,0.0224 -0.4865,0.0829 z"
         style="fill:#ffff00"
         id="path275" />
      <path
         d="m 1194.985,991.56122 -0.265,0.41459 -2.7818,0.54447 0.1475,-0.68526 3.2359,-0.61684 -0.3366,0.34304"
         style="fill:none;stroke:#ffff00;stroke-linecap:round"
         id="path276" />
      <path
         d="m 1194.985,991.56122 -0.265,0.41459 -2.7818,0.54447 0.1475,-0.68526 3.2359,-0.61684 z"
         style="fill:#ffff00"
         id="path277" />
      <path
         d="m 1194.6327,992.16899 -0.1441,0.49415 -2.6001,0.56779 0.05,-0.71065 2.7818,-0.54447 -0.087,0.19318"
         style="fill:none;stroke:#ffff00;stroke-linecap:round"
         id="path278" />
      <path
         d="m 1194.6327,992.16899 -0.1441,0.49415 -2.6001,0.56779 0.05,-0.71065 2.7818,-0.54447 z"
         style="fill:#ffff00"
         id="path279" />
      <path
         d="m 1194.4393,993.1971 0.049,0.52907 0.1445,0.49865 0.2335,0.45219 -2.5396,0.58689 -0.2414,-0.64518 -0.1472,-0.68088 -0.05,-0.70691 2.6001,-0.56779 -0.049,0.53396"
         style="fill:none;stroke:#ffff00;stroke-linecap:round"
         id="path280" />
      <path
         d="m 1194.4393,993.1971 0.049,0.52907 0.1445,0.49865 0.2335,0.45219 -2.5396,0.58689 -0.2414,-0.64518 -0.1472,-0.68088 -0.05,-0.70691 2.6001,-0.56779 z"
         style="fill:#ffff00"
         id="path281" />
      <path
         d="m 1195.0917,994.97254 0.3562,0.3263 -2.7903,0.56394 -0.3308,-0.59888 2.5396,-0.58689 0.2253,0.29553"
         style="fill:none;stroke:#ffff00;stroke-linecap:round"
         id="path282" />
      <path
         d="m 1195.0917,994.97254 0.3562,0.3263 -2.7903,0.56394 -0.3308,-0.59888 2.5396,-0.58689 z"
         style="fill:#ffff00"
         id="path283" />
      <path
         d="m 1196.7531,995.73174 0.5475,-0.0476 0.5277,-0.14084 0.5036,-0.23149 0.4668,-0.31636 0.4046,-0.38326 0.1204,-0.14391 0.7801,2.09247 -6.6472,0.22761 -0.4733,-0.48626 -0.3257,-0.43928 2.7903,-0.56394 0.4043,0.23841 0.4385,0.14535 0.4624,0.0491"
         style="fill:none;stroke:#ffff00;stroke-linecap:round"
         id="path284" />
      <path
         d="m 1196.7531,995.73174 0.5475,-0.0476 0.5277,-0.14084 0.5036,-0.23149 0.4668,-0.31636 0.4046,-0.38326 0.1204,-0.14391 0.7801,2.09247 -6.6472,0.22761 -0.4733,-0.48626 -0.3257,-0.43928 2.7903,-0.56394 0.4043,0.23841 0.4385,0.14535 z"
         style="fill:#ffff00"
         id="path285" />
      <path
         d="m 1199.8973,996.75769 -0.1097,0.0976 -0.5259,0.39777 -0.5517,0.30236 -0.6054,0.21927 -0.6861,0.1373 -0.785,0.0478 -0.7166,-0.0495 -0.683,-0.14605 -0.6431,-0.23872 -0.5953,-0.32707 -0.5389,-0.41009 6.6472,-0.22761 -0.05,0.0482 -0.1569,0.14878"
         style="fill:none;stroke:#ffff00;stroke-linecap:round"
         id="path286" />
      <path
         d="m 1199.8973,996.75769 -0.1097,0.0976 -0.5259,0.39777 -0.5517,0.30236 -0.6054,0.21927 -0.6861,0.1373 -0.785,0.0478 -0.7166,-0.0495 -0.683,-0.14605 -0.6431,-0.23872 -0.5953,-0.32707 -0.5389,-0.41009 6.6472,-0.22761 -0.05,0.0482 z"
         style="fill:#ffff00"
         id="path287" />
      <path
         d="m 1207.317,991.36071 c -0.9006,-0.52839 -1.8024,-0.85098 -2.4663,-0.85098 -0.6283,0 -0.952,0.27254 -0.952,0.64612 0,1.22479 4.609,0.81691 4.609,3.79327 0,2.04102 -1.5131,2.96037 -3.4865,2.96037 -1.2755,0 -2.586,-0.33534 -3.7937,-1.28737 0,0 0.7298,-1.9321 0.7298,-1.9321 0.9863,0.84172 2.2813,1.22851 3.1316,1.22851 0.7488,0 1.0892,-0.27138 1.0892,-0.69734 0,-1.29223 -4.6102,-0.59513 -4.6102,-3.79373 0,-1.87045 1.4974,-2.90776 3.3335,-2.90776 1.061,0 2.2079,0.32885 3.1523,0.89548 0,0 -0.7367,1.94553 -0.7367,1.94553"
         style="fill:none;stroke:#ffff00;stroke-linecap:round"
         id="path288" />
      <path
         d="m 1204.9014,988.5197 0.7085,0.0466 0.7444,0.14346 0.2953,0.0832 0.7332,0.27428 0.6709,0.34796 -0.7367,1.94553 -0.6952,-0.36682 -0.7039,-0.28309 -0.593,-0.15474 -0.4742,-0.0463 -3.1033,-0.12761 0.2146,-0.44286 0.2928,-0.39108 0.3698,-0.33783 0.4463,-0.28003 0.5208,-0.21476 0.5896,-0.13999 0.6481,-0.0553 0.072,-5.3e-4"
         style="fill:none;stroke:#ffff00;stroke-linecap:round"
         id="path289" />
      <path
         d="m 1204.9014,988.5197 0.7085,0.0466 0.7444,0.14346 0.2953,0.0832 0.7332,0.27428 0.6709,0.34796 -0.7367,1.94553 -0.6952,-0.36682 -0.7039,-0.28309 -0.593,-0.15474 -0.4742,-0.0463 -3.1033,-0.12761 0.2146,-0.44286 0.2928,-0.39108 0.3698,-0.33783 0.4463,-0.28003 0.5208,-0.21476 0.5896,-0.13999 0.6481,-0.0553 z"
         style="fill:#ffff00"
         id="path290" />
      <path
         d="m 1203.9976,990.83373 -0.055,0.0984 -2.3748,0.49531 0.046,-0.5497 0.1333,-0.49564 2.8673,0.14187 -0.3208,0.0827 -0.2197,0.13932 -0.077,0.0878"
         style="fill:none;stroke:#ffff00;stroke-linecap:round"
         id="path291" />
      <path
         d="m 1203.9976,990.83373 -0.055,0.0984 -2.3748,0.49531 0.046,-0.5497 0.1333,-0.49564 2.8673,0.14187 -0.3208,0.0827 -0.2197,0.13932 z"
         style="fill:#ffff00"
         id="path292" />
      <path
         style="fill:none;stroke:#ffff00;stroke-linecap:round"
         d="m 1204.85,990.51 -0.24,0.014 -2.86,-0.142 z"
         id="path293" />
      <path
         d="m 1203.9444,991.35559 0.1369,0.17881 0.2569,0.17919 -2.7249,0.23592 -0.034,-0.25149 -0.012,-0.27056 2.3748,-0.49531 -0.044,0.2237 0.046,0.19974"
         style="fill:none;stroke:#ffff00;stroke-linecap:round"
         id="path294" />
      <path
         d="m 1203.9444,991.35559 0.1369,0.17881 0.2569,0.17919 -2.7249,0.23592 -0.034,-0.25149 -0.012,-0.27056 2.3748,-0.49531 -0.044,0.2237 z"
         style="fill:#ffff00"
         id="path295" />
      <path
         d="m 1204.7841,991.91224 0.8147,0.27615 0.6821,0.23614 -4.3331,0.36447 -0.2056,-0.39023 -0.1289,-0.44926 2.7249,-0.23592 0.4459,0.19865"
         style="fill:none;stroke:#ffff00;stroke-linecap:round"
         id="path296" />
      <path
         d="m 1204.7841,991.91224 0.8147,0.27615 0.6821,0.23614 -4.3331,0.36447 -0.2056,-0.39023 -0.1289,-0.44926 2.7249,-0.23592 z"
         style="fill:#ffff00"
         id="path297" />
      <path
         d="m 1206.9355,992.7055 0.504,0.29224 0.3887,0.31365 0.2935,0.34194 0.2101,0.37874 0.1301,0.4271 0.034,0.23662 0.012,0.25333 -0.045,0.58251 -0.1293,0.51219 -2.8542,-0.15512 0.3204,-0.0947 0.212,-0.14459 0.073,-0.0905 0.052,-0.10171 0.041,-0.23597 -0.012,-0.10872 -0.034,-0.0994 -0.1341,-0.17823 -0.2466,-0.1701 -0.4215,-0.17858 -0.7548,-0.23163 -0.078,-0.0227 -0.8117,-0.25789 -0.6087,-0.25595 -0.4748,-0.27765 -0.3707,-0.30736 -0.2837,-0.34406 4.3331,-0.36447 0.6546,0.28097"
         style="fill:none;stroke:#ffff00;stroke-linecap:round"
         id="path298" />
      <path
         d="m 1206.9355,992.7055 0.504,0.29224 0.3887,0.31365 0.2935,0.34194 0.2101,0.37874 0.1301,0.4271 0.034,0.23662 0.012,0.25333 -0.045,0.58251 -0.1293,0.51219 -2.8542,-0.15512 0.3204,-0.0947 0.212,-0.14459 0.073,-0.0905 0.052,-0.10171 0.041,-0.23597 -0.012,-0.10872 -0.034,-0.0994 -0.1341,-0.17823 -0.2466,-0.1701 -0.4215,-0.17858 -0.7548,-0.23163 -0.078,-0.0227 -0.8117,-0.25789 -0.6087,-0.25595 -0.4748,-0.27765 -0.3707,-0.30736 -0.2837,-0.34406 4.3331,-0.36447 z"
         style="fill:#ffff00"
         id="path299" />
      <path
         d="m 1205.0889,995.91853 0.3904,-0.0298 2.8542,0.15512 -7.106,0.5783 0.7298,-1.9321 0.5274,0.391 0.6029,0.33501 0.6568,0.26294 0.6675,0.17208 0.1119,0.0193 0.5651,0.0482"
         style="fill:none;stroke:#ffff00;stroke-linecap:round"
         id="path300" />
      <path
         d="m 1205.0889,995.91853 0.3904,-0.0298 2.8542,0.15512 -7.106,0.5783 0.7298,-1.9321 0.5274,0.391 0.6029,0.33501 0.6568,0.26294 0.6675,0.17208 0.1119,0.0193 z"
         style="fill:#ffff00"
         id="path301" />
      <path
         d="m 1208.1261,996.49119 -0.281,0.3858 -0.3549,0.32868 -0.4325,0.27227 -0.5154,0.21255 -0.6026,0.14574 -0.6913,0.0691 -0.2272,0.004 -0.3672,-0.009 -0.7553,-0.0833 -0.7151,-0.16773 -0.6805,-0.25263 -0.6509,-0.34048 -0.6247,-0.4338 7.106,-0.5783 -0.2074,0.44737"
         style="fill:none;stroke:#ffff00;stroke-linecap:round"
         id="path302" />
      <path
         d="m 1208.1261,996.49119 -0.281,0.3858 -0.3549,0.32868 -0.4325,0.27227 -0.5154,0.21255 -0.6026,0.14574 -0.6913,0.0691 -0.2272,0.004 -0.3672,-0.009 -0.7553,-0.0833 -0.7151,-0.16773 -0.6805,-0.25263 -0.6509,-0.34048 -0.6247,-0.4338 7.106,-0.5783 z"
         style="fill:#ffff00"
         id="path303" />
    </symbol>
  </defs>
  <g
     inkscape:groupmode="layer"
     id="layer2"
     inkscape:label="shell"
     style="display:inline">
    <path
       style="fill:none;stroke:#000000;stroke-width:0.75;stroke-linecap:round"
       d="m 363.78,698.693 v 96"
       id="path514"
       transform="translate(-363.27953,-693.469)" />
    <path
       style="fill:none;stroke:#000000;stroke-width:0.75;stroke-linecap:round"
       d="m 370.394,722.315 v 48.756"
       id="path515"
       transform="translate(-363.27953,-693.469)" />
    <path
       style="fill:none;stroke:#000000;stroke-width:0.75;stroke-linecap:round"
       d="M 374.173,771.071 V 722.315"
       id="path516"
       transform="translate(-363.27953,-693.469)" />
    <path
       style="fill:none;stroke:#000000;stroke-width:0.75;stroke-linecap:round"
       d="M 376.063,771.071 V 722.315"
       id="path517"
       transform="translate(-363.27953,-693.469)" />
    <path
       style="fill:none;stroke:#000000;stroke-width:0.75;stroke-linecap:round"
       d="m 380.787,721.37 v 50.646"
       id="path519"
       transform="translate(-363.27953,-693.469)" />
    <path
       style="fill:none;stroke:#000000;stroke-width:0.75;stroke-linecap:round"
       d="M 367.559,798.472 H 505.512"
       id="path544"
       transform="translate(-363.27953,-693.469)" />
    <path
       style="fill:none;stroke:#000000;stroke-width:0.75;stroke-linecap:round"
       d="m 399.685,711.921 v 6.803"
       id="path546"
       transform="translate(-363.27953,-693.469)" />
    <path
       style="fill:none;stroke:#000000;stroke-width:0.75;stroke-linecap:round"
       d="M 391.181,791.858 H 481.89"
       id="path548"
       transform="translate(-363.27953,-693.469)" />
    <path
       style="fill:none;stroke:#000000;stroke-width:0.75;stroke-linecap:round"
       d="m 405.354,718.724 v -6.803"
       id="path550"
       transform="translate(-363.27953,-693.469)" />
    <path
       style="fill:none;stroke:#000000;stroke-width:0.75;stroke-linecap:round"
       d="M 481.89,788.079 H 391.181"
       id="path552"
       transform="translate(-363.27953,-693.469)" />
    <path
       style="fill:none;stroke:#000000;stroke-width:0.75;stroke-linecap:round"
       d="M 481.89,786.189 H 391.181"
       id="path553"
       transform="translate(-363.27953,-693.469)" />
    <path
       style="fill:none;stroke:#000000;stroke-width:0.75;stroke-linecap:round"
       d="m 390.236,781.465 h 92.599"
       id="path558"
       transform="translate(-363.27953,-693.469)" />
    <path
       style="fill:none;stroke:#000000;stroke-width:0.75;stroke-linecap:round"
       d="m 59.082522,81.192 h -5.669"
       id="path563" />
    <path
       style="fill:none;stroke:#000000;stroke-width:0.75;stroke-linecap:round"
       d="m 430.866,693.969 v 7.559"
       id="path568"
       transform="translate(-363.27953,-693.469)" />
    <path
       style="fill:none;stroke:#000000;stroke-width:0.75;stroke-linecap:round"
       d="m 53.413522,81.192 v 6.804"
       id="path570" />
    <path
       style="fill:none;stroke:#000000;stroke-width:0.75;stroke-linecap:round"
       d="M 59.082522,87.996 V 81.192"
       id="path573" />
    <path
       style="fill:none;stroke:#000000;stroke-width:0.75;stroke-linecap:round"
       d="m 442.205,693.969 v 7.559"
       id="path575"
       transform="translate(-363.27953,-693.469)" />
    <path
       style="fill:none;stroke:#000000;stroke-width:0.75;stroke-linecap:round"
       d="m 467.717,711.921 v 6.803"
       id="path585"
       transform="translate(-363.27953,-693.469)" />
    <path
       style="fill:none;stroke:#000000;stroke-width:0.75;stroke-linecap:round"
       d="m 399.685,718.724 h 5.669"
       id="path590"
       transform="translate(-363.27953,-693.469)" />
    <path
       style="fill:none;stroke:#000000;stroke-width:0.75;stroke-linecap:round"
       d="m 467.717,718.724 h 5.669"
       id="path591"
       transform="translate(-363.27953,-693.469)" />
    <path
       style="fill:none;stroke:#000000;stroke-width:0.75;stroke-linecap:round"
       d="m 473.386,718.724 v -6.803"
       id="path592"
       transform="translate(-363.27953,-693.469)" />
    <path
       style="fill:none;stroke:#000000;stroke-width:0.75;stroke-linecap:round"
       d="M 482.835,711.921 H 390.236"
       id="path595"
       transform="translate(-363.27953,-693.469)" />
    <path
       style="fill:none;stroke:#000000;stroke-width:0.75;stroke-linecap:round"
       d="M 391.181,707.197 H 481.89"
       id="path600"
       transform="translate(-363.27953,-693.469)" />
    <path
       style="fill:none;stroke:#000000;stroke-width:0.75;stroke-linecap:round"
       d="M 391.181,705.307 H 481.89"
       id="path601"
       transform="translate(-363.27953,-693.469)" />
    <path
       style="fill:none;stroke:#000000;stroke-width:0.75;stroke-linecap:round"
       d="M 492.283,772.016 V 721.37"
       id="path602"
       transform="translate(-363.27953,-693.469)" />
    <path
       style="fill:none;stroke:#000000;stroke-width:0.75;stroke-linecap:round"
       d="M 481.89,701.528 H 391.181"
       id="path603"
       transform="translate(-363.27953,-693.469)" />
    <path
       style="fill:none;stroke:#000000;stroke-width:0.75;stroke-linecap:round"
       d="m 497.008,722.315 v 48.756"
       id="path605"
       transform="translate(-363.27953,-693.469)" />
    <path
       style="fill:none;stroke:#000000;stroke-width:0.75;stroke-linecap:round"
       d="m 498.898,722.315 v 48.756"
       id="path606"
       transform="translate(-363.27953,-693.469)" />
    <path
       style="fill:none;stroke:#000000;stroke-width:0.75;stroke-linecap:round"
       d="M 505.512,694.913 H 442.205"
       id="path607"
       transform="translate(-363.27953,-693.469)" />
    <path
       style="fill:none;stroke:#000000;stroke-width:0.75;stroke-linecap:round"
       d="M 430.866,694.913 H 367.559"
       id="path608"
       transform="translate(-363.27953,-693.469)" />
    <path
       style="fill:none;stroke:#000000;stroke-width:0.75;stroke-linecap:round"
       d="m 430.866,693.969 h 11.339"
       id="path609"
       transform="translate(-363.27953,-693.469)" />
    <path
       style="fill:none;stroke:#000000;stroke-width:0.75;stroke-linecap:round"
       d="M 502.677,771.071 V 722.315"
       id="path610"
       transform="translate(-363.27953,-693.469)" />
    <path
       style="fill:none;stroke:#000000;stroke-width:0.75;stroke-linecap:round"
       d="m 509.291,794.693 v -96"
       id="path611"
       transform="translate(-363.27953,-693.469)" />
    <path
       d="m 370.3937,771.07087 a 20.787402,20.787402 0 0 0 20.7874,20.7874"
       style="fill:none;stroke:#000000;stroke-width:0.75;stroke-linecap:round"
       id="path806"
       transform="translate(-363.27953,-693.469)" />
    <path
       d="m 374.17328,771.07087 a 17.007827,17.007827 0 0 0 17.00782,17.00782"
       style="fill:none;stroke:#000000;stroke-width:0.75;stroke-linecap:round"
       id="path807"
       transform="translate(-363.27953,-693.469)" />
    <path
       d="m 376.06299,771.07087 a 15.11811,15.11811 0 0 0 15.11811,15.11811"
       style="fill:none;stroke:#000000;stroke-width:0.75;stroke-linecap:round"
       id="path808"
       transform="translate(-363.27953,-693.469)" />
    <path
       d="m 380.7874,772.01575 a 9.448819,9.448819 0 0 0 9.44882,9.44882"
       style="fill:none;stroke:#000000;stroke-width:0.75;stroke-linecap:round"
       id="path809"
       transform="translate(-363.27953,-693.469)" />
    <path
       d="m 363.77953,794.69291 a 3.779528,3.779528 0 0 0 3.77952,3.77953"
       style="fill:none;stroke:#000000;stroke-width:0.75;stroke-linecap:round"
       id="path810"
       transform="translate(-363.27953,-693.469)" />
    <path
       d="m 391.1811,701.52756 a 20.787402,20.787402 0 0 0 -20.7874,20.7874"
       style="fill:none;stroke:#000000;stroke-width:0.75;stroke-linecap:round"
       id="path811"
       transform="translate(-363.27953,-693.469)" />
    <path
       d="m 391.1811,705.30713 a 17.007827,17.007827 0 0 0 -17.00782,17.00783"
       style="fill:none;stroke:#000000;stroke-width:0.75;stroke-linecap:round"
       id="path812"
       transform="translate(-363.27953,-693.469)" />
    <path
       d="m 391.1811,707.19685 a 15.11811,15.11811 0 0 0 -15.11811,15.11811"
       style="fill:none;stroke:#000000;stroke-width:0.75;stroke-linecap:round"
       id="path813"
       transform="translate(-363.27953,-693.469)" />
    <path
       d="m 390.23622,711.92126 a 9.448819,9.448819 0 0 0 -9.44882,9.44882"
       style="fill:none;stroke:#000000;stroke-width:0.75;stroke-linecap:round"
       id="path814"
       transform="translate(-363.27953,-693.469)" />
    <path
       d="m 367.55905,694.91339 a 3.779528,3.779528 0 0 0 -3.77952,3.77952"
       style="fill:none;stroke:#000000;stroke-width:0.75;stroke-linecap:round"
       id="path815"
       transform="translate(-363.27953,-693.469)" />
    <path
       d="m 481.88976,791.85827 a 20.787402,20.787402 0 0 0 20.7874,-20.7874"
       style="fill:none;stroke:#000000;stroke-width:0.75;stroke-linecap:round"
       id="path816"
       transform="translate(-363.27953,-693.469)" />
    <path
       d="m 481.88976,788.07869 a 17.007827,17.007827 0 0 0 17.00783,-17.00782"
       style="fill:none;stroke:#000000;stroke-width:0.75;stroke-linecap:round"
       id="path817"
       transform="translate(-363.27953,-693.469)" />
    <path
       d="m 481.88976,786.18898 a 15.11811,15.11811 0 0 0 15.11811,-15.11811"
       style="fill:none;stroke:#000000;stroke-width:0.75;stroke-linecap:round"
       id="path818"
       transform="translate(-363.27953,-693.469)" />
    <path
       d="m 482.83465,781.46457 a 9.448819,9.448819 0 0 0 9.44881,-9.44882"
       style="fill:none;stroke:#000000;stroke-width:0.75;stroke-linecap:round"
       id="path819"
       transform="translate(-363.27953,-693.469)" />
    <path
       d="m 505.51181,798.47244 a 3.779528,3.779528 0 0 0 3.77953,-3.77953"
       style="fill:none;stroke:#000000;stroke-width:0.75;stroke-linecap:round"
       id="path820"
       transform="translate(-363.27953,-693.469)" />
    <path
       d="m 502.67716,722.31496 a 20.787402,20.787402 0 0 0 -20.7874,-20.7874"
       style="fill:none;stroke:#000000;stroke-width:0.75;stroke-linecap:round"
       id="path821"
       transform="translate(-363.27953,-693.469)" />
    <path
       d="M 498.89759,722.31496 A 17.007827,17.007827 0 0 0 481.88976,705.30713"
       style="fill:none;stroke:#000000;stroke-width:0.75;stroke-linecap:round"
       id="path822"
       transform="translate(-363.27953,-693.469)" />
    <path
       d="M 497.00787,722.31496 A 15.11811,15.11811 0 0 0 481.88976,707.19685"
       style="fill:none;stroke:#000000;stroke-width:0.75;stroke-linecap:round"
       id="path823"
       transform="translate(-363.27953,-693.469)" />
    <path
       d="m 492.28346,721.37008 a 9.448819,9.448819 0 0 0 -9.44881,-9.44882"
       style="fill:none;stroke:#000000;stroke-width:0.75;stroke-linecap:round"
       id="path824"
       transform="translate(-363.27953,-693.469)" />
    <path
       d="m 509.29134,698.69291 a 3.779528,3.779528 0 0 0 -3.77953,-3.77952"
       style="fill:none;stroke:#000000;stroke-width:0.75;stroke-linecap:round"
       id="path825"
       transform="translate(-363.27953,-693.469)" />
    <path
       style="display:inline;fill:none;stroke:#000000;stroke-width:0.75;stroke-linecap:round"
       d="m 93.098273,81.192 h -5.669"
       id="path563-1" />
    <path
       style="display:inline;fill:none;stroke:#000000;stroke-width:0.75;stroke-linecap:round"
       d="m 87.429273,81.192 v 6.804"
       id="path570-8" />
    <path
       style="display:inline;fill:none;stroke:#000000;stroke-width:0.75;stroke-linecap:round"
       d="M 93.098273,87.996 V 81.192"
       id="path573-2" />
  </g>
  <g
     inkscape:groupmode="layer"
     id="layer1"
     inkscape:label="pins"
     style="display:inline">
    <path
       d="m 31.446476,33.22588 a 3.5449026,3.5449026 0 0 0 -7.089805,0 3.5449026,3.5449026 0 0 0 7.089805,0 z"
       style="display:inline;fill:none;stroke:#000000;stroke-width:0.75;stroke-linecap:round"
       id="path1040-41-9"
       inkscape:label="1" />
    <path
       d="m 42.785057,33.22588 a 3.544903,3.544903 0 0 0 -7.089806,0 3.544903,3.544903 0 0 0 7.089806,0 z"
       style="display:inline;fill:none;stroke:#000000;stroke-width:0.75;stroke-linecap:round"
       id="path1041-1-6"
       inkscape:label="2" />
    <path
       d="m 54.123637,33.22588 a 3.544903,3.544903 0 0 0 -7.089806,0 3.544903,3.544903 0 0 0 7.089806,0 z"
       style="display:inline;fill:none;stroke:#000000;stroke-width:0.75;stroke-linecap:round"
       id="path1042-3-3"
       inkscape:label="3" />
    <path
       d="m 65.462212,33.22588 a 3.5449006,3.5449006 0 0 0 -7.089787,0 3.5449006,3.5449006 0 0 0 7.089787,0 z"
       style="display:inline;fill:none;stroke:#000000;stroke-width:0.75;stroke-linecap:round"
       id="path1043-8-7"
       inkscape:label="4" />
    <path
       d="m 76.800809,33.22588 a 3.5449054,3.5449054 0 0 0 -7.08981,0 3.5449054,3.5449054 0 0 0 7.08981,0 z"
       style="display:inline;fill:none;stroke:#000000;stroke-width:0.75;stroke-linecap:round"
       id="path1057-7-8"
       inkscape:label="5" />
    <path
       d="m 88.139384,33.22588 a 3.5449024,3.5449024 0 0 0 -7.0898,0 3.5449024,3.5449024 0 0 0 7.0898,0 z"
       style="display:inline;fill:none;stroke:#000000;stroke-width:0.75;stroke-linecap:round"
       id="path1058-4-8"
       inkscape:label="6" />
    <path
       d="m 99.477966,33.22588 a 3.5449024,3.5449024 0 0 0 -7.089804,0 3.5449024,3.5449024 0 0 0 7.089804,0 z"
       style="display:inline;fill:none;stroke:#000000;stroke-width:0.75;stroke-linecap:round"
       id="path1059-2-29"
       inkscape:label="7" />
    <path
       d="m 110.81654,33.22588 a 3.5449006,3.5449006 0 0 0 -7.08979,0 3.5449006,3.5449006 0 0 0 7.08979,0 z"
       style="display:inline;fill:none;stroke:#000000;stroke-width:0.75;stroke-linecap:round"
       id="path1060-7-1"
       inkscape:label="8" />
    <path
       d="m 122.15513,33.22588 a 3.5449024,3.5449024 0 0 0 -7.0898,0 3.5449024,3.5449024 0 0 0 7.0898,0 z"
       style="display:inline;fill:none;stroke:#000000;stroke-width:0.75;stroke-linecap:round"
       id="path1061-79-3"
       inkscape:label="9" />
    <path
       d="m 37.115765,46.45423 a 3.5449026,3.5449026 0 0 0 -7.089805,0 3.5449026,3.5449026 0 0 0 7.089805,0 z"
       style="display:inline;fill:none;stroke:#000000;stroke-width:0.75;stroke-linecap:round"
       id="path1036-0"
       inkscape:label="10" />
    <path
       d="m 48.454345,46.45423 a 3.544903,3.544903 0 0 0 -7.089806,0 3.544903,3.544903 0 0 0 7.089806,0 z"
       style="display:inline;fill:none;stroke:#000000;stroke-width:0.75;stroke-linecap:round"
       id="path1037-6"
       inkscape:label="11" />
    <path
       d="m 59.792925,46.45423 a 3.5449026,3.5449026 0 0 0 -7.089805,0 3.5449026,3.5449026 0 0 0 7.089805,0 z"
       style="display:inline;fill:none;stroke:#000000;stroke-width:0.75;stroke-linecap:round"
       id="path1038-1"
       inkscape:label="12" />
    <path
       d="m 71.131516,46.45423 a 3.544903,3.544903 0 0 0 -7.089806,0 3.544903,3.544903 0 0 0 7.089806,0 z"
       style="display:inline;fill:none;stroke:#000000;stroke-width:0.75;stroke-linecap:round"
       id="path1039-3"
       inkscape:label="13" />
    <path
       d="m 82.470095,46.45423 a 3.5449026,3.5449026 0 0 0 -7.089805,0 3.5449026,3.5449026 0 0 0 7.089805,0 z"
       style="display:inline;fill:none;stroke:#000000;stroke-width:0.75;stroke-linecap:round"
       id="path1053-8"
       inkscape:label="14" />
    <path
       d="m 93.808679,46.45423 a 3.544906,3.544906 0 0 0 -7.089812,0 3.544906,3.544906 0 0 0 7.089812,0 z"
       style="display:inline;fill:none;stroke:#000000;stroke-width:0.75;stroke-linecap:round"
       id="path1054-9"
       inkscape:label="15" />
    <path
       d="m 105.14725,46.45423 a 3.5449008,3.5449008 0 0 0 -7.089782,0 3.5449008,3.5449008 0 0 0 7.089782,0 z"
       style="display:inline;fill:none;stroke:#000000;stroke-width:0.75;stroke-linecap:round"
       id="path1055-3"
       inkscape:label="16" />
    <path
       d="m 116.48585,46.45423 a 3.5449055,3.5449055 0 0 0 -7.08981,0 3.5449055,3.5449055 0 0 0 7.08981,0 z"
       style="display:inline;fill:none;stroke:#000000;stroke-width:0.75;stroke-linecap:round"
       id="path1056-4"
       inkscape:label="17" />
    <path
       d="m 37.115765,61.57234 a 3.5449026,3.5449026 0 0 0 -7.089805,0 3.5449026,3.5449026 0 0 0 7.089805,0 z"
       style="display:inline;fill:none;stroke:#000000;stroke-width:0.75;stroke-linecap:round"
       id="path1036-2-4"
       inkscape:label="18" />
    <path
       d="m 48.454345,61.57234 a 3.544903,3.544903 0 0 0 -7.089806,0 3.544903,3.544903 0 0 0 7.089806,0 z"
       style="display:inline;fill:none;stroke:#000000;stroke-width:0.75;stroke-linecap:round"
       id="path1037-4-6"
       inkscape:label="19" />
    <path
       d="m 59.792925,61.57234 a 3.5449026,3.5449026 0 0 0 -7.089805,0 3.5449026,3.5449026 0 0 0 7.089805,0 z"
       style="display:inline;fill:none;stroke:#000000;stroke-width:0.75;stroke-linecap:round"
       id="path1038-8-0"
       inkscape:label="20" />
    <path
       d="m 71.131516,61.57234 a 3.544903,3.544903 0 0 0 -7.089806,0 3.544903,3.544903 0 0 0 7.089806,0 z"
       style="display:inline;fill:none;stroke:#000000;stroke-width:0.75;stroke-linecap:round"
       id="path1039-6-6"
       inkscape:label="21" />
    <path
       d="m 82.470095,61.57234 a 3.5449026,3.5449026 0 0 0 -7.089805,0 3.5449026,3.5449026 0 0 0 7.089805,0 z"
       style="display:inline;fill:none;stroke:#000000;stroke-width:0.75;stroke-linecap:round"
       id="path1053-5-6"
       inkscape:label="22" />
    <path
       d="m 93.808679,61.57234 a 3.544906,3.544906 0 0 0 -7.089812,0 3.544906,3.544906 0 0 0 7.089812,0 z"
       style="display:inline;fill:none;stroke:#000000;stroke-width:0.75;stroke-linecap:round"
       id="path1054-0-1"
       inkscape:label="23" />
    <path
       d="m 105.14725,61.57234 a 3.5449008,3.5449008 0 0 0 -7.089782,0 3.5449008,3.5449008 0 0 0 7.089782,0 z"
       style="display:inline;fill:none;stroke:#000000;stroke-width:0.75;stroke-linecap:round"
       id="path1055-9-8"
       inkscape:label="24" />
    <path
       d="m 116.48585,61.57234 a 3.5449055,3.5449055 0 0 0 -7.08981,0 3.5449055,3.5449055 0 0 0 7.08981,0 z"
       style="display:inline;fill:none;stroke:#000000;stroke-width:0.75;stroke-linecap:round"
       id="path1056-0-4"
       inkscape:label="25" />
    <path
       d="m 31.446482,74.80069 a 3.5449026,3.5449026 0 0 0 -7.089805,0 3.5449026,3.5449026 0 0 0 7.089805,0 z"
       style="display:inline;fill:none;stroke:#000000;stroke-width:0.75;stroke-linecap:round"
       id="path1040-41-1-5"
       inkscape:label="26" />
    <path
       d="m 42.785063,74.80069 a 3.544903,3.544903 0 0 0 -7.089806,0 3.544903,3.544903 0 0 0 7.089806,0 z"
       style="display:inline;fill:none;stroke:#000000;stroke-width:0.75;stroke-linecap:round"
       id="path1041-1-9-9"
       inkscape:label="27" />
    <path
       d="m 54.123643,74.80069 a 3.544903,3.544903 0 0 0 -7.089806,0 3.544903,3.544903 0 0 0 7.089806,0 z"
       style="display:inline;fill:none;stroke:#000000;stroke-width:0.75;stroke-linecap:round"
       id="path1042-3-8-8"
       inkscape:label="28" />
    <path
       d="m 65.462218,74.80069 a 3.5449006,3.5449006 0 0 0 -7.089787,0 3.5449006,3.5449006 0 0 0 7.089787,0 z"
       style="display:inline;fill:none;stroke:#000000;stroke-width:0.75;stroke-linecap:round"
       id="path1043-8-6-4"
       inkscape:label="29" />
    <path
       d="m 76.800815,74.80069 a 3.5449054,3.5449054 0 0 0 -7.08981,0 3.5449054,3.5449054 0 0 0 7.08981,0 z"
       style="display:inline;fill:none;stroke:#000000;stroke-width:0.75;stroke-linecap:round"
       id="path1057-7-5-0"
       inkscape:label="30" />
    <path
       d="m 88.13939,74.80069 a 3.5449024,3.5449024 0 0 0 -7.0898,0 3.5449024,3.5449024 0 0 0 7.0898,0 z"
       style="display:inline;fill:none;stroke:#000000;stroke-width:0.75;stroke-linecap:round"
       id="path1058-4-0-7"
       inkscape:label="31" />
    <path
       d="m 99.477972,74.80069 a 3.5449024,3.5449024 0 0 0 -7.089804,0 3.5449024,3.5449024 0 0 0 7.089804,0 z"
       style="display:inline;fill:none;stroke:#000000;stroke-width:0.75;stroke-linecap:round"
       id="path1059-2-2-6"
       inkscape:label="32" />
    <path
       d="m 110.81655,74.80069 a 3.5449006,3.5449006 0 0 0 -7.08979,0 3.5449006,3.5449006 0 0 0 7.08979,0 z"
       style="display:inline;fill:none;stroke:#000000;stroke-width:0.75;stroke-linecap:round"
       id="path1060-7-8-3"
       inkscape:label="33" />
    <path
       d="m 122.15514,74.80069 a 3.5449024,3.5449024 0 0 0 -7.0898,0 3.5449024,3.5449024 0 0 0 7.0898,0 z"
       style="display:inline;fill:none;stroke:#000000;stroke-width:0.75;stroke-linecap:round"
       id="path1061-79-6-6"
       inkscape:label="34" />
  </g>
</svg>
