<?xml version="1.0" encoding="UTF-8" standalone="no"?>
<svg
   viewBox="0 0 152.19999 77.416003"
   width="152.2"
   height="77.416"
   version="1.1"
   id="svg171"
   sodipodi:docname="DTM15-12PA.svg"
   inkscape:version="1.4.3 (0d15f75, 2025-12-25)"
   xmlns:inkscape="http://www.inkscape.org/namespaces/inkscape"
   xmlns:sodipodi="http://sodipodi.sourceforge.net/DTD/sodipodi-0.dtd"
   xmlns="http://www.w3.org/2000/svg"
   xmlns:svg="http://www.w3.org/2000/svg">
  <sodipodi:namedview
     id="namedview171"
     pagecolor="#ffffff"
     bordercolor="#000000"
     borderopacity="0.25"
     inkscape:showpageshadow="2"
     inkscape:pageopacity="0.0"
     inkscape:pagecheckerboard="0"
     inkscape:deskcolor="#d1d1d1"
     inkscape:zoom="9.5228694"
     inkscape:cx="76.08001"
     inkscape:cy="38.69632"
     inkscape:window-width="2560"
     inkscape:window-height="991"
     inkscape:window-x="-9"
     inkscape:window-y="-9"
     inkscape:window-maximized="1"
     inkscape:current-layer="layer2"
     showguides="true" />
  <desc
     id="desc1">DTM15-12PA.dxf - scale = 1.000000, origin = (0.000000, 0.000000), method = manual</desc>
  <defs
     id="defs4">
    <marker
       id="DistanceX"
       orient="auto"
       refX="0"
       refY="0"
       style="overflow:visible">
      <path
         d="M 3,-3 -3,3 M 0,-5 V 5"
         style="stroke:#000000;stroke-width:0.5"
         id="path1" />
    </marker>
    <pattern
       id="Hatch"
       patternUnits="userSpaceOnUse"
       width="8"
       height="8"
       x="0"
       y="0">
      <path
         d="M8 4 l-4,4"
         stroke="#000000"
         stroke-width="0.25"
         linecap="square"
         id="path2" />
      <path
         d="M6 2 l-4,4"
         stroke="#000000"
         stroke-width="0.25"
         linecap="square"
         id="path3" />
      <path
         d="M4 0 l-4,4"
         stroke="#000000"
         stroke-width="0.25"
         linecap="square"
         id="path4" />
    </pattern>
    <symbol
       id="*MODEL_SPACE" />
    <symbol
       id="*PAPER_SPACE" />
  </defs>
  <g
     inkscape:groupmode="layer"
     inkscape:label="0"
     id="g171"
     transform="translate(76.1,-1083.8117)">
    <g
       inkscape:groupmode="layer"
       id="layer1"
       inkscape:label="pins"
       style="display:inline">
      <path
         d="m -36.286796,1109.0797 a 3.313204,3.313204 0 0 0 -6.626408,0 3.313204,3.313204 0 0 0 6.626408,0 z"
         style="fill:none;stroke:#000000;stroke-width:0.75;stroke-linecap:round;stroke-linejoin:round"
         id="path11"
         inkscape:label="1" />
      <path
         d="m -20.446795,1109.2794 a 3.3132045,3.3132045 0 0 0 -6.626409,0 3.3132045,3.3132045 0 0 0 6.626409,0 z"
         style="fill:none;stroke:#000000;stroke-width:0.75;stroke-linecap:round;stroke-linejoin:round"
         id="path12"
         inkscape:label="2" />
      <path
         d="m -4.6067961,1109.0797 a 3.313204,3.313204 0 0 0 -6.6264079,0 3.313204,3.313204 0 0 0 6.6264079,0 z"
         style="fill:none;stroke:#000000;stroke-width:0.75;stroke-linecap:round;stroke-linejoin:round"
         id="path13"
         inkscape:label="3" />
      <path
         d="m 11.233204,1109.0797 a 3.313204,3.313204 0 0 0 -6.626408,0 3.313204,3.313204 0 0 0 6.626408,0 z"
         style="fill:none;stroke:#000000;stroke-width:0.75;stroke-linecap:round;stroke-linejoin:round"
         id="path16"
         inkscape:label="4" />
      <path
         d="m 27.073204,1109.0797 a 3.313204,3.313204 0 0 0 -6.626408,0 3.313204,3.313204 0 0 0 6.626408,0 z"
         style="fill:none;stroke:#000000;stroke-width:0.75;stroke-linecap:round;stroke-linejoin:round"
         id="path15"
         inkscape:label="5" />
      <path
         d="m 42.913204,1109.0797 a 3.313204,3.313204 0 0 0 -6.626408,0 3.313204,3.313204 0 0 0 6.626408,0 z"
         style="fill:none;stroke:#000000;stroke-width:0.75;stroke-linecap:round;stroke-linejoin:round"
         id="path14"
         inkscape:label="6" />
      <path
         d="m 42.913204,1135.9597 a 3.313204,3.313204 0 0 0 -6.626408,0 3.313204,3.313204 0 0 0 6.626408,0 z"
         style="fill:none;stroke:#000000;stroke-width:0.75;stroke-linecap:round;stroke-linejoin:round"
         id="path17"
         inkscape:label="7" />
      <path
         d="m 27.073204,1135.9597 a 3.313204,3.313204 0 0 0 -6.626408,0 3.313204,3.313204 0 0 0 6.626408,0 z"
         style="fill:none;stroke:#000000;stroke-width:0.75;stroke-linecap:round;stroke-linejoin:round"
         id="path18"
         inkscape:label="8" />
      <path
         d="m 11.234167,1135.9597 a 3.3141669,3.3141669 0 0 0 -6.6283336,0 3.3141669,3.3141669 0 0 0 6.6283336,0 z"
         style="fill:none;stroke:#000000;stroke-width:0.75;stroke-linecap:round;stroke-linejoin:round"
         id="path19"
         inkscape:label="9" />
      <path
         d="m -4.606796,1135.9597 a 3.3132041,3.3132041 0 0 0 -6.626408,0 3.3132041,3.3132041 0 0 0 6.626408,0 z"
         style="fill:none;stroke:#000000;stroke-width:0.75;stroke-linecap:round;stroke-linejoin:round"
         id="path22"
         inkscape:label="10" />
      <path
         d="m -20.446795,1135.9597 a 3.3132045,3.3132045 0 0 0 -6.626409,0 3.3132045,3.3132045 0 0 0 6.626409,0 z"
         style="fill:none;stroke:#000000;stroke-width:0.75;stroke-linecap:round;stroke-linejoin:round"
         id="path21"
         inkscape:label="11" />
      <path
         d="m -36.286796,1135.9597 a 3.313204,3.313204 0 0 0 -6.626408,0 3.313204,3.313204 0 0 0 6.626408,0 z"
         style="fill:none;stroke:#000000;stroke-width:0.75;stroke-linecap:round;stroke-linejoin:round"
         id="path20"
         inkscape:label="12" />
    </g>
    <g
       inkscape:groupmode="layer"
       id="layer2"
       inkscape:label="shell">
      <path
         d="m -50.136281,1097.9437 a 13.248,13.248 0 0 0 -6.071719,11.136"
         style="fill:none;stroke:#000000;stroke-width:0.75;stroke-linecap:round;stroke-linejoin:round"
         id="path5" />
      <path
         style="fill:none;stroke:#000000;stroke-width:0.75;stroke-linecap:round;stroke-linejoin:round"
         d="m -56.208,1109.08 v 26.88"
         id="path6" />
      <path
         d="m -56.208,1135.9597 a 13.248,13.248 0 0 0 6.071719,11.136"
         style="fill:none;stroke:#000000;stroke-width:0.75;stroke-linecap:round;stroke-linejoin:round"
         id="path7" />
      <path
         d="M 50.136281,1147.0957 A 13.248,13.248 0 0 0 56.208,1135.9597"
         style="fill:none;stroke:#000000;stroke-width:0.75;stroke-linecap:round;stroke-linejoin:round"
         id="path8" />
      <path
         style="fill:none;stroke:#000000;stroke-width:0.75;stroke-linecap:round;stroke-linejoin:round"
         d="m 56.208,1135.96 v -26.88"
         id="path9" />
      <path
         d="m 56.208,1109.0797 a 13.248,13.248 0 0 0 -6.071719,-11.136"
         style="fill:none;stroke:#000000;stroke-width:0.75;stroke-linecap:round;stroke-linejoin:round"
         id="path10" />
      <path
         d="m -51.888,1109.0797 v 26.88 a 8.928,8.928 0 0 0 8.928,8.928 h 85.92 a 8.928,8.928 0 0 0 8.928,-8.928 v -26.88 a 8.928,8.928 0 0 0 -8.928,-8.928 h -85.92 a 8.928,8.928 0 0 0 -8.928,8.928 z"
         style="fill:none;stroke:#000000;stroke-width:0.75;stroke-linecap:round;stroke-linejoin:round"
         id="path23" />
      <path
         style="fill:none;stroke:#000000;stroke-width:0.75;stroke-linecap:round;stroke-linejoin:round"
         d="M -57.0383,1097.94 H -25.488"
         id="path24" />
      <path
         style="fill:none;stroke:#000000;stroke-width:0.75;stroke-linecap:round;stroke-linejoin:round"
         d="m -59.4809,1095.5 2.1854,2.19"
         id="path25" />
      <path
         style="fill:none;stroke:#000000;stroke-width:0.75;stroke-linecap:round;stroke-linejoin:round"
         d="m -57.0383,1097.94 -0.2572,-0.25"
         id="path26" />
      <path
         d="m -59.566955,1092.8776 a 1.92,1.92 0 0 0 0.08602,2.6234"
         style="fill:none;stroke:#000000;stroke-width:0.75;stroke-linecap:round;stroke-linejoin:round"
         id="path27" />
      <path
         d="m -41.088,1084.5037 a 24.576,24.576 0 0 0 -18.478955,8.3739"
         style="fill:none;stroke:#000000;stroke-width:0.75;stroke-linecap:round;stroke-linejoin:round"
         id="path28" />
      <path
         style="fill:none;stroke:#000000;stroke-width:0.75;stroke-linecap:round;stroke-linejoin:round"
         d="m 40.992,1084.5 h -82.08"
         id="path29" />
      <path
         d="m -25.488,1097.9437 h 13.344 v -6.912 h -13.344 z"
         style="fill:none;stroke:#000000;stroke-width:0.75;stroke-linecap:round;stroke-linejoin:round"
         id="path30" />
      <path
         style="fill:none;stroke:#000000;stroke-width:0.75;stroke-linecap:round;stroke-linejoin:round"
         d="m -12.144,1097.94 h 39.84"
         id="path31" />
      <path
         d="M 27.696,1097.9437 H 41.04 v -6.912 H 27.696 Z"
         style="fill:none;stroke:#000000;stroke-width:0.75;stroke-linecap:round;stroke-linejoin:round"
         id="path32" />
      <path
         style="fill:none;stroke:#000000;stroke-width:0.75;stroke-linecap:round;stroke-linejoin:round"
         d="M 41.04,1097.94 H 53.2177"
         id="path33" />
      <path
         style="fill:none;stroke:#000000;stroke-width:0.75;stroke-linecap:round;stroke-linejoin:round"
         d="m 53.475,1097.69 -0.2573,0.25"
         id="path34" />
      <path
         style="fill:none;stroke:#000000;stroke-width:0.75;stroke-linecap:round;stroke-linejoin:round"
         d="m 53.475,1097.69 4.0614,-4.07"
         id="path35" />
      <path
         d="m 57.536446,1093.625 a 1.92,1.92 0 0 0 -0.07063,-2.7824"
         style="fill:none;stroke:#000000;stroke-width:0.75;stroke-linecap:round;stroke-linejoin:round"
         id="path36" />
      <path
         d="M 57.465818,1090.8426 A 24.576,24.576 0 0 0 40.992,1084.5037"
         style="fill:none;stroke:#000000;stroke-width:0.75;stroke-linecap:round;stroke-linejoin:round"
         id="path37" />
      <path
         style="fill:none;stroke:#000000;stroke-width:0.75;stroke-linecap:round;stroke-linejoin:round"
         d="M 57.4117,1146.04 H 67.248"
         id="path38" />
      <path
         style="fill:none;stroke:#000000;stroke-width:0.75;stroke-linecap:round;stroke-linejoin:round"
         d="m 67.248,1146.04 v -4.32"
         id="path39" />
      <path
         style="fill:none;stroke:#000000;stroke-width:0.75;stroke-linecap:round;stroke-linejoin:round"
         d="M 67.248,1141.72 H 57.4117"
         id="path40" />
      <path
         style="fill:none;stroke:#000000;stroke-width:0.75;stroke-linecap:round;stroke-linejoin:round"
         d="m 56.64,1146.04 h 0.7717"
         id="path41" />
      <path
         style="fill:none;stroke:#000000;stroke-width:0.75;stroke-linecap:round;stroke-linejoin:round"
         d="M 57.4117,1141.72 H 56.64"
         id="path42" />
      <path
         style="fill:none;stroke:#000000;stroke-width:0.75;stroke-linecap:round;stroke-linejoin:round"
         d="m 56.64,1141.72 v 4.32"
         id="path43" />
      <path
         style="fill:none;stroke:#000000;stroke-width:0.75;stroke-linecap:round;stroke-linejoin:round"
         d="m 56.64,1103.32 h 0.7717"
         id="path44" />
      <path
         style="fill:none;stroke:#000000;stroke-width:0.75;stroke-linecap:round;stroke-linejoin:round"
         d="M 57.4117,1099 H 56.64"
         id="path45" />
      <path
         style="fill:none;stroke:#000000;stroke-width:0.75;stroke-linecap:round;stroke-linejoin:round"
         d="m 56.64,1099 v 4.32"
         id="path46" />
      <path
         style="fill:none;stroke:#000000;stroke-width:0.75;stroke-linecap:round;stroke-linejoin:round"
         d="M 57.4117,1103.32 H 67.248"
         id="path47" />
      <path
         style="fill:none;stroke:#000000;stroke-width:0.75;stroke-linecap:round;stroke-linejoin:round"
         d="M 67.248,1103.32 V 1099"
         id="path48" />
      <path
         style="fill:none;stroke:#000000;stroke-width:0.75;stroke-linecap:round;stroke-linejoin:round"
         d="M 67.248,1099 H 57.4117"
         id="path49" />
      <path
         d="m 56.64,1107.828 h 4.275837 A 17.76,17.76 0 0 0 60,1103.3197 h -3.36 z"
         style="fill:none;stroke:#000000;stroke-width:0.75;stroke-linecap:round;stroke-linejoin:round"
         id="path50" />
      <path
         d="M 60.915837,1137.2114 H 56.64 v 4.5083 H 60 a 17.76,17.76 0 0 0 0.915837,-4.5083 z"
         style="fill:none;stroke:#000000;stroke-width:0.75;stroke-linecap:round;stroke-linejoin:round"
         id="path51" />
      <path
         d="M -63.444022,1146.5197 H -71.76 a 3.84,3.84 0 0 1 -3.84,-3.84 v -40.32 a 3.84,3.84 0 0 1 3.84,-3.84 h 8.315978 A 24.768,24.768 0 0 1 -41.04,1084.3117 h 82.08 a 24.768,24.768 0 0 1 20.15177,10.368 H 71.76 a 3.84,3.84 0 0 1 3.84,3.84 v 48 a 3.84,3.84 0 0 1 -3.84,3.84 H 61.19177 A 24.768,24.768 0 0 1 41.04,1160.7277 h -82.08 a 24.768,24.768 0 0 1 -22.404022,-14.208 z"
         style="fill:none;stroke:#000000;stroke-width:0.75;stroke-linecap:round;stroke-linejoin:round"
         id="path52" />
      <path
         d="m 57.964007,1097.7192 c -0.144965,-0.1915 -0.252605,-0.408 -0.315677,-0.6396 -0.05967,-0.2191 -0.0781,-0.4467 -0.05408,-0.6725 0.02551,-0.2399 0.0983,-0.4717 0.213177,-0.6839 0.116442,-0.2151 0.273527,-0.4054 0.461202,-0.5625 0.191393,-0.1603 0.411374,-0.2835 0.647473,-0.365 0.22279,-0.077 0.457428,-0.116 0.693181,-0.116"
         style="fill:none;stroke:#000000;stroke-width:0.75;stroke-linecap:round;stroke-linejoin:round"
         id="path53" />
      <path
         style="fill:none;stroke:#000000;stroke-width:0.75;stroke-linecap:round;stroke-linejoin:round"
         d="m 59.6093,1094.68 h 3.5758"
         id="path54" />
      <path
         style="fill:none;stroke:#000000;stroke-width:0.75;stroke-linecap:round;stroke-linejoin:round"
         d="m 61.008,1109.08 v 26.88"
         id="path55" />
      <path
         style="fill:none;stroke:#000000;stroke-width:0.75;stroke-linecap:round;stroke-linejoin:round"
         d="M 67.248,1136.44 H 71.76"
         id="path56" />
      <path
         style="fill:none;stroke:#000000;stroke-width:0.75;stroke-linecap:round;stroke-linejoin:round"
         d="M 71.76,1136.44 V 1108.6"
         id="path57" />
      <path
         style="fill:none;stroke:#000000;stroke-width:0.75;stroke-linecap:round;stroke-linejoin:round"
         d="M 71.76,1108.6 H 67.248"
         id="path58" />
      <path
         d="m 61.008,1109.0797 a 18.048,18.048 0 0 0 -0.943828,-5.76"
         style="fill:none;stroke:#000000;stroke-width:0.75;stroke-linecap:round;stroke-linejoin:round"
         id="path59" />
      <path
         style="fill:none;stroke:#000000;stroke-width:0.75;stroke-linecap:round;stroke-linejoin:round"
         d="m 67.248,1108.6 v -5.28"
         id="path60" />
      <path
         d="m 60.064172,1141.7197 a 18.048,18.048 0 0 0 0.943828,-5.76"
         style="fill:none;stroke:#000000;stroke-width:0.75;stroke-linecap:round;stroke-linejoin:round"
         id="path61" />
      <path
         style="fill:none;stroke:#000000;stroke-width:0.75;stroke-linecap:round;stroke-linejoin:round"
         d="m 67.248,1136.44 v 5.28"
         id="path62" />
      <path
         style="fill:none;stroke:#000000;stroke-width:0.75;stroke-linecap:round;stroke-linejoin:round"
         d="M 53.2177,1147.1 H 33.264"
         id="path63" />
      <path
         style="fill:none;stroke:#000000;stroke-width:0.75;stroke-linecap:round;stroke-linejoin:round"
         d="m 53.2177,1147.1 0.2573,0.25"
         id="path64" />
      <path
         style="fill:none;stroke:#000000;stroke-width:0.75;stroke-linecap:round;stroke-linejoin:round"
         d="m 57.5364,1151.41 -4.0614,-4.06"
         id="path65" />
      <path
         d="m 57.465818,1154.1968 a 1.92,1.92 0 0 0 0.07063,-2.7824"
         style="fill:none;stroke:#000000;stroke-width:0.75;stroke-linecap:round;stroke-linejoin:round"
         id="path66" />
      <path
         d="m 59.609279,1150.3597 c -0.235753,0 -0.470391,-0.039 -0.693181,-0.116 -0.2361,-0.082 -0.456081,-0.2047 -0.647474,-0.365 -0.187674,-0.1571 -0.344759,-0.3474 -0.461201,-0.5625 -0.114881,-0.2122 -0.187663,-0.4441 -0.213177,-0.6839 -0.02401,-0.2258 -0.0056,-0.4535 0.05408,-0.6725 0.06307,-0.2316 0.170712,-0.4482 0.315677,-0.6396"
         style="fill:none;stroke:#000000;stroke-width:0.75;stroke-linecap:round;stroke-linejoin:round"
         id="path67" />
      <path
         d="m 57.018949,1147.2768 a 526.55235,23.317674 10.385112 0 0 0.945058,0.043"
         style="fill:none;stroke:#000000;stroke-width:0.75;stroke-linecap:round;stroke-linejoin:round"
         id="path68" />
      <path
         d="m 55.275172,1149.1531 a 18.048,18.048 0 0 0 1.743777,-1.8763"
         style="fill:none;stroke:#000000;stroke-width:0.75;stroke-linecap:round;stroke-linejoin:round"
         id="path69" />
      <path
         d="m 57.018949,1147.2768 c 0.0146,-0.018 0.02928,-0.037 0.0441,-0.055 0.01482,-0.019 0.02979,-0.037 0.04471,-0.056 0.01491,-0.019 0.02977,-0.038 0.04429,-0.056 0.01452,-0.019 0.02871,-0.037 0.0425,-0.054 0.01379,-0.018 0.02718,-0.035 0.04031,-0.052 0.01313,-0.017 0.026,-0.034 0.03863,-0.05 0.01264,-0.016 0.02504,-0.033 0.03717,-0.049 0.01213,-0.016 0.02399,-0.032 0.0355,-0.047 0.01152,-0.015 0.02269,-0.03 0.03354,-0.044 0.01085,-0.014 0.02139,-0.028 0.03166,-0.042 0.01027,-0.014 0.02029,-0.027 0.02999,-0.04 0.0097,-0.013 0.01912,-0.026 0.02819,-0.038 0.0091,-0.012 0.0178,-0.024 0.02613,-0.035 0.0083,-0.011 0.01629,-0.022 0.02382,-0.033 0.0075,-0.01 0.01464,-0.02 0.02128,-0.029 0.0066,-0.01 0.01281,-0.018 0.01844,-0.025 0.0056,-0.01 0.01073,-0.015 0.01522,-0.021 0.0045,-0.01 0.0084,-0.012 0.01159,-0.016 0.0032,0 0.0057,-0.01 0.0074,-0.01 0.0017,0 0.0026,0 0.0027,0"
         style="fill:none;stroke:#000000;stroke-width:0.75;stroke-linecap:round;stroke-linejoin:round"
         id="path70" />
      <path
         d="m 55.821152,1149.6991 a 18.819694,18.819694 0 0 0 2.142855,-2.3789"
         style="fill:none;stroke:#000000;stroke-width:0.75;stroke-linecap:round;stroke-linejoin:round"
         id="path71" />
      <path
         d="m 57.964007,1097.7192 a 18.819694,18.819694 0 0 0 -2.142855,-2.3789"
         style="fill:none;stroke:#000000;stroke-width:0.75;stroke-linecap:round;stroke-linejoin:round"
         id="path72" />
      <path
         d="m 57.018949,1097.7626 a 18.048,18.048 0 0 0 -1.743777,-1.8764"
         style="fill:none;stroke:#000000;stroke-width:0.75;stroke-linecap:round;stroke-linejoin:round"
         id="path73" />
      <path
         d="m 57.596144,1098.5197 c -1.11e-4,-2e-4 -0.001,0 -0.0028,0 -0.0017,0 -0.0043,-0.01 -0.0076,-0.011 -0.0033,0 -0.0073,-0.01 -0.01187,-0.016 -0.0046,-0.01 -0.0098,-0.014 -0.01559,-0.021 -0.0058,-0.01 -0.01209,-0.017 -0.0189,-0.026 -0.0068,-0.01 -0.01409,-0.019 -0.0218,-0.03 -0.0077,-0.011 -0.01585,-0.022 -0.02438,-0.033 -0.0085,-0.012 -0.01746,-0.024 -0.02673,-0.036 -0.0093,-0.013 -0.0189,-0.025 -0.02884,-0.039 -0.0099,-0.013 -0.0202,-0.027 -0.03076,-0.041 -0.01056,-0.014 -0.02142,-0.028 -0.03266,-0.043 -0.01124,-0.015 -0.02286,-0.03 -0.03486,-0.046 -0.012,-0.016 -0.02436,-0.032 -0.03698,-0.049 -0.01262,-0.016 -0.02549,-0.033 -0.0385,-0.05 -0.01302,-0.017 -0.02618,-0.034 -0.03946,-0.051 -0.01328,-0.017 -0.02666,-0.034 -0.04009,-0.052 -0.01344,-0.017 -0.02692,-0.034 -0.04044,-0.052 -0.01352,-0.017 -0.02707,-0.034 -0.04075,-0.052 -0.01368,-0.017 -0.0275,-0.035 -0.04153,-0.052 -0.01403,-0.018 -0.02826,-0.035 -0.04269,-0.053"
         style="fill:none;stroke:#000000;stroke-width:0.75;stroke-linecap:round;stroke-linejoin:round"
         id="path74" />
      <path
         d="m 57.964007,1097.7192 a 526.57458,23.289231 -10.375199 0 0 -0.945058,0.043"
         style="fill:none;stroke:#000000;stroke-width:0.75;stroke-linecap:round;stroke-linejoin:round"
         id="path75" />
      <path
         d="M 33.264,1147.0957 H 19.92 v 6.912 h 13.344 z"
         style="fill:none;stroke:#000000;stroke-width:0.75;stroke-linecap:round;stroke-linejoin:round"
         id="path76" />
      <path
         d="m 40.992,1160.5357 a 24.576,24.576 0 0 0 16.473818,-6.3389"
         style="fill:none;stroke:#000000;stroke-width:0.75;stroke-linecap:round;stroke-linejoin:round"
         id="path77" />
      <path
         style="fill:none;stroke:#000000;stroke-width:0.75;stroke-linecap:round;stroke-linejoin:round"
         d="m -41.088,1160.54 h 82.08"
         id="path78" />
      <path
         d="m -59.566955,1152.1618 a 24.576,24.576 0 0 0 18.478955,8.3739"
         style="fill:none;stroke:#000000;stroke-width:0.75;stroke-linecap:round;stroke-linejoin:round"
         id="path79" />
      <path
         d="m -59.480932,1149.5383 a 1.92,1.92 0 0 0 -0.08602,2.6235"
         style="fill:none;stroke:#000000;stroke-width:0.75;stroke-linecap:round;stroke-linejoin:round"
         id="path80" />
      <path
         style="fill:none;stroke:#000000;stroke-width:0.75;stroke-linecap:round;stroke-linejoin:round"
         d="m -57.2955,1147.35 -2.1854,2.19"
         id="path81" />
      <path
         style="fill:none;stroke:#000000;stroke-width:0.75;stroke-linecap:round;stroke-linejoin:round"
         d="m -61.8888,1146.52 h -3.2106"
         id="path82" />
      <path
         d="m -61.888795,1146.5197 a 2.001594,1.91991 -0.035808 0 0 1.831327,-2.6951"
         style="fill:none;stroke:#000000;stroke-width:0.75;stroke-linecap:round;stroke-linejoin:round"
         id="path83" />
      <path
         d="m -60.057468,1143.8246 a 18.819694,18.819694 0 0 0 2.400367,3.8899"
         style="fill:none;stroke:#000000;stroke-width:0.75;stroke-linecap:round;stroke-linejoin:round"
         id="path84" />
      <path
         d="m -60.057468,1143.8246 a 1575.2707,161.34588 157.2583 0 0 0.838789,-0.03"
         style="fill:none;stroke:#000000;stroke-width:0.75;stroke-linecap:round;stroke-linejoin:round"
         id="path85" />
      <path
         d="m -59.218679,1143.7946 a 18.048,18.048 0 0 0 2.110759,3.3707"
         style="fill:none;stroke:#000000;stroke-width:0.75;stroke-linecap:round;stroke-linejoin:round"
         id="path86" />
      <path
         style="fill:none;stroke:#000000;stroke-width:0.75;stroke-linecap:round;stroke-linejoin:round"
         d="m -57.2955,1147.35 0.2572,-0.25"
         id="path87" />
      <path
         style="fill:none;stroke:#000000;stroke-width:0.75;stroke-linecap:round;stroke-linejoin:round"
         d="M 19.92,1147.1 H -57.0383"
         id="path88" />
      <path
         style="fill:none;stroke:#000000;stroke-width:0.75;stroke-linecap:round;stroke-linejoin:round"
         d="M -57.5077,1137.88 H -67.248"
         id="path89" />
      <path
         style="fill:none;stroke:#000000;stroke-width:0.75;stroke-linecap:round;stroke-linejoin:round"
         d="m -67.248,1137.88 v 4.32"
         id="path90" />
      <path
         style="fill:none;stroke:#000000;stroke-width:0.75;stroke-linecap:round;stroke-linejoin:round"
         d="m -67.248,1142.2 h 9.7403"
         id="path91" />
      <path
         style="fill:none;stroke:#000000;stroke-width:0.75;stroke-linecap:round;stroke-linejoin:round"
         d="m -56.736,1137.88 h -0.7717"
         id="path92" />
      <path
         style="fill:none;stroke:#000000;stroke-width:0.75;stroke-linecap:round;stroke-linejoin:round"
         d="m -57.5077,1142.2 h 0.7717"
         id="path93" />
      <path
         style="fill:none;stroke:#000000;stroke-width:0.75;stroke-linecap:round;stroke-linejoin:round"
         d="m -56.736,1142.2 v -4.32"
         id="path94" />
      <path
         style="fill:none;stroke:#000000;stroke-width:0.75;stroke-linecap:round;stroke-linejoin:round"
         d="m -67.248,1102.36 v 10.08"
         id="path95" />
      <path
         style="fill:none;stroke:#000000;stroke-width:0.75;stroke-linecap:round;stroke-linejoin:round"
         d="M -67.248,1112.44 H -71.76"
         id="path96" />
      <path
         style="fill:none;stroke:#000000;stroke-width:0.75;stroke-linecap:round;stroke-linejoin:round"
         d="m -71.76,1112.44 v 20.16"
         id="path97" />
      <path
         style="fill:none;stroke:#000000;stroke-width:0.75;stroke-linecap:round;stroke-linejoin:round"
         d="m -71.76,1132.6 h 4.512"
         id="path98" />
      <path
         style="fill:none;stroke:#000000;stroke-width:0.75;stroke-linecap:round;stroke-linejoin:round"
         d="m -67.248,1132.6 v 10.08"
         id="path99" />
      <path
         style="fill:none;stroke:#000000;stroke-width:0.75;stroke-linecap:round;stroke-linejoin:round"
         d="m -67.248,1142.68 h 7.5377"
         id="path100" />
      <path
         d="m -61.008,1135.9597 v -26.88 a 18.048,18.048 0 0 1 0.102418,-1.92 18.048,18.048 0 0 0 -0.102418,1.92 v 26.88 a 18.048,18.048 0 0 0 0.102418,1.92 18.048,18.048 0 0 1 -0.102418,-1.92 z"
         style="fill:none;stroke:#000000;stroke-width:0.75;stroke-linecap:round;stroke-linejoin:round"
         id="path101" />
      <path
         style="fill:none;stroke:#000000;stroke-width:0.75;stroke-linecap:round;stroke-linejoin:round"
         d="M -59.7103,1102.36 H -67.248"
         id="path102" />
      <path
         d="m -60.057468,1101.2147 a 2.001593,1.919909 0.035819 0 0 -1.831327,-2.695"
         style="fill:none;stroke:#000000;stroke-width:0.75;stroke-linecap:round;stroke-linejoin:round"
         id="path103" />
      <path
         style="fill:none;stroke:#000000;stroke-width:0.75;stroke-linecap:round;stroke-linejoin:round"
         d="m -65.0994,1098.52 h 3.2106"
         id="path104" />
      <path
         d="m -57.657101,1097.3249 a 18.819694,18.819694 0 0 0 -2.400367,3.8898"
         style="fill:none;stroke:#000000;stroke-width:0.75;stroke-linecap:round;stroke-linejoin:round"
         id="path105" />
      <path
         d="m -59.218681,1101.2448 a 1575.6522,162.42125 -157.11754 0 0 -0.838787,-0.03"
         style="fill:none;stroke:#000000;stroke-width:0.75;stroke-linecap:round;stroke-linejoin:round"
         id="path106" />
      <path
         d="m -57.10792,1097.874 a 18.048,18.048 0 0 0 -2.110761,3.3708"
         style="fill:none;stroke:#000000;stroke-width:0.75;stroke-linecap:round;stroke-linejoin:round"
         id="path107" />
      <path
         d="m -59.218681,1101.2448 c -0.0099,0.021 -0.01986,0.041 -0.02978,0.062 -0.0099,0.021 -0.01983,0.042 -0.02972,0.063 -0.0099,0.021 -0.01974,0.042 -0.02961,0.063 -0.0099,0.021 -0.01975,0.042 -0.02962,0.064 -0.0099,0.021 -0.01972,0.043 -0.02948,0.064 -0.0098,0.021 -0.01944,0.043 -0.02903,0.064 -0.0096,0.021 -0.01908,0.042 -0.02845,0.063 -0.0094,0.021 -0.01862,0.042 -0.02771,0.062 -0.0091,0.02 -0.01803,0.041 -0.02675,0.06 -0.0087,0.02 -0.01721,0.039 -0.02548,0.058 -0.0083,0.019 -0.01633,0.038 -0.02424,0.056 -0.0079,0.018 -0.01566,0.036 -0.02327,0.054 -0.0076,0.018 -0.01507,0.035 -0.02238,0.053 -0.0057,0.013 -0.01123,0.026 -0.01669,0.04 -0.0016,0 -0.0032,0.01 -0.0047,0.011 -0.007,0.016 -0.01377,0.033 -0.02036,0.049 -0.0066,0.016 -0.01296,0.031 -0.01909,0.046 -0.0061,0.015 -0.012,0.029 -0.01757,0.043 -0.0056,0.014 -0.01084,0.027 -0.01576,0.039 -0.0049,0.012 -0.0095,0.023 -0.01367,0.034 -0.0042,0.01 -0.008,0.02 -0.01139,0.028 -0.0034,0.01 -0.0064,0.016 -0.0088,0.022 -0.0025,0.01 -0.0045,0.011 -0.0058,0.014 -0.0014,0 -0.0021,0.01 -0.0021,0.01"
         style="fill:none;stroke:#000000;stroke-width:0.75;stroke-linecap:round;stroke-linejoin:round"
         id="path108" />
      <path
         style="fill:none;stroke:#000000;stroke-width:0.75;stroke-linecap:round;stroke-linejoin:round"
         d="M -57.5077,1102.84 H -67.248"
         id="path109" />
      <path
         style="fill:none;stroke:#000000;stroke-width:0.75;stroke-linecap:round;stroke-linejoin:round"
         d="m -67.248,1102.84 v 4.32"
         id="path110" />
      <path
         style="fill:none;stroke:#000000;stroke-width:0.75;stroke-linecap:round;stroke-linejoin:round"
         d="m -67.248,1107.16 h 9.7403"
         id="path111" />
      <path
         style="fill:none;stroke:#000000;stroke-width:0.75;stroke-linecap:round;stroke-linejoin:round"
         d="m -56.736,1102.84 h -0.7717"
         id="path112" />
      <path
         style="fill:none;stroke:#000000;stroke-width:0.75;stroke-linecap:round;stroke-linejoin:round"
         d="m -57.5077,1107.16 h 0.7717"
         id="path113" />
      <path
         style="fill:none;stroke:#000000;stroke-width:0.75;stroke-linecap:round;stroke-linejoin:round"
         d="m -56.736,1107.16 v -4.32"
         id="path114" />
      <path
         style="fill:none;stroke:#000000;stroke-width:0.75;stroke-linecap:round;stroke-linejoin:round"
         d="m -56.736,1099.96 h -1.7035"
         id="path115" />
      <path
         d="m -59.827688,1102.8397 c 6.7e-5,-2e-4 0.0014,0 0.0043,-0.012 0.0029,-0.01 0.0072,-0.019 0.01301,-0.034 0.0058,-0.015 0.01302,-0.034 0.02175,-0.057 0.0087,-0.023 0.01895,-0.049 0.03065,-0.08 0.0117,-0.03 0.02489,-0.064 0.03965,-0.1013 0.01476,-0.037 0.03109,-0.078 0.04897,-0.1226 0.01787,-0.044 0.03729,-0.092 0.05837,-0.1428 0.02108,-0.051 0.04383,-0.1053 0.06822,-0.1627 0.02439,-0.057 0.05043,-0.1177 0.07829,-0.1812 0.02786,-0.063 0.05756,-0.1302 0.08913,-0.1999 0.03157,-0.07 0.06503,-0.1422 0.100359,-0.2174 0.03533,-0.075 0.07253,-0.1531 0.111437,-0.2329 0.03891,-0.08 0.07952,-0.1615 0.122064,-0.2455 0.04254,-0.084 0.087,-0.17 0.133463,-0.258 0.04646,-0.088 0.09492,-0.1782 0.145267,-0.2697 0.05035,-0.092 0.102591,-0.1847 0.156508,-0.2787 0.05392,-0.094 0.109509,-0.189 0.166692,-0.2845"
         style="fill:none;stroke:#000000;stroke-width:0.75;stroke-linecap:round;stroke-linejoin:round"
         id="path116" />
      <path
         style="fill:none;stroke:#000000;stroke-width:0.75;stroke-linecap:round;stroke-linejoin:round"
         d="m -59.8277,1102.84 h 3.0917"
         id="path117" />
      <path
         style="fill:none;stroke:#000000;stroke-width:0.75;stroke-linecap:round;stroke-linejoin:round"
         d="m -56.736,1099.96 v 2.88"
         id="path118" />
      <path
         style="fill:none;stroke:#000000;stroke-width:0.75;stroke-linecap:round;stroke-linejoin:round"
         d="m -58.4395,1145.08 h 1.7035"
         id="path119" />
      <path
         style="fill:none;stroke:#000000;stroke-width:0.75;stroke-linecap:round;stroke-linejoin:round"
         d="m -56.736,1142.2 v 2.88"
         id="path120" />
      <path
         style="fill:none;stroke:#000000;stroke-width:0.75;stroke-linecap:round;stroke-linejoin:round"
         d="m -56.736,1142.2 h -3.0917"
         id="path121" />
      <path
         d="m -58.439528,1145.0797 c -0.05718,-0.096 -0.11277,-0.1905 -0.166684,-0.2845 -0.05391,-0.094 -0.106152,-0.1871 -0.156499,-0.2787 -0.05035,-0.091 -0.0988,-0.1816 -0.145262,-0.2696 -0.04646,-0.088 -0.09092,-0.1742 -0.133462,-0.2581 -0.04254,-0.084 -0.08317,-0.1657 -0.12209,-0.2456 -0.03892,-0.08 -0.07613,-0.1576 -0.111461,-0.2329 -0.03533,-0.075 -0.06879,-0.1478 -0.100369,-0.2174 -0.03158,-0.07 -0.06127,-0.1364 -0.08913,-0.1999 -0.02786,-0.063 -0.0539,-0.1239 -0.07829,-0.1812 -0.02439,-0.057 -0.04714,-0.1117 -0.06822,-0.1626 -0.02108,-0.051 -0.04049,-0.099 -0.05836,-0.1429 -0.01787,-0.044 -0.03421,-0.085 -0.04896,-0.1226 -0.01476,-0.037 -0.02794,-0.071 -0.03965,-0.1013 -0.0117,-0.03 -0.02192,-0.057 -0.03065,-0.08 -0.0087,-0.023 -0.01596,-0.042 -0.02175,-0.057 -0.0058,-0.015 -0.01013,-0.027 -0.01301,-0.034 -0.0029,-0.01 -0.0043,-0.011 -0.0043,-0.012"
         style="fill:none;stroke:#000000;stroke-width:0.75;stroke-linecap:round;stroke-linejoin:round"
         id="path122" />
      <path
         d="m -60.96,1115.3197 h 4.224 v -2.88 h -4.224 z"
         style="fill:none;stroke:#000000;stroke-width:0.75;stroke-linecap:round;stroke-linejoin:round"
         id="path123" />
      <path
         style="fill:none;stroke:#000000;stroke-width:0.75;stroke-linecap:round;stroke-linejoin:round"
         d="m -52.0812,1097.94 h -4.9571"
         id="path124" />
      <path
         style="fill:none;stroke:#000000;stroke-width:0.75;stroke-linecap:round;stroke-linejoin:round"
         d="m -57.0383,1097.94 h -0.1245"
         id="path125" />
      <path
         style="fill:none;stroke:#000000;stroke-width:0.75;stroke-linecap:round;stroke-linejoin:round"
         d="m -57.1628,1147.1 h 0.1245"
         id="path126" />
      <path
         style="fill:none;stroke:#000000;stroke-width:0.75;stroke-linecap:round;stroke-linejoin:round"
         d="m -57.0383,1147.1 h 4.9571"
         id="path127" />
      <path
         style="fill:none;stroke:#000000;stroke-width:0.75;stroke-linecap:round;stroke-linejoin:round"
         d="m -56.736,1137.88 v 7.2"
         id="path128" />
      <path
         style="fill:none;stroke:#000000;stroke-width:0.75;stroke-linecap:round;stroke-linejoin:round"
         d="m -56.736,1145.08 h -1.7035"
         id="path129" />
      <path
         style="fill:none;stroke:#000000;stroke-width:0.75;stroke-linecap:round;stroke-linejoin:round"
         d="m -60.96,1135.96 v -6.24"
         id="path130" />
      <path
         style="fill:none;stroke:#000000;stroke-width:0.75;stroke-linecap:round;stroke-linejoin:round"
         d="m -60.96,1129.72 h 4.224"
         id="path131" />
      <path
         style="fill:none;stroke:#000000;stroke-width:0.75;stroke-linecap:round;stroke-linejoin:round"
         d="m -56.736,1129.72 v -14.4"
         id="path132" />
      <path
         style="fill:none;stroke:#000000;stroke-width:0.75;stroke-linecap:round;stroke-linejoin:round"
         d="M -56.736,1115.32 H -60.96"
         id="path133" />
      <path
         style="fill:none;stroke:#000000;stroke-width:0.75;stroke-linecap:round;stroke-linejoin:round"
         d="m -60.96,1115.32 v -6.24"
         id="path134" />
      <path
         style="fill:none;stroke:#000000;stroke-width:0.75;stroke-linecap:round;stroke-linejoin:round"
         d="m -58.4395,1099.96 h 1.7035"
         id="path135" />
      <path
         style="fill:none;stroke:#000000;stroke-width:0.75;stroke-linecap:round;stroke-linejoin:round"
         d="m -56.736,1099.96 v 7.2"
         id="path136" />
      <path
         d="m -56.736,1129.7197 h -4.224 v 2.88 h 4.224 z"
         style="fill:none;stroke:#000000;stroke-width:0.75;stroke-linecap:round;stroke-linejoin:round"
         id="path137" />
      <path
         d="m -56.736,1112.4397 v -0.7717 h -4.224 v 0.7717 z"
         style="fill:none;stroke:#000000;stroke-width:0.75;stroke-linecap:round;stroke-linejoin:round"
         id="path138" />
      <path
         d="m -60.96,1132.5997 v 0.7717 h 4.224 v -0.7717 z"
         style="fill:none;stroke:#000000;stroke-width:0.75;stroke-linecap:round;stroke-linejoin:round"
         id="path139" />
      <path
         d="M 60.768,1111.4797 H 56.64 v 22.08 h 4.128 z"
         style="fill:none;stroke:#000000;stroke-width:0.75;stroke-linecap:round;stroke-linejoin:round"
         id="path140" />
      <path
         style="fill:none;stroke:#000000;stroke-width:0.75;stroke-linecap:round;stroke-linejoin:round"
         d="m 56.64,1111.48 h 4.128"
         id="path141" />
      <path
         style="fill:none;stroke:#000000;stroke-width:0.75;stroke-linecap:round;stroke-linejoin:round"
         d="m 60.768,1109.08 v 2.4"
         id="path142" />
      <path
         d="m 60.761547,1108.5997 c 5e-6,2e-4 9.1e-5,0 2.68e-4,0.01 1.76e-4,0.01 4.39e-4,0.017 7.71e-4,0.03 3.31e-4,0.013 7.31e-4,0.03 0.0012,0.05 4.38e-4,0.02 9.13e-4,0.043 0.0014,0.07 4.73e-4,0.026 9.43e-4,0.056 0.0014,0.089 4.21e-4,0.033 7.93e-4,0.068 0.0011,0.1067 2.68e-4,0.039 4.32e-4,0.08 4.32e-4,0.1243"
         style="fill:none;stroke:#000000;stroke-width:0.75;stroke-linecap:round;stroke-linejoin:round"
         id="path143" />
      <path
         style="fill:none;stroke:#000000;stroke-width:0.75;stroke-linecap:round;stroke-linejoin:round"
         d="M 60.7615,1108.6 H 56.64"
         id="path144" />
      <path
         style="fill:none;stroke:#000000;stroke-width:0.75;stroke-linecap:round;stroke-linejoin:round"
         d="m 56.64,1111.48 v -2.88"
         id="path145" />
      <path
         d="m 60.953512,1108.5997 a 264.21376,68.383501 9.5e-4 0 0 -0.03768,-0.7717"
         style="fill:none;stroke:#000000;stroke-width:0.75;stroke-linecap:round;stroke-linejoin:round"
         id="path146" />
      <path
         style="fill:none;stroke:#000000;stroke-width:0.75;stroke-linecap:round;stroke-linejoin:round"
         d="M 60.9158,1107.83 H 56.64"
         id="path147" />
      <path
         style="fill:none;stroke:#000000;stroke-width:0.75;stroke-linecap:round;stroke-linejoin:round"
         d="m 56.64,1107.83 v 0.77"
         id="path148" />
      <path
         style="fill:none;stroke:#000000;stroke-width:0.75;stroke-linecap:round;stroke-linejoin:round"
         d="m 56.64,1108.6 h 4.3135"
         id="path149" />
      <path
         style="fill:none;stroke:#000000;stroke-width:0.75;stroke-linecap:round;stroke-linejoin:round"
         d="M 60.768,1133.56 H 56.64"
         id="path150" />
      <path
         style="fill:none;stroke:#000000;stroke-width:0.75;stroke-linecap:round;stroke-linejoin:round"
         d="m 56.64,1136.44 v -2.88"
         id="path151" />
      <path
         style="fill:none;stroke:#000000;stroke-width:0.75;stroke-linecap:round;stroke-linejoin:round"
         d="m 56.64,1136.44 h 4.1215"
         id="path152" />
      <path
         d="m 60.768,1135.9597 c 0,0.044 -1.64e-4,0.086 -4.32e-4,0.1242 -2.69e-4,0.039 -6.41e-4,0.074 -0.0011,0.1068 -4.22e-4,0.032 -8.92e-4,0.062 -0.0014,0.088 -4.73e-4,0.026 -9.48e-4,0.05 -0.0014,0.07 -4.38e-4,0.02 -8.38e-4,0.037 -0.0012,0.05 -3.32e-4,0.013 -5.95e-4,0.024 -7.71e-4,0.03 -1.77e-4,0.01 -2.63e-4,0.01 -2.68e-4,0.01"
         style="fill:none;stroke:#000000;stroke-width:0.75;stroke-linecap:round;stroke-linejoin:round"
         id="path153" />
      <path
         style="fill:none;stroke:#000000;stroke-width:0.75;stroke-linecap:round;stroke-linejoin:round"
         d="m 60.768,1133.56 v 2.4"
         id="path154" />
      <path
         style="fill:none;stroke:#000000;stroke-width:0.75;stroke-linecap:round;stroke-linejoin:round"
         d="m 56.64,1136.44 v 0.77"
         id="path155" />
      <path
         style="fill:none;stroke:#000000;stroke-width:0.75;stroke-linecap:round;stroke-linejoin:round"
         d="m 56.64,1137.21 h 4.2758"
         id="path156" />
      <path
         d="m 60.915837,1137.2114 a 264.21376,68.383501 -9.5e-4 0 0 0.03768,-0.7717"
         style="fill:none;stroke:#000000;stroke-width:0.75;stroke-linecap:round;stroke-linejoin:round"
         id="path157" />
      <path
         style="fill:none;stroke:#000000;stroke-width:0.75;stroke-linecap:round;stroke-linejoin:round"
         d="M 60.9535,1136.44 H 56.64"
         id="path158" />
      <path
         d="m 57.596144,1146.5197 a 18.048,18.048 0 0 0 0.334624,-0.48"
         style="fill:none;stroke:#000000;stroke-width:0.75;stroke-linecap:round;stroke-linejoin:round"
         id="path159" />
      <path
         d="m 60.064172,1141.7197 a 18.048,18.048 0 0 0 0.943828,-5.76"
         style="fill:none;stroke:#000000;stroke-width:0.75;stroke-linecap:round;stroke-linejoin:round"
         id="path160" />
      <path
         style="fill:none;stroke:#000000;stroke-width:0.75;stroke-linecap:round;stroke-linejoin:round"
         d="m 59.6093,1150.36 h 1.5825"
         id="path161" />
      <path
         d="m 61.008,1109.0797 a 18.048,18.048 0 0 0 -0.943828,-5.76"
         style="fill:none;stroke:#000000;stroke-width:0.75;stroke-linecap:round;stroke-linejoin:round"
         id="path162" />
      <path
         d="m 57.930768,1098.9997 a 18.048,18.048 0 0 0 -0.334624,-0.48"
         style="fill:none;stroke:#000000;stroke-width:0.75;stroke-linecap:round;stroke-linejoin:round"
         id="path163" />
      <path
         d="m -60.96,1135.9597 a 17.76,17.76 0 0 0 0.104089,1.92"
         style="fill:none;stroke:#000000;stroke-width:0.75;stroke-linecap:round;stroke-linejoin:round"
         id="path164" />
      <path
         d="m -59.827688,1142.1997 a 17.76,17.76 0 0 0 1.38816,2.88"
         style="fill:none;stroke:#000000;stroke-width:0.75;stroke-linecap:round;stroke-linejoin:round"
         id="path165" />
      <path
         d="m -59.894955,1142.1997 a 18.048,18.048 0 0 0 0.184674,0.48"
         style="fill:none;stroke:#000000;stroke-width:0.75;stroke-linecap:round;stroke-linejoin:round"
         id="path166" />
      <path
         d="m -59.894955,1142.1997 a 18.048,18.048 0 0 0 2.732145,4.896"
         style="fill:none;stroke:#000000;stroke-width:0.75;stroke-linecap:round;stroke-linejoin:round"
         id="path167" />
      <path
         d="m -57.16281,1097.9437 a 18.048,18.048 0 0 0 -2.732145,4.896"
         style="fill:none;stroke:#000000;stroke-width:0.75;stroke-linecap:round;stroke-linejoin:round"
         id="path168" />
      <path
         d="m -58.439528,1099.9597 a 17.76,17.76 0 0 0 -1.38816,2.88"
         style="fill:none;stroke:#000000;stroke-width:0.75;stroke-linecap:round;stroke-linejoin:round"
         id="path169" />
      <path
         d="m -60.855911,1107.1597 a 17.76,17.76 0 0 0 -0.104089,1.92"
         style="fill:none;stroke:#000000;stroke-width:0.75;stroke-linecap:round;stroke-linejoin:round"
         id="path170" />
      <path
         d="m -59.710281,1102.3597 a 18.048,18.048 0 0 0 -0.184674,0.48"
         style="fill:none;stroke:#000000;stroke-width:0.75;stroke-linecap:round;stroke-linejoin:round"
         id="path171" />
    </g>
  </g>
</svg>
