<?xml version="1.0" encoding="UTF-8" standalone="no"?>
<svg
   viewBox="0 0 280.93896 131.33269"
   width="280.93896"
   height="131.33269"
   version="1.1"
   id="svg96"
   sodipodi:docname="3-1437290-7.svg"
   xml:space="preserve"
   inkscape:version="1.4 (86a8ad7, 2024-10-11)"
   xmlns:inkscape="http://www.inkscape.org/namespaces/inkscape"
   xmlns:sodipodi="http://sodipodi.sourceforge.net/DTD/sodipodi-0.dtd"
   xmlns="http://www.w3.org/2000/svg"
   xmlns:svg="http://www.w3.org/2000/svg"><sodipodi:namedview
     id="namedview96"
     pagecolor="#ffffff"
     bordercolor="#666666"
     borderopacity="1.0"
     inkscape:showpageshadow="2"
     inkscape:pageopacity="0.0"
     inkscape:pagecheckerboard="0"
     inkscape:deskcolor="#d1d1d1"
     inkscape:zoom="4.1040942"
     inkscape:cx="140.46949"
     inkscape:cy="65.666135"
     inkscape:window-width="1920"
     inkscape:window-height="1009"
     inkscape:window-x="1912"
     inkscape:window-y="-8"
     inkscape:window-maximized="1"
     inkscape:current-layer="layer6"
     showgrid="false" /><desc
     id="desc1">3-1437290-7(front).dxf - scale = 25.400000, origin = (0.000000, 0.000000), method = file</desc><defs
     id="defs4"><marker
       id="DistanceX"
       orient="auto"
       refX="0"
       refY="0"
       style="overflow:visible"><path
         d="M 3,-3 -3,3 M 0,-5 V 5"
         style="stroke:#000000;stroke-width:0.5"
         id="path1" /></marker><pattern
       id="Hatch"
       patternUnits="userSpaceOnUse"
       width="8"
       height="8"
       x="0"
       y="0"><path
         d="M8 4 l-4,4"
         stroke="#000000"
         stroke-width="0.25"
         linecap="square"
         id="path2" /><path
         d="M6 2 l-4,4"
         stroke="#000000"
         stroke-width="0.25"
         linecap="square"
         id="path3" /><path
         d="M4 0 l-4,4"
         stroke="#000000"
         stroke-width="0.25"
         linecap="square"
         id="path4" /></pattern><symbol
       id="*MODEL_SPACE" /><symbol
       id="*PAPER_SPACE" /><marker
       id="DistanceX-8"
       orient="auto"
       refX="0"
       refY="0"
       style="overflow:visible"><path
         d="M 3,-3 -3,3 M 0,-5 V 5"
         style="stroke:#000000;stroke-width:0.5"
         id="path1-2" /></marker><pattern
       id="Hatch-4"
       patternUnits="userSpaceOnUse"
       width="8"
       height="8"
       x="0"
       y="0"><path
         d="M8 4 l-4,4"
         stroke="#000000"
         stroke-width="0.25"
         linecap="square"
         id="path2-5" /><path
         d="M6 2 l-4,4"
         stroke="#000000"
         stroke-width="0.25"
         linecap="square"
         id="path3-5" /><path
         d="M4 0 l-4,4"
         stroke="#000000"
         stroke-width="0.25"
         linecap="square"
         id="path4-1" /></pattern><symbol
       id="*MODEL_SPACE-7" /><symbol
       id="*PAPER_SPACE-1" /></defs><g
     inkscape:label="back"
     id="g109"
     transform="matrix(0.03937007,0,0,0.03937007,140.4695,27.99236)"
     inkscape:groupmode="layer"
     style="display:inline"><g
       inkscape:groupmode="layer"
       id="layer6"
       inkscape:label="shell"><path
         d="m 2704.0004,77.079685 h -96 V -365.48032 a 144,144 0 0 0 -144,-144 h -864 a 144,144 0 0 0 -143.9999,144 V 77.079685 h -96.0001 v -10.56 -624.000005 h 1344 V 66.519685 Z"
         style="display:inline;fill:none;stroke:#000000;stroke-width:19.05;stroke-linecap:round;stroke-linejoin:round"
         id="path5-1" /><path
         d="m 2104.0004,2423.3197 v 48 h 312 v -48 z"
         style="display:inline;fill:none;stroke:#000000;stroke-width:19.05;stroke-linecap:round;stroke-linejoin:round"
         id="path6-5" /><path
         d="m 1648.0004,2423.3197 v 48 h 312 v -48 z"
         style="display:inline;fill:none;stroke:#000000;stroke-width:19.05;stroke-linecap:round;stroke-linejoin:round"
         id="path7-2" /><path
         d="M 3558.4004,503.31968 A 681.6,681.6 0 0 0 2977.7782,-170.75898"
         style="display:inline;fill:none;stroke:#000000;stroke-width:19.05;stroke-linecap:round;stroke-linejoin:round"
         id="path8-7" /><path
         d="m 2976.6443,-170.93578 a 96,96 0 0 0 1.1339,0.1768"
         style="display:inline;fill:none;stroke:#000000;stroke-width:19.05;stroke-linecap:round;stroke-linejoin:round"
         id="path9-6" /><path
         d="m 2976.6443,-170.93578 c -10.2221,-1.65645 -20.3001,-5.03168 -29.458,-9.8657 -8.7766,-4.6328 -16.921,-10.71417 -23.8561,-17.81317"
         style="display:inline;fill:none;stroke:#000000;stroke-width:19.05;stroke-linecap:round;stroke-linejoin:round"
         id="path10-1" /><path
         d="m 2896.0004,-265.69964 a 96,96 0 0 0 27.3298,67.08499"
         style="display:inline;fill:none;stroke:#000000;stroke-width:19.05;stroke-linecap:round;stroke-linejoin:round"
         id="path11-4" /><path
         style="display:inline;fill:none;stroke:#000000;stroke-width:19.05;stroke-linecap:round;stroke-linejoin:round"
         d="M 2896.0004,-461.48 V -265.7"
         id="path12-2" /><path
         style="display:inline;fill:none;stroke:#000000;stroke-width:19.05;stroke-linecap:round;stroke-linejoin:round"
         d="m 2896.0004,-605.48 v 144"
         id="path13-3" /><path
         d="m 2896.0004,-605.48032 a 96,96 0 0 0 -96,-96"
         style="display:inline;fill:none;stroke:#000000;stroke-width:19.05;stroke-linecap:round;stroke-linejoin:round"
         id="path14-2" /><path
         style="display:inline;fill:none;stroke:#000000;stroke-width:19.05;stroke-linecap:round;stroke-linejoin:round"
         d="m 1264.0004,-701.48 h 1536"
         id="path15-2" /><path
         d="m 1264.0004,-701.48032 a 96,96 0 0 0 -96,96"
         style="display:inline;fill:none;stroke:#000000;stroke-width:19.05;stroke-linecap:round;stroke-linejoin:round"
         id="path16-1" /><path
         style="display:inline;fill:none;stroke:#000000;stroke-width:19.05;stroke-linecap:round;stroke-linejoin:round"
         d="m 1168.0004,-461.48 v -144"
         id="path17-6" /><path
         style="display:inline;fill:none;stroke:#000000;stroke-width:19.05;stroke-linecap:round;stroke-linejoin:round"
         d="M 1168.0004,-265.686 V -461.48"
         id="path18-8" /><path
         d="m 1137.3998,-195.42214 a 95.999994,95.999994 0 0 0 30.6006,-70.26411"
         style="display:inline;fill:none;stroke:#000000;stroke-width:19.05;stroke-linecap:round;stroke-linejoin:round"
         id="path19-5" /><path
         d="m 1137.3998,-195.42214 c -7.601,7.07334 -16.4779,12.9721 -25.9434,17.23951 -7.7671,3.5017 -16.0765,5.98161 -24.4924,7.30963"
         style="display:inline;fill:none;stroke:#000000;stroke-width:19.05;stroke-linecap:round;stroke-linejoin:round"
         id="path20-7" /><path
         d="m 1086.2227,-170.75898 a 96,96 0 0 0 0.7413,-0.11402"
         style="display:inline;fill:none;stroke:#000000;stroke-width:19.05;stroke-linecap:round;stroke-linejoin:round"
         id="path21-6" /><path
         d="M 1086.2227,-170.75898 A 681.6,681.6 0 0 0 505.60044,503.31968"
         style="display:inline;fill:none;stroke:#000000;stroke-width:19.05;stroke-linecap:round;stroke-linejoin:round"
         id="path22-1" /><path
         style="display:inline;fill:none;stroke:#000000;stroke-width:19.05;stroke-linecap:round;stroke-linejoin:round"
         d="m 505.60044,503.32 v 1238.4"
         id="path23-8" /><path
         d="m 505.60044,1741.7197 a 681.6,681.6 0 0 0 681.59996,681.6"
         style="display:inline;fill:none;stroke:#000000;stroke-width:19.05;stroke-linecap:round;stroke-linejoin:round"
         id="path24-9" /><path
         style="display:inline;fill:none;stroke:#000000;stroke-width:19.05;stroke-linecap:round;stroke-linejoin:round"
         d="m 1187.2004,2423.32 h 268.8001"
         id="path25-2" /><path
         style="display:inline;fill:none;stroke:#000000;stroke-width:19.05;stroke-linecap:round;stroke-linejoin:round"
         d="m 1456.0005,2471.32 v -48"
         id="path26-7" /><path
         d="m 1456.0005,2471.3197 a 144,144 0 0 0 143.9999,144"
         style="display:inline;fill:none;stroke:#000000;stroke-width:19.05;stroke-linecap:round;stroke-linejoin:round"
         id="path27-9" /><path
         style="display:inline;fill:none;stroke:#000000;stroke-width:19.05;stroke-linecap:round;stroke-linejoin:round"
         d="m 2464.0004,2615.32 h -864"
         id="path28-5" /><path
         d="m 2464.0004,2615.3197 a 144,144 0 0 0 144,-144"
         style="display:inline;fill:none;stroke:#000000;stroke-width:19.05;stroke-linecap:round;stroke-linejoin:round"
         id="path29-4" /><path
         style="display:inline;fill:none;stroke:#000000;stroke-width:19.05;stroke-linecap:round;stroke-linejoin:round"
         d="m 2608.0004,2423.32 v 48"
         id="path30-3" /><path
         style="display:inline;fill:none;stroke:#000000;stroke-width:19.05;stroke-linecap:round;stroke-linejoin:round"
         d="m 2608.0004,2423.32 h 268.8"
         id="path31-1" /><path
         d="m 2876.8004,2423.3197 a 681.6,681.6 0 0 0 681.6,-681.6"
         style="display:inline;fill:none;stroke:#000000;stroke-width:19.05;stroke-linecap:round;stroke-linejoin:round"
         id="path32-2" /><path
         style="display:inline;fill:none;stroke:#000000;stroke-width:19.05;stroke-linecap:round;stroke-linejoin:round"
         d="M 3558.4004,1741.72 V 503.32"
         id="path33-3" /><path
         d="M 3409.6004,503.31968 A 532.8,532.8 0 0 0 2974.4126,-20.462422"
         style="display:inline;fill:none;stroke:#000000;stroke-width:19.05;stroke-linecap:round;stroke-linejoin:round"
         id="path34-3" /><path
         style="display:inline;fill:none;stroke:#000000;stroke-width:19.05;stroke-linecap:round;stroke-linejoin:round"
         d="m 3409.6004,503.32 v 415.2"
         id="path35-4" /><path
         d="M 3423.3215,1326.5197 H 3260.8004 V 918.51968 h 162.5211 z"
         style="display:inline;fill:none;stroke:#000000;stroke-width:19.05;stroke-linecap:round;stroke-linejoin:round"
         id="path36-1" /><path
         style="display:inline;fill:none;stroke:#000000;stroke-width:19.05;stroke-linecap:round;stroke-linejoin:round"
         d="m 3260.8004,1326.52 v -12"
         id="path37-1" /><path
         d="m 3260.8004,1314.5197 h 96 V 930.51968 h -96 96 v 384.00002 z"
         style="display:inline;fill:none;stroke:#000000;stroke-width:19.05;stroke-linecap:round;stroke-linejoin:round"
         id="path38-3" /><path
         style="display:inline;fill:none;stroke:#000000;stroke-width:19.05;stroke-linecap:round;stroke-linejoin:round"
         d="m 3260.8004,930.52 v -12"
         id="path39-8" /><path
         style="display:inline;fill:none;stroke:#000000;stroke-width:19.05;stroke-linecap:round;stroke-linejoin:round"
         d="m 3260.8004,1314.52 v -384"
         id="path40-7" /><path
         style="display:inline;fill:none;stroke:#000000;stroke-width:19.05;stroke-linecap:round;stroke-linejoin:round"
         d="m 3409.6004,1326.52 v 415.2"
         id="path41-4" /><path
         d="m 2876.8004,2274.5197 a 532.8,532.8 0 0 0 532.8,-532.8"
         style="display:inline;fill:none;stroke:#000000;stroke-width:19.05;stroke-linecap:round;stroke-linejoin:round"
         id="path42-2" /><path
         style="display:inline;fill:none;stroke:#000000;stroke-width:19.05;stroke-linecap:round;stroke-linejoin:round"
         d="m 2876.8004,2274.52 h -172.8"
         id="path43-7" /><path
         d="m 2704.0004,2274.5197 a 96,96 0 0 0 -96,96"
         style="display:inline;fill:none;stroke:#000000;stroke-width:19.05;stroke-linecap:round;stroke-linejoin:round"
         id="path44-7" /><path
         d="m 803.20044,1326.5197 v -408.00002 12 h -96 96 v 384.00002 h -96 V 930.51968 1314.5197 h 96 z"
         style="display:inline;fill:none;stroke:#000000;stroke-width:19.05;stroke-linecap:round;stroke-linejoin:round"
         id="path45-9" /><path
         d="m 1168.0004,66.519685 a 48,48 0 0 0 48,47.999995 h 96 a 48,48 0 0 0 48,-47.999995 V -557.48032 h -96 a 96,96 0 0 0 -96,96 z"
         style="display:inline;fill:none;stroke:#000000;stroke-width:19.05;stroke-linecap:round;stroke-linejoin:round"
         id="path46-3" /><path
         style="display:inline;fill:none;stroke:#000000;stroke-width:19.05;stroke-linecap:round;stroke-linejoin:round"
         d="m 1216.0004,114.52 h 96"
         id="path47-1" /><path
         style="display:inline;fill:none;stroke:#000000;stroke-width:19.05;stroke-linecap:round;stroke-linejoin:round"
         d="M 1360.0004,66.5197 V 114.52"
         id="path48-9" /><path
         style="display:inline;fill:none;stroke:#000000;stroke-width:19.05;stroke-linecap:round;stroke-linejoin:round"
         d="m 1360.0004,114.52 h 96.0001"
         id="path49-8" /><path
         style="display:inline;fill:none;stroke:#000000;stroke-width:19.05;stroke-linecap:round;stroke-linejoin:round"
         d="m 1456.0005,114.52 v -480"
         id="path50-6" /><path
         d="m 1600.0004,-509.48032 a 144,144 0 0 0 -143.9999,144"
         style="display:inline;fill:none;stroke:#000000;stroke-width:19.05;stroke-linecap:round;stroke-linejoin:round"
         id="path51-5" /><path
         style="display:inline;fill:none;stroke:#000000;stroke-width:19.05;stroke-linecap:round;stroke-linejoin:round"
         d="m 1600.0004,-509.48 h 864"
         id="path52-0" /><path
         d="m 2608.0004,-365.48032 a 144,144 0 0 0 -144,-144"
         style="display:inline;fill:none;stroke:#000000;stroke-width:19.05;stroke-linecap:round;stroke-linejoin:round"
         id="path53-2" /><path
         style="display:inline;fill:none;stroke:#000000;stroke-width:19.05;stroke-linecap:round;stroke-linejoin:round"
         d="m 2608.0004,-365.48 v 480"
         id="path54-8" /><path
         style="display:inline;fill:none;stroke:#000000;stroke-width:19.05;stroke-linecap:round;stroke-linejoin:round"
         d="m 2608.0004,114.52 h 96"
         id="path55-6" /><path
         style="display:inline;fill:none;stroke:#000000;stroke-width:19.05;stroke-linecap:round;stroke-linejoin:round"
         d="M 2704.0004,114.52 V 66.5197"
         id="path56-0" /><path
         d="m 2704.0004,66.519685 a 48,48 0 0 0 48,47.999995"
         style="display:inline;fill:none;stroke:#000000;stroke-width:19.05;stroke-linecap:round;stroke-linejoin:round"
         id="path57-2" /><path
         style="display:inline;fill:none;stroke:#000000;stroke-width:19.05;stroke-linecap:round;stroke-linejoin:round"
         d="m 2752.0004,114.52 h 96"
         id="path58-4" /><path
         d="m 2848.0004,114.51968 a 48,48 0 0 0 48,-47.999995"
         style="display:inline;fill:none;stroke:#000000;stroke-width:19.05;stroke-linecap:round;stroke-linejoin:round"
         id="path59-8" /><path
         d="m 2416.0004,2274.5197 h -312 v 196.8 h 312 z"
         style="display:inline;fill:none;stroke:#000000;stroke-width:19.05;stroke-linecap:round;stroke-linejoin:round"
         id="path60-6" /><path
         d="m 2876.8004,412.11968 v -48 h -1689.6 v 48 a 182.4,182.4 0 0 0 -139.1999,300.26909 v 820.26183 a 182.4,182.4 0 0 0 139.1999,300.2691 v 48 h 1689.6 v -48 a 182.4,182.4 0 0 0 139.2,-300.2691 V 712.38877 a 182.4,182.4 0 0 0 -139.2,-300.26909 z"
         style="display:inline;fill:none;stroke:#000000;stroke-width:19.05;stroke-linecap:round;stroke-linejoin:round"
         id="path61-5" /><path
         d="m 1960.0004,2274.5197 h -312 v 196.8 h 312 z"
         style="display:inline;fill:none;stroke:#000000;stroke-width:19.05;stroke-linecap:round;stroke-linejoin:round"
         id="path62-0" /><path
         d="m 1456.0005,2370.5197 a 96,96 0 0 0 -96.0001,-96"
         style="display:inline;fill:none;stroke:#000000;stroke-width:19.05;stroke-linecap:round;stroke-linejoin:round"
         id="path63-9" /><path
         style="display:inline;fill:none;stroke:#000000;stroke-width:19.05;stroke-linecap:round;stroke-linejoin:round"
         d="m 1360.0004,2274.52 h -172.8"
         id="path64-0" /><path
         d="m 654.40044,1741.7197 a 532.8,532.8 0 0 0 532.79996,532.8"
         style="display:inline;fill:none;stroke:#000000;stroke-width:19.05;stroke-linecap:round;stroke-linejoin:round"
         id="path65-0" /><path
         style="display:inline;fill:none;stroke:#000000;stroke-width:19.05;stroke-linecap:round;stroke-linejoin:round"
         d="m 654.40044,1741.72 v -415.2"
         id="path66-6" /><path
         style="display:inline;fill:none;stroke:#000000;stroke-width:19.05;stroke-linecap:round;stroke-linejoin:round"
         d="m 640.68044,918.52 h 162.52"
         id="path67-1" /><path
         style="display:inline;fill:none;stroke:#000000;stroke-width:19.05;stroke-linecap:round;stroke-linejoin:round"
         d="m 803.20044,1326.52 h -162.52"
         id="path68-3" /><path
         style="display:inline;fill:none;stroke:#000000;stroke-width:19.05;stroke-linecap:round;stroke-linejoin:round"
         d="m 640.68044,1326.52 v -408"
         id="path69-8" /><path
         style="display:inline;fill:none;stroke:#000000;stroke-width:19.05;stroke-linecap:round;stroke-linejoin:round"
         d="M 654.40044,918.52 V 503.32"
         id="path70-9" /><path
         d="M 1089.5882,-20.462422 A 532.8,532.8 0 0 0 654.40044,503.31968"
         style="display:inline;fill:none;stroke:#000000;stroke-width:19.05;stroke-linecap:round;stroke-linejoin:round"
         id="path71-3" /><path
         d="m 1089.5882,-20.462422 a 96,96 0 0 0 78.4122,-94.375158"
         style="display:inline;fill:none;stroke:#000000;stroke-width:19.05;stroke-linecap:round;stroke-linejoin:round"
         id="path72-4" /><path
         d="m 2896.0004,-114.83758 a 96,96 0 0 0 78.4122,94.375158"
         style="display:inline;fill:none;stroke:#000000;stroke-width:19.05;stroke-linecap:round;stroke-linejoin:round"
         id="path73-4" /><path
         style="display:inline;fill:none;stroke:#000000;stroke-width:19.05;stroke-linecap:round;stroke-linejoin:round"
         d="M 2896.0004,-461.48 V 66.5197"
         id="path74-6" /><path
         d="m 2896.0004,-461.48032 a 96,96 0 0 0 -96,-96"
         style="display:inline;fill:none;stroke:#000000;stroke-width:19.05;stroke-linecap:round;stroke-linejoin:round"
         id="path75-0" /><path
         style="display:inline;fill:none;stroke:#000000;stroke-width:19.05;stroke-linecap:round;stroke-linejoin:round"
         d="m 2704.0004,-557.48 h 96"
         id="path76-6" /><path
         d="m 1312.0004,114.51968 a 48,48 0 0 0 48,-47.999995"
         style="display:inline;fill:none;stroke:#000000;stroke-width:19.05;stroke-linecap:round;stroke-linejoin:round"
         id="path77-6" /><path
         d="m 1168.0004,66.519685 a 48,48 0 0 0 48,47.999995"
         style="display:inline;fill:none;stroke:#000000;stroke-width:19.05;stroke-linecap:round;stroke-linejoin:round"
         id="path78-1" /><path
         style="display:inline;fill:none;stroke:#000000;stroke-width:19.05;stroke-linecap:round;stroke-linejoin:round"
         d="M 1168.0004,66.5197 V -461.48"
         id="path79-8" /><path
         style="display:inline;fill:none;stroke:#000000;stroke-width:19.05;stroke-linecap:round;stroke-linejoin:round"
         d="m 1264.0004,-557.48 h 96"
         id="path80-4" /><path
         style="display:inline;fill:none;stroke:#000000;stroke-width:19.05;stroke-linecap:round;stroke-linejoin:round"
         d="m 2608.0004,2370.52 v 52.8"
         id="path108" /><path
         style="display:inline;fill:none;stroke:#000000;stroke-width:19.05;stroke-linecap:round;stroke-linejoin:round"
         d="m 1456.0005,2370.52 v 52.8"
         id="path109" /></g><g
       inkscape:groupmode="layer"
       id="layer4"
       inkscape:label="pins"
       style="display:inline"><path
         d="m 3030.4004,1650.5197 a 134.4,134.4 0 0 0 -268.8,0 134.4,134.4 0 0 0 268.8,0 z"
         style="display:inline;fill:none;stroke:#000000;stroke-width:19.05;stroke-linecap:round;stroke-linejoin:round"
         id="path105"
         inkscape:label="26" /><path
         d="m 2728.0004,1650.5197 a 120,120 0 0 0 -240,0 120,120 0 0 0 240,0 z"
         style="display:inline;fill:none;stroke:#000000;stroke-width:19.05;stroke-linecap:round;stroke-linejoin:round"
         id="path87-2"
         inkscape:label="25" /><path
         d="m 2440.0004,1650.5197 a 120,120 0 0 0 -240,0 120,120 0 0 0 240,0 z"
         style="display:inline;fill:none;stroke:#000000;stroke-width:19.05;stroke-linecap:round;stroke-linejoin:round"
         id="path88-9"
         inkscape:label="24" /><path
         d="m 2152.0004,1650.5197 a 120,120 0 0 0 -240,0 120,120 0 0 0 240,0 z"
         style="display:inline;fill:none;stroke:#000000;stroke-width:19.05;stroke-linecap:round;stroke-linejoin:round"
         id="path89-1"
         inkscape:label="23" /><path
         d="m 1864.0004,1650.5197 a 120,120 0 0 0 -240,0 120,120 0 0 0 240,0 z"
         style="display:inline;fill:none;stroke:#000000;stroke-width:19.05;stroke-linecap:round;stroke-linejoin:round"
         id="path90-3"
         inkscape:label="22" /><path
         d="m 1576.0004,1650.5197 a 120,120 0 0 0 -240,0 120,120 0 0 0 240,0 z"
         style="display:inline;fill:none;stroke:#000000;stroke-width:19.05;stroke-linecap:round;stroke-linejoin:round"
         id="path91-5"
         inkscape:label="21" /><path
         d="m 1302.4004,1650.5197 a 134.4,134.4 0 0 0 -268.7999,0 134.4,134.4 0 0 0 268.7999,0 z"
         style="display:inline;fill:none;stroke:#000000;stroke-width:19.05;stroke-linecap:round;stroke-linejoin:round"
         id="path106"
         inkscape:label="20" /><path
         d="m 2872.0004,1314.5197 a 120,120 0 0 0 -240,0 120,120 0 0 0 240,0 z"
         style="display:inline;fill:none;stroke:#000000;stroke-width:19.05;stroke-linecap:round;stroke-linejoin:round"
         id="path98"
         inkscape:label="19" /><path
         d="m 2584.0004,1314.5197 a 120,120 0 0 0 -240,0 120,120 0 0 0 240,0 z"
         style="display:inline;fill:none;stroke:#000000;stroke-width:19.05;stroke-linecap:round;stroke-linejoin:round"
         id="path99"
         inkscape:label="18" /><path
         d="m 2296.0004,1314.5197 a 120,120 0 0 0 -240,0 120,120 0 0 0 240,0 z"
         style="display:inline;fill:none;stroke:#000000;stroke-width:19.05;stroke-linecap:round;stroke-linejoin:round"
         id="path100"
         inkscape:label="17" /><path
         d="m 2008.0004,1314.5197 a 120,120 0 0 0 -240,0 120,120 0 0 0 240,0 z"
         style="display:inline;fill:none;stroke:#000000;stroke-width:19.05;stroke-linecap:round;stroke-linejoin:round"
         id="path101"
         inkscape:label="16" /><path
         d="m 1720.0004,1314.5197 a 120,120 0 0 0 -239.9999,0 120,120 0 0 0 239.9999,0 z"
         style="display:inline;fill:none;stroke:#000000;stroke-width:19.05;stroke-linecap:round;stroke-linejoin:round"
         id="path102"
         inkscape:label="15" /><path
         d="m 1432.0005,1314.5197 a 120.00005,120.00005 0 0 0 -240.0001,0 120.00005,120.00005 0 0 0 240.0001,0 z"
         style="display:inline;fill:none;stroke:#000000;stroke-width:19.05;stroke-linecap:round;stroke-linejoin:round"
         id="path103"
         inkscape:label="14" /><path
         d="m 2872.0004,930.51968 a 120,120 0 0 0 -240,0 120,120 0 0 0 240,0 z"
         style="display:inline;fill:none;stroke:#000000;stroke-width:19.05;stroke-linecap:round;stroke-linejoin:round"
         id="path92-9"
         inkscape:label="13" /><path
         d="m 2584.0004,930.51968 a 120,120 0 0 0 -240,0 120,120 0 0 0 240,0 z"
         style="display:inline;fill:none;stroke:#000000;stroke-width:19.05;stroke-linecap:round;stroke-linejoin:round"
         id="path93-8"
         inkscape:label="12" /><path
         d="m 2296.0004,930.51968 a 120,120 0 0 0 -240,0 120,120 0 0 0 240,0 z"
         style="display:inline;fill:none;stroke:#000000;stroke-width:19.05;stroke-linecap:round;stroke-linejoin:round"
         id="path94-4"
         inkscape:label="11" /><path
         d="m 2008.0004,930.51968 a 120,120 0 0 0 -240,0 120,120 0 0 0 240,0 z"
         style="display:inline;fill:none;stroke:#000000;stroke-width:19.05;stroke-linecap:round;stroke-linejoin:round"
         id="path95-0"
         inkscape:label="10" /><path
         d="m 1720.0004,930.51968 a 120,120 0 0 0 -239.9999,0 120,120 0 0 0 239.9999,0 z"
         style="display:inline;fill:none;stroke:#000000;stroke-width:19.05;stroke-linecap:round;stroke-linejoin:round"
         id="path96-7"
         inkscape:label="9" /><path
         d="m 1432.0005,930.51968 a 120.00005,120.00005 0 0 0 -240.0001,0 120.00005,120.00005 0 0 0 240.0001,0 z"
         style="display:inline;fill:none;stroke:#000000;stroke-width:19.05;stroke-linecap:round;stroke-linejoin:round"
         id="path97"
         inkscape:label="8" /><path
         d="m 3030.4004,594.51968 a 134.4,134.4 0 0 0 -268.8,0 134.4,134.4 0 0 0 268.8,0 z"
         style="display:inline;fill:none;stroke:#000000;stroke-width:19.05;stroke-linecap:round;stroke-linejoin:round"
         id="path104"
         inkscape:label="7" /><path
         d="m 2728.0004,594.51968 a 120,120 0 0 0 -240,0 120,120 0 0 0 240,0 z"
         style="display:inline;fill:none;stroke:#000000;stroke-width:19.05;stroke-linecap:round;stroke-linejoin:round"
         id="path82-6"
         inkscape:label="6" /><path
         d="m 2440.0004,594.51968 a 120,120 0 0 0 -240,0 120,120 0 0 0 240,0 z"
         style="display:inline;fill:none;stroke:#000000;stroke-width:19.05;stroke-linecap:round;stroke-linejoin:round"
         id="path83-3"
         inkscape:label="5" /><path
         d="m 2152.0004,594.51968 a 120,120 0 0 0 -240,0 120,120 0 0 0 240,0 z"
         style="display:inline;fill:none;stroke:#000000;stroke-width:19.05;stroke-linecap:round;stroke-linejoin:round"
         id="path84-7"
         inkscape:label="4" /><path
         d="m 1864.0004,594.51968 a 120,120 0 0 0 -240,0 120,120 0 0 0 240,0 z"
         style="display:inline;fill:none;stroke:#000000;stroke-width:19.05;stroke-linecap:round;stroke-linejoin:round"
         id="path85-8"
         inkscape:label="3" /><path
         d="m 1576.0004,594.51968 a 120,120 0 0 0 -240,0 120,120 0 0 0 240,0 z"
         style="display:inline;fill:none;stroke:#000000;stroke-width:19.05;stroke-linecap:round;stroke-linejoin:round"
         id="path86-8"
         inkscape:label="2" /><path
         d="m 1302.4004,594.51968 a 134.4,134.4 0 0 0 -268.7999,0 134.4,134.4 0 0 0 268.7999,0 z"
         style="display:inline;fill:none;stroke:#000000;stroke-width:19.05;stroke-linecap:round;stroke-linejoin:round"
         id="path107"
         inkscape:label="1" /></g></g><g
     inkscape:groupmode="layer"
     inkscape:label="front"
     id="g96"
     transform="translate(1607.2553,702.33563)"
     style="display:inline;stroke-width:0.75"><g
       inkscape:groupmode="layer"
       id="layer5"
       inkscape:label="shell"
       style="display:inline;stroke-width:0.75"><path
         d="m -1520.3291,-671.30866 h -3.7796 v -15.53386 h -11.3386 v 1.88976 h -22.6771 22.6771 v 5.66929 3.77953 h -22.6771 v -3.77953 h 22.6771 -22.6771 v -5.66929 -1.88976 h -11.3386 v 15.53386 h -3.7795 v -0.41575 -24.56693 h 52.9134 v 24.56693 z"
         style="display:inline;fill:none;stroke:#000000;stroke-width:0.75;stroke-linecap:round;stroke-linejoin:round"
         id="path5" /><path
         style="display:inline;fill:none;stroke:#000000;stroke-width:0.75;stroke-linecap:round;stroke-linejoin:round"
         d="m -1524.1087,-671.30866 v -17.42361"
         id="path6" /><path
         d="m -1524.1087,-688.73228 a 5.6692908,5.6692908 0 0 0 -5.6693,-5.6693"
         style="display:inline;fill:none;stroke:#000000;stroke-width:0.75;stroke-linecap:round;stroke-linejoin:round"
         id="path7" /><path
         style="display:inline;fill:none;stroke:#000000;stroke-width:0.75;stroke-linecap:round;stroke-linejoin:round"
         d="m -1563.7937,-694.40156 h 34.0157"
         id="path8" /><path
         d="m -1563.7937,-694.40158 a 5.6692908,5.6692908 0 0 0 -5.6693,5.6693"
         style="display:inline;fill:none;stroke:#000000;stroke-width:0.75;stroke-linecap:round;stroke-linejoin:round"
         id="path9" /><path
         style="display:inline;fill:none;stroke:#000000;stroke-width:0.75;stroke-linecap:round;stroke-linejoin:round"
         d="m -1569.463,-671.30866 v -17.42361"
         id="path10" /><path
         d="m -1543.9512,-578.93702 v 1.88976 h 12.2835 v -1.88976 z"
         style="display:inline;fill:none;stroke:#000000;stroke-width:0.75;stroke-linecap:round;stroke-linejoin:round"
         id="path11" /><path
         d="m -1561.9039,-578.93702 v 1.88976 h 12.2834 v -1.88976 z"
         style="display:inline;fill:none;stroke:#000000;stroke-width:0.75;stroke-linecap:round;stroke-linejoin:round"
         id="path12" /><path
         d="m -1486.6913,-654.52756 a 26.834643,26.834643 0 0 0 -22.8592,-26.53853"
         style="display:inline;fill:none;stroke:#000000;stroke-width:0.75;stroke-linecap:round;stroke-linejoin:round"
         id="path13" /><path
         d="m -1509.5951,-681.07305 a 3.7795272,3.7795272 0 0 0 0.045,0.007"
         style="display:inline;fill:none;stroke:#000000;stroke-width:0.75;stroke-linecap:round;stroke-linejoin:round"
         id="path14" /><path
         d="m -1509.5951,-681.07305 c -0.4025,-0.0652 -0.7993,-0.1981 -1.1598,-0.38842 -0.3455,-0.18239 -0.6662,-0.42181 -0.9392,-0.7013"
         style="display:inline;fill:none;stroke:#000000;stroke-width:0.75;stroke-linecap:round;stroke-linejoin:round"
         id="path15" /><path
         d="m -1512.7701,-684.80391 a 3.7795272,3.7795272 0 0 0 1.076,2.64114"
         style="display:inline;fill:none;stroke:#000000;stroke-width:0.75;stroke-linecap:round;stroke-linejoin:round"
         id="path16" /><path
         style="display:inline;fill:none;stroke:#000000;stroke-width:0.75;stroke-linecap:round;stroke-linejoin:round"
         d="m -1512.7701,-692.5118 v 7.70787"
         id="path17" /><path
         style="display:inline;fill:none;stroke:#000000;stroke-width:0.75;stroke-linecap:round;stroke-linejoin:round"
         d="m -1512.7701,-698.18109 v 5.66929"
         id="path18" /><path
         d="m -1512.7701,-698.1811 a 3.7795272,3.7795272 0 0 0 -3.7795,-3.77953"
         style="display:inline;fill:none;stroke:#000000;stroke-width:0.75;stroke-linecap:round;stroke-linejoin:round"
         id="path19" /><path
         style="display:inline;fill:none;stroke:#000000;stroke-width:0.75;stroke-linecap:round;stroke-linejoin:round"
         d="m -1577.0221,-701.96062 h 60.4725"
         id="path20" /><path
         d="m -1577.0221,-701.96063 a 3.7795272,3.7795272 0 0 0 -3.7795,3.77953"
         style="display:inline;fill:none;stroke:#000000;stroke-width:0.75;stroke-linecap:round;stroke-linejoin:round"
         id="path21" /><path
         style="display:inline;fill:none;stroke:#000000;stroke-width:0.75;stroke-linecap:round;stroke-linejoin:round"
         d="m -1580.8016,-692.5118 v -5.66929"
         id="path22" /><path
         style="display:inline;fill:none;stroke:#000000;stroke-width:0.75;stroke-linecap:round;stroke-linejoin:round"
         d="m -1580.8016,-684.80338 v -7.70842"
         id="path23" /><path
         d="m -1582.0063,-682.03708 a 3.779527,3.779527 0 0 0 1.2047,-2.76631"
         style="display:inline;fill:none;stroke:#000000;stroke-width:0.75;stroke-linecap:round;stroke-linejoin:round"
         id="path24" /><path
         d="m -1582.0063,-682.03708 c -0.2993,0.27848 -0.6488,0.51071 -1.0214,0.67872 -0.3058,0.13786 -0.633,0.2355 -0.9643,0.28778"
         style="display:inline;fill:none;stroke:#000000;stroke-width:0.75;stroke-linecap:round;stroke-linejoin:round"
         id="path25" /><path
         d="m -1584.0212,-681.06609 a 3.7795272,3.7795272 0 0 0 0.029,-0.004"
         style="display:inline;fill:none;stroke:#000000;stroke-width:0.75;stroke-linecap:round;stroke-linejoin:round"
         id="path26" /><path
         d="m -1584.0212,-681.06609 a 26.834643,26.834643 0 0 0 -22.8591,26.53853"
         style="display:inline;fill:none;stroke:#000000;stroke-width:0.75;stroke-linecap:round;stroke-linejoin:round"
         id="path27" /><path
         style="display:inline;fill:none;stroke:#000000;stroke-width:0.75;stroke-linecap:round;stroke-linejoin:round"
         d="m -1606.8803,-654.52755 v 48.7559"
         id="path28" /><path
         d="m -1606.8803,-605.77166 a 26.834643,26.834643 0 0 0 26.8346,26.83464"
         style="display:inline;fill:none;stroke:#000000;stroke-width:0.75;stroke-linecap:round;stroke-linejoin:round"
         id="path29" /><path
         style="display:inline;fill:none;stroke:#000000;stroke-width:0.75;stroke-linecap:round;stroke-linejoin:round"
         d="m -1580.0457,-578.93701 h 10.5827"
         id="path30" /><path
         style="display:inline;fill:none;stroke:#000000;stroke-width:0.75;stroke-linecap:round;stroke-linejoin:round"
         d="m -1569.463,-577.04724 v -1.88977"
         id="path31" /><path
         d="m -1569.463,-577.04726 a 5.6692908,5.6692908 0 0 0 5.6693,5.66929"
         style="display:inline;fill:none;stroke:#000000;stroke-width:0.75;stroke-linecap:round;stroke-linejoin:round"
         id="path32" /><path
         style="display:inline;fill:none;stroke:#000000;stroke-width:0.75;stroke-linecap:round;stroke-linejoin:round"
         d="m -1529.778,-571.37795 h -34.0157"
         id="path33" /><path
         d="m -1529.778,-571.37797 a 5.6692908,5.6692908 0 0 0 5.6693,-5.66929"
         style="display:inline;fill:none;stroke:#000000;stroke-width:0.75;stroke-linecap:round;stroke-linejoin:round"
         id="path34" /><path
         style="display:inline;fill:none;stroke:#000000;stroke-width:0.75;stroke-linecap:round;stroke-linejoin:round"
         d="m -1524.1087,-578.93701 v 1.88977"
         id="path35" /><path
         style="display:inline;fill:none;stroke:#000000;stroke-width:0.75;stroke-linecap:round;stroke-linejoin:round"
         d="m -1524.1087,-578.93701 h 10.5827"
         id="path36" /><path
         d="m -1513.526,-578.93702 a 26.834643,26.834643 0 0 0 26.8347,-26.83464"
         style="display:inline;fill:none;stroke:#000000;stroke-width:0.75;stroke-linecap:round;stroke-linejoin:round"
         id="path37" /><path
         style="display:inline;fill:none;stroke:#000000;stroke-width:0.75;stroke-linecap:round;stroke-linejoin:round"
         d="m -1486.6913,-605.77165 v -48.7559"
         id="path38" /><path
         d="m -1580.8016,-664.73229 a 10.204723,10.204723 0 0 0 -10.2047,10.20473 v 48.7559 a 10.204723,10.204723 0 0 0 10.2047,10.20472 h 30.2362 v -1.88976 -5.10236 5.10236 h -30.2362 a 8.3149598,8.3149598 0 0 1 -8.3149,-8.31496 v -48.7559 a 8.3149598,8.3149598 0 0 1 8.3149,-8.31496 h 7.5591 v 5.10236 -5.10236 -1.88977 z"
         style="display:inline;fill:none;stroke:#000000;stroke-width:0.75;stroke-linecap:round;stroke-linejoin:round"
         id="path39" /><path
         d="m -1573.2425,-657.74016 h 7.559 z"
         style="display:inline;fill:none;stroke:#000000;stroke-width:0.75;stroke-linecap:round;stroke-linejoin:round"
         id="path40" /><path
         d="m -1565.6835,-662.84252 v 5.10236 z"
         style="display:inline;fill:none;stroke:#000000;stroke-width:0.75;stroke-linecap:round;stroke-linejoin:round"
         id="path41" /><path
         d="m -1565.6835,-664.73229 v 1.88977 h 37.7953 v 5.10236 h 7.5591 v -5.10236 h 7.559 a 8.3149598,8.3149598 0 0 1 8.315,8.31496 v 48.7559 a 8.3149598,8.3149598 0 0 1 -8.315,8.31496 h -30.2362 v -5.10236 5.10236 1.88976 h 30.2362 a 10.204723,10.204723 0 0 0 10.2047,-10.20472 v -48.7559 a 10.204723,10.204723 0 0 0 -10.2047,-10.20473 h -7.559 -7.5591 z"
         style="display:inline;fill:none;stroke:#000000;stroke-width:0.75;stroke-linecap:round;stroke-linejoin:round"
         id="path42" /><path
         style="display:inline;fill:none;stroke:#000000;stroke-width:0.75;stroke-linecap:round;stroke-linejoin:round"
         d="m -1573.2425,-664.73227 h 7.559"
         id="path43" /><path
         style="display:inline;fill:none;stroke:#000000;stroke-width:0.75;stroke-linecap:round;stroke-linejoin:round"
         d="m -1527.8882,-664.73227 v 1.88976"
         id="path44" /><path
         style="display:inline;fill:none;stroke:#000000;stroke-width:0.75;stroke-linecap:round;stroke-linejoin:round"
         d="m -1520.3291,-664.73227 v 1.88976"
         id="path46" /><path
         style="display:inline;fill:none;stroke:#000000;stroke-width:0.75;stroke-linecap:round;stroke-linejoin:round"
         d="m -1550.5654,-595.56693 h 7.5591"
         id="path47" /><path
         d="m -1550.5654,-602.55906 h 7.5591 z"
         style="display:inline;fill:none;stroke:#000000;stroke-width:0.75;stroke-linecap:round;stroke-linejoin:round"
         id="path48" /><path
         d="m -1601.022,-605.77166 a 20.976376,20.976376 0 0 0 20.9763,20.97637"
         style="display:inline;fill:none;stroke:#000000;stroke-width:0.75;stroke-linecap:round;stroke-linejoin:round"
         id="path77" /><path
         style="display:inline;fill:none;stroke:#000000;stroke-width:0.75;stroke-linecap:round;stroke-linejoin:round"
         d="m -1513.526,-584.79527 h -66.5197"
         id="path78" /><path
         style="display:inline;fill:none;stroke:#000000;stroke-width:0.75;stroke-linecap:round;stroke-linejoin:round"
         d="m -1601.022,-605.77165 v -48.7559"
         id="path79" /><path
         d="m -1580.0457,-675.50394 a 20.976376,20.976376 0 0 0 -20.9763,20.97638"
         style="display:inline;fill:none;stroke:#000000;stroke-width:0.75;stroke-linecap:round;stroke-linejoin:round"
         id="path80" /><path
         style="display:inline;fill:none;stroke:#000000;stroke-width:0.75;stroke-linecap:round;stroke-linejoin:round"
         d="m -1580.0457,-675.50394 h 6.8032"
         id="path81" /><path
         style="display:inline;fill:none;stroke:#000000;stroke-width:0.75;stroke-linecap:round;stroke-linejoin:round"
         d="m -1558.1244,-675.50394 h 22.6771"
         id="path82" /><path
         style="display:inline;fill:none;stroke:#000000;stroke-width:0.75;stroke-linecap:round;stroke-linejoin:round"
         d="m -1520.3291,-675.50394 h 6.8031"
         id="path83" /><path
         d="m -1492.5496,-654.52756 a 20.976376,20.976376 0 0 0 -20.9764,-20.97638"
         style="display:inline;fill:none;stroke:#000000;stroke-width:0.75;stroke-linecap:round;stroke-linejoin:round"
         id="path84" /><path
         style="display:inline;fill:none;stroke:#000000;stroke-width:0.75;stroke-linecap:round;stroke-linejoin:round"
         d="m -1492.5496,-654.52755 v 48.7559"
         id="path85" /><path
         d="m -1513.526,-584.79529 a 20.976376,20.976376 0 0 0 20.9764,-20.97637"
         style="display:inline;fill:none;stroke:#000000;stroke-width:0.75;stroke-linecap:round;stroke-linejoin:round"
         id="path86" /><path
         d="m -1512.7701,-588.99056 a 16.781101,16.781101 0 0 0 16.7811,-16.7811 v -48.7559 a 16.781101,16.781101 0 0 0 -16.7811,-16.7811 h -68.0315 a 16.781101,16.781101 0 0 0 -16.7811,16.7811 v 48.7559 a 16.781101,16.781101 0 0 0 16.7811,16.7811 z"
         style="display:inline;fill:none;stroke:#000000;stroke-width:0.75;stroke-linecap:round;stroke-linejoin:round"
         id="path87" /><path
         d="m -1535.4473,-692.51181 v 3.77953 h -22.6771 v -3.77953 z"
         style="display:inline;fill:none;stroke:#000000;stroke-width:0.75;stroke-linecap:round;stroke-linejoin:round"
         id="path88" /><path
         style="display:inline;fill:none;stroke:#000000;stroke-width:0.75;stroke-linecap:round;stroke-linejoin:round"
         d="m -1558.1244,-688.73227 h 22.6771"
         id="path89" /><path
         style="display:inline;fill:none;stroke:#000000;stroke-width:0.75;stroke-linecap:round;stroke-linejoin:round"
         d="m -1558.1244,-688.73227 v 1.88976"
         id="path90" /><path
         style="display:inline;fill:none;stroke:#000000;stroke-width:0.75;stroke-linecap:round;stroke-linejoin:round"
         d="m -1535.4473,-686.84251 v -1.88976"
         id="path91" /><path
         style="display:inline;fill:none;stroke:#000000;stroke-width:0.75;stroke-linecap:round;stroke-linejoin:round"
         d="m -1558.1244,-671.30866 v -15.53385"
         id="path92" /><path
         style="display:inline;fill:none;stroke:#000000;stroke-width:0.75;stroke-linecap:round;stroke-linejoin:round"
         d="m -1535.4473,-671.30866 v -15.53385"
         id="path93" /><path
         d="m -1577.0221,-664.73229 h 15.1182 v -3.40157 a 1.8897636,1.8897636 0 0 0 -1.8898,-1.88977 h -11.3386 a 1.8897636,1.8897636 0 0 0 -1.8898,1.88977 z"
         style="display:inline;fill:none;stroke:#000000;stroke-width:0.75;stroke-linecap:round;stroke-linejoin:round"
         id="path94" /><path
         d="m -1531.6677,-664.73229 h 15.1181 v -3.40157 a 1.8897636,1.8897636 0 0 0 -1.8898,-1.88977 h -11.3386 a 1.8897636,1.8897636 0 0 0 -1.8897,1.88977 z"
         style="display:inline;fill:none;stroke:#000000;stroke-width:0.75;stroke-linecap:round;stroke-linejoin:round"
         id="path95" /><path
         style="display:inline;fill:none;stroke:#000000;stroke-width:0.75;stroke-linecap:round;stroke-linejoin:round"
         d="m -1580.0457,-578.93701 h 66.5197"
         id="path96" /></g><g
       inkscape:groupmode="layer"
       id="layer3"
       inkscape:label="pins"
       style="display:inline;stroke-width:0.75"><path
         d="m -1508.3291,-650.93701 a 4.44095,4.44095 0 0 0 -8.8819,0 4.44095,4.44095 0 0 0 8.8819,0 z"
         style="display:inline;fill:none;stroke:#000000;stroke-width:0.75;stroke-linecap:round;stroke-linejoin:round"
         id="path51"
         inkscape:label="1" /><path
         d="m -1519.6677,-650.93701 a 4.44095,4.44095 0 0 0 -8.8819,0 4.44095,4.44095 0 0 0 8.8819,0 z"
         style="display:inline;fill:none;stroke:#000000;stroke-width:0.75;stroke-linecap:round;stroke-linejoin:round"
         id="path52"
         inkscape:label="2" /><path
         d="m -1531.0063,-650.93701 a 4.44095,4.44095 0 0 0 -8.8819,0 4.44095,4.44095 0 0 0 8.8819,0 z"
         style="display:inline;fill:none;stroke:#000000;stroke-width:0.75;stroke-linecap:round;stroke-linejoin:round"
         id="path53"
         inkscape:label="3" /><path
         d="m -1542.3449,-650.93701 a 4.44095,4.44095 0 0 0 -8.8819,0 4.44095,4.44095 0 0 0 8.8819,0 z"
         style="display:inline;fill:none;stroke:#000000;stroke-width:0.75;stroke-linecap:round;stroke-linejoin:round"
         id="path54"
         inkscape:label="4" /><path
         d="m -1553.6835,-650.93701 a 4.44095,4.44095 0 0 0 -8.8819,0 4.44095,4.44095 0 0 0 8.8819,0 z"
         style="display:inline;fill:none;stroke:#000000;stroke-width:0.75;stroke-linecap:round;stroke-linejoin:round"
         id="path55"
         inkscape:label="4" /><path
         d="m -1565.0221,-650.93701 a 4.4409445,4.4409445 0 0 0 -8.8818,0 4.4409445,4.4409445 0 0 0 8.8818,0 z"
         style="display:inline;fill:none;stroke:#000000;stroke-width:0.75;stroke-linecap:round;stroke-linejoin:round"
         id="path56"
         inkscape:label="6" /><path
         d="m -1576.3606,-650.93701 a 4.44095,4.44095 0 0 0 -8.8819,0 4.44095,4.44095 0 0 0 8.8819,0 z"
         style="display:inline;fill:none;stroke:#000000;stroke-width:0.75;stroke-linecap:round;stroke-linejoin:round"
         id="path57"
         inkscape:label="7" /><path
         d="m -1513.9984,-637.70867 a 4.44095,4.44095 0 0 0 -8.8819,0 4.44095,4.44095 0 0 0 8.8819,0 z"
         style="display:inline;fill:none;stroke:#000000;stroke-width:0.75;stroke-linecap:round;stroke-linejoin:round"
         id="path65"
         inkscape:label="8" /><path
         d="m -1525.337,-637.70867 a 4.44095,4.44095 0 0 0 -8.8819,0 4.44095,4.44095 0 0 0 8.8819,0 z"
         style="display:inline;fill:none;stroke:#000000;stroke-width:0.75;stroke-linecap:round;stroke-linejoin:round"
         id="path66"
         inkscape:label="9" /><path
         d="m -1536.6756,-637.70867 a 4.44095,4.44095 0 0 0 -8.8819,0 4.44095,4.44095 0 0 0 8.8819,0 z"
         style="display:inline;fill:none;stroke:#000000;stroke-width:0.75;stroke-linecap:round;stroke-linejoin:round"
         id="path67"
         inkscape:label="10" /><path
         d="m -1548.0142,-637.70867 a 4.44095,4.44095 0 0 0 -8.8819,0 4.44095,4.44095 0 0 0 8.8819,0 z"
         style="display:inline;fill:none;stroke:#000000;stroke-width:0.75;stroke-linecap:round;stroke-linejoin:round"
         id="path68"
         inkscape:label="11" /><path
         d="m -1559.3528,-637.70867 a 4.4409445,4.4409445 0 0 0 -8.8818,0 4.4409445,4.4409445 0 0 0 8.8818,0 z"
         style="display:inline;fill:none;stroke:#000000;stroke-width:0.75;stroke-linecap:round;stroke-linejoin:round"
         id="path69"
         inkscape:label="12" /><path
         d="m -1570.6913,-637.70867 a 4.44095,4.44095 0 0 0 -8.8819,0 4.44095,4.44095 0 0 0 8.8819,0 z"
         style="display:inline;fill:none;stroke:#000000;stroke-width:0.75;stroke-linecap:round;stroke-linejoin:round"
         id="path70"
         inkscape:label="13" /><path
         d="m -1513.9984,-622.59056 a 4.44095,4.44095 0 0 0 -8.8819,0 4.44095,4.44095 0 0 0 8.8819,0 z"
         style="display:inline;fill:none;stroke:#000000;stroke-width:0.75;stroke-linecap:round;stroke-linejoin:round"
         id="path71"
         inkscape:label="14" /><path
         d="m -1525.337,-622.59056 a 4.44095,4.44095 0 0 0 -8.8819,0 4.44095,4.44095 0 0 0 8.8819,0 z"
         style="display:inline;fill:none;stroke:#000000;stroke-width:0.75;stroke-linecap:round;stroke-linejoin:round"
         id="path72"
         inkscape:label="15" /><path
         d="m -1536.6756,-622.59056 a 4.44095,4.44095 0 0 0 -8.8819,0 4.44095,4.44095 0 0 0 8.8819,0 z"
         style="display:inline;fill:none;stroke:#000000;stroke-width:0.75;stroke-linecap:round;stroke-linejoin:round"
         id="path73"
         inkscape:label="16" /><path
         d="m -1548.0142,-622.59056 a 4.44095,4.44095 0 0 0 -8.8819,0 4.44095,4.44095 0 0 0 8.8819,0 z"
         style="display:inline;fill:none;stroke:#000000;stroke-width:0.75;stroke-linecap:round;stroke-linejoin:round"
         id="path74"
         inkscape:label="17" /><path
         d="m -1559.3528,-622.59056 a 4.4409445,4.4409445 0 0 0 -8.8818,0 4.4409445,4.4409445 0 0 0 8.8818,0 z"
         style="display:inline;fill:none;stroke:#000000;stroke-width:0.75;stroke-linecap:round;stroke-linejoin:round"
         id="path75"
         inkscape:label="18" /><path
         d="m -1570.6913,-622.59056 a 4.44095,4.44095 0 0 0 -8.8819,0 4.44095,4.44095 0 0 0 8.8819,0 z"
         style="display:inline;fill:none;stroke:#000000;stroke-width:0.75;stroke-linecap:round;stroke-linejoin:round"
         id="path76"
         inkscape:label="19" /><path
         d="m -1508.3291,-609.36221 a 4.44095,4.44095 0 0 0 -8.8819,0 4.44095,4.44095 0 0 0 8.8819,0 z"
         style="display:inline;fill:none;stroke:#000000;stroke-width:0.75;stroke-linecap:round;stroke-linejoin:round"
         id="path58"
         inkscape:label="20" /><path
         d="m -1519.6677,-609.36221 a 4.44095,4.44095 0 0 0 -8.8819,0 4.44095,4.44095 0 0 0 8.8819,0 z"
         style="display:inline;fill:none;stroke:#000000;stroke-width:0.75;stroke-linecap:round;stroke-linejoin:round"
         id="path59"
         inkscape:label="21" /><path
         d="m -1531.0063,-609.36221 a 4.44095,4.44095 0 0 0 -8.8819,0 4.44095,4.44095 0 0 0 8.8819,0 z"
         style="display:inline;fill:none;stroke:#000000;stroke-width:0.75;stroke-linecap:round;stroke-linejoin:round"
         id="path60"
         inkscape:label="22" /><path
         d="m -1542.3449,-609.36221 a 4.44095,4.44095 0 0 0 -8.8819,0 4.44095,4.44095 0 0 0 8.8819,0 z"
         style="display:inline;fill:none;stroke:#000000;stroke-width:0.75;stroke-linecap:round;stroke-linejoin:round"
         id="path61"
         inkscape:label="23" /><path
         d="m -1553.6835,-609.36221 a 4.44095,4.44095 0 0 0 -8.8819,0 4.44095,4.44095 0 0 0 8.8819,0 z"
         style="display:inline;fill:none;stroke:#000000;stroke-width:0.75;stroke-linecap:round;stroke-linejoin:round"
         id="path62"
         inkscape:label="24" /><path
         d="m -1565.0221,-609.36221 a 4.4409445,4.4409445 0 0 0 -8.8818,0 4.4409445,4.4409445 0 0 0 8.8818,0 z"
         style="display:inline;fill:none;stroke:#000000;stroke-width:0.75;stroke-linecap:round;stroke-linejoin:round"
         id="path63"
         inkscape:label="25" /><path
         d="m -1576.3606,-609.36221 a 4.44095,4.44095 0 0 0 -8.8819,0 4.44095,4.44095 0 0 0 8.8819,0 z"
         style="display:inline;fill:none;stroke:#000000;stroke-width:0.75;stroke-linecap:round;stroke-linejoin:round"
         id="path64"
         inkscape:label="26" /></g></g></svg>
